<?xml version="1.0" encoding="UTF-8" standalone="no"?>
<!-- Created with Inkscape (http://www.inkscape.org/) -->

<svg
   version="1.1"
   id="svg1"
   width="341.952"
   height="193.35468"
   viewBox="0 0 341.952 193.35468"
   sodipodi:docname="demand-mr-mc.pdf"
   xmlns:inkscape="http://www.inkscape.org/namespaces/inkscape"
   xmlns:sodipodi="http://sodipodi.sourceforge.net/DTD/sodipodi-0.dtd"
   xmlns="http://www.w3.org/2000/svg"
   xmlns:svg="http://www.w3.org/2000/svg">
  <defs
     id="defs1" />
  <sodipodi:namedview
     id="namedview1"
     pagecolor="#ffffff"
     bordercolor="#000000"
     borderopacity="0.25"
     inkscape:showpageshadow="2"
     inkscape:pageopacity="0.0"
     inkscape:pagecheckerboard="0"
     inkscape:deskcolor="#d1d1d1">
    <inkscape:page
       x="0"
       y="0"
       inkscape:label="1"
       id="page1"
       width="341.952"
       height="193.35468"
       margin="0"
       bleed="0" />
  </sodipodi:namedview>
  <g
     id="g1"
     inkscape:groupmode="layer"
     inkscape:label="1">
    <path
       id="path1"
       d="M 0,0 H 236.64204"
       style="fill:none;stroke:#000000;stroke-width:0.3985;stroke-linecap:butt;stroke-linejoin:miter;stroke-miterlimit:10;stroke-dasharray:none;stroke-opacity:1"
       transform="matrix(1.3333333,0,0,-1.3333333,20.854667,169.91733)" />
    <path
       id="path2"
       d="M 1.99252,0 -1.19551,1.59401 0,0 -1.19551,-1.59401"
       style="fill:#000000;fill-opacity:1;fill-rule:nonzero;stroke:none"
       transform="matrix(1.3333333,0,0,-1.3333333,336.37739,169.91733)" />
    <path
       id="path3"
       d="M 0,0 V 123.25505"
       style="fill:none;stroke:#000000;stroke-width:0.3985;stroke-linecap:butt;stroke-linejoin:miter;stroke-miterlimit:10;stroke-dasharray:none;stroke-opacity:1"
       transform="matrix(1.3333333,0,0,-1.3333333,20.854667,169.91733)" />
    <path
       id="path4"
       d="M 1.99252,0 -1.19551,1.59401 0,0 -1.19551,-1.59401"
       style="fill:#000000;fill-opacity:1;fill-rule:nonzero;stroke:none"
       transform="matrix(0,-1.3333333,-1.3333333,0,20.854667,5.5772667)" />
    <path
       id="path5"
       d="m 0,125.24757 9.94292,-5.21857 9.94298,-5.21856 9.94293,-5.21855 9.94294,-5.21859 9.94298,-5.21856 9.94293,-5.21857 9.94294,-5.21855 9.94293,-5.21857 9.94298,-5.21856 9.94294,-5.21859 9.94293,-5.21855 9.94298,-5.21856 9.94294,-5.21857 9.94293,-5.21857 9.94293,-5.21856 9.94298,-5.21857 9.94294,-5.21858 9.94294,-5.21855 9.94298,-5.21856 9.94294,-5.21858 9.94292,-5.21855 9.94298,-5.21857 9.94294,-5.21856 9.94294,-5.21857"
       style="fill:none;stroke:#000000;stroke-width:0.79701;stroke-linecap:butt;stroke-linejoin:miter;stroke-miterlimit:10;stroke-dasharray:none;stroke-opacity:1"
       transform="matrix(1.3333333,0,0,-1.3333333,20.854667,169.91733)" />
    <path
       id="path6"
       d="m 0,125.24757 4.97153,-5.21864 4.97154,-5.21864 4.97154,-5.21863 4.97154,-5.21864 4.97159,-5.21868 4.97153,-5.21863 4.97154,-5.21864 4.97154,-5.21863 4.97155,-5.21864 4.97154,-5.21864 4.97154,-5.21863 4.97153,-5.21864 4.97156,-5.21865 4.97153,-5.21863 4.97158,-5.21867 4.97154,-5.21863 4.97153,-5.21864 4.97156,-5.21863 4.97153,-5.21864 4.97156,-5.21864 4.97154,-5.21863 4.97154,-5.21865 4.97154,-5.21864 4.97153,-5.21863"
       style="fill:none;stroke:#000000;stroke-width:0.79701;stroke-linecap:butt;stroke-linejoin:miter;stroke-miterlimit:10;stroke-dasharray:2.98883, 2.98883;stroke-dashoffset:0;stroke-opacity:1"
       transform="matrix(1.3333333,0,0,-1.3333333,20.854667,169.91733)" />
    <path
       id="path7"
       d="m 0,37.57426 h 7.95445 7.95449 7.95446 7.95449 7.95451 7.95447 7.95447 7.95446 7.95449 7.95446 7.95449 7.95446 7.95449 7.95445 7.95451 7.95449 7.95446 7.95449 7.95447 7.95448 7.95446 7.95447 7.95449 7.95446"
       style="fill:none;stroke:#000000;stroke-width:0.79701;stroke-linecap:butt;stroke-linejoin:miter;stroke-miterlimit:10;stroke-dasharray:none;stroke-opacity:1"
       transform="matrix(1.3333333,0,0,-1.3333333,20.854667,169.91733)" />
    <path
       id="path8"
       d="m 1.5822344,-0.77416406 c -0.09375,0.38671875 -0.1171875,0.46875 -0.90234378,0.46875 -0.17578125,0 -0.28125,0 -0.28125,0.1875 0,0.1171874975 0.09375,0.1171874975 0.28125,0.1171874975 H 3.9728594 c 2.0742187,0 4.03125,-2.0976562375 4.03125,-4.2890625375 0,-1.3945312 -0.84375,-2.5195312 -2.3320313,-2.5195312 H 2.3205156 c -0.1875,0 -0.2929687,0 -0.2929687,0.1992187 0,0.1171875 0.082031,0.1171875 0.28125,0.1171875 0.1289062,0 0.3164062,0.011719 0.4335937,0.011719 0.1523438,0.023437 0.2109375,0.058594 0.2109375,0.1640625 0,0.035156 0,0.070312 -0.035156,0.1875 z m 2.15625,-5.34375004 c 0.082031,-0.3515625 0.1054687,-0.375 0.5390625,-0.375 h 1.0664062 c 0.9726563,0 1.7929688,0.5273438 1.7929688,1.8398438 0,0.4921875 -0.1992188,2.1210937 -1.0429688,3.2226562 -0.28125,0.3632813 -1.078125,1.12500004 -2.296875,1.12500004 h -1.125 c -0.140625,0 -0.1640625,0 -0.2226562,-0.0117188 -0.09375,-0.0117188 -0.1289063,-0.0234375 -0.1289063,-0.10546875 0,-0.0234375 0,-0.046875 0.046875,-0.22265625 z m 0,0"
       style="fill:#000000;fill-opacity:1;fill-rule:nonzero;stroke:none"
       aria-label="D"
       transform="matrix(1.3333333,0,0,1.3333333,269.71067,132.708)" />
    <path
       id="path9"
       d="m 9.2238125,-6.0342109 c 0.09375,-0.3632813 0.1054688,-0.4570313 0.8554685,-0.4570313 0.234375,0 0.316407,0 0.316407,-0.1992187 0,-0.1171875 -0.09375,-0.1171875 -0.269532,-0.1171875 H 8.8136563 c -0.2578125,0 -0.2695313,0 -0.3867188,0.1992187 L 4.794125,-0.93655469 4.0206875,-6.5732734 c -0.035156,-0.234375 -0.058594,-0.234375 -0.3164062,-0.234375 h -1.359375 c -0.1875,0 -0.3046875,0 -0.3046875,0.1992187 0,0.1171875 0.09375,0.1171875 0.2929687,0.1171875 0.1289063,0 0.3046875,0.011719 0.421875,0.011719 0.1640625,0.023437 0.2226563,0.058594 0.2226563,0.1640625 0,0.035156 -0.011719,0.070312 -0.035156,0.1875 l -1.265625,5.0742187 c -0.1054687,0.39843751 -0.2695312,0.71484376 -1.078125,0.75000001 -0.046875,0 -0.17578125,0 -0.17578125,0.1875 0,0.08203125 0.0585938,0.1171875025 0.140625,0.1171875025 0.31640625,0 0.66796875,-0.0351562525 0.99609375,-0.0351562525 0.3398438,0 0.6914063,0.0351562525 1.0195313,0.0351562525 0.046875,0 0.1757812,0 0.1757812,-0.1992187525 0,-0.10546875 -0.1054687,-0.10546875 -0.1757812,-0.10546875 -0.5625,-0.0117188 -0.6796875,-0.2109375 -0.6796875,-0.4453125 0,-0.0703125 0.011719,-0.1171875 0.046875,-0.22265625 L 3.294125,-6.4092109 h 0.011719 l 0.8554687,6.17578121 c 0.023437,0.12890625 0.035156,0.2343750025 0.1523438,0.2343750025 0.1054687,0 0.1757812,-0.1054687525 0.2226562,-0.1757812525 L 8.5558438,-6.4795234 h 0.011719 L 7.137875,-0.77249219 c -0.09375,0.38671875 -0.1171875,0.46875 -0.9023437,0.46875 -0.1640625,0 -0.28125,0 -0.28125,0.1875 0,0.1171875025 0.1289062,0.1171875025 0.1523437,0.1171875025 0.28125,0 0.9609375,-0.0351562525 1.2304688,-0.0351562525 0.4101562,0 0.84375,0.0351562525 1.2539062,0.0351562525 0.058594,0 0.1875,0 0.1875,-0.1992187525 0,-0.10546875 -0.09375,-0.10546875 -0.28125,-0.10546875 -0.3632812,0 -0.6445312,0 -0.6445312,-0.1875 0,-0.0351563 0,-0.0585938 0.046875,-0.234375 z m 5.2646485,-0.082031 c 0.05859,-0.234375 0.08203,-0.3398437 0.28125,-0.3632812 0.08203,-0.011719 0.398437,-0.011719 0.597656,-0.011719 0.714844,0 1.816406,0 1.816406,0.984375 0,0.3398438 -0.152343,1.0195313 -0.550781,1.4179688 -0.257812,0.2578125 -0.785156,0.5742187 -1.675781,0.5742187 H 13.84393 Z m 1.429687,2.7304688 c 1.007813,-0.2226563 2.191407,-0.9140625 2.191407,-1.921875 0,-0.8554688 -0.890625,-1.5 -2.203125,-1.5 h -2.835938 c -0.199219,0 -0.292969,0 -0.292969,0.1992187 0,0.1171875 0.09375,0.1171875 0.28125,0.1171875 0.02344,0 0.210938,0 0.386719,0.011719 0.175781,0.023437 0.257813,0.035156 0.257813,0.1640625 0,0.035156 0,0.070312 -0.03516,0.1875 l -1.335937,5.35546871 c -0.09375,0.38671875 -0.117188,0.46875 -0.902344,0.46875 -0.175781,0 -0.269531,0 -0.269531,0.19921875 0,0.1054687525 0.117187,0.1054687525 0.140625,0.1054687525 0.28125,0 0.972656,-0.0351562525 1.253906,-0.0351562525 0.28125,0 0.984375,0.0351562525 1.265625,0.0351562525 0.08203,0 0.199219,0 0.199219,-0.1992187525 0,-0.10546875 -0.09375,-0.10546875 -0.28125,-0.10546875 -0.363281,0 -0.644531,0 -0.644531,-0.1875 0,-0.0585938 0.01172,-0.10546875 0.02344,-0.1640625 l 0.65625,-2.63671871 h 1.195313 c 0.902343,0 1.078125,0.5507812 1.078125,0.9023437 0,0.1523438 -0.08203,0.4570313 -0.140625,0.6914063 -0.07031,0.2695312 -0.152344,0.6445312 -0.152344,0.84374996 0,1.078125 1.195312,1.078125 1.324219,1.078125 0.84375,0 1.195312,-1.0078125 1.195312,-1.1484375 0,-0.11718746 -0.117187,-0.11718746 -0.117187,-0.11718746 -0.09375,0 -0.117188,0.0703125 -0.128907,0.14062496 -0.257812,0.73828125 -0.679687,0.9023437525 -0.914062,0.9023437525 -0.328125,0 -0.398438,-0.2226562525 -0.398438,-0.6093750025 0,-0.3046875 0.05859,-0.82031251 0.105469,-1.13671871 0.01172,-0.140625 0.03516,-0.328125 0.03516,-0.46875 0,-0.7617188 -0.667968,-1.078125 -0.9375,-1.171875 z m 0,0"
       style="fill:#000000;fill-opacity:1;fill-rule:nonzero;stroke:none"
       aria-label="MR"
       transform="matrix(1.3333333,0,0,1.3333333,104.04533,141.05733)" />
    <path
       id="path10"
       d="m 9.2233672,-6.0338672 c 0.09375,-0.3632812 0.1054687,-0.4570312 0.8554688,-0.4570312 0.234375,0 0.316406,0 0.316406,-0.1992188 0,-0.1171875 -0.09375,-0.1171875 -0.269531,-0.1171875 H 8.8132109 c -0.2578125,0 -0.2695312,0 -0.3867187,0.1992188 L 4.7936797,-0.93621094 4.0202422,-6.5729297 c -0.035156,-0.234375 -0.058594,-0.234375 -0.3164063,-0.234375 h -1.359375 c -0.1875,0 -0.3046875,0 -0.3046875,0.1992188 0,0.1171875 0.09375,0.1171875 0.2929688,0.1171875 0.1289062,0 0.3046875,0.011719 0.421875,0.011719 0.1640625,0.023437 0.2226562,0.058594 0.2226562,0.1640625 0,0.035156 -0.011719,0.070312 -0.035156,0.1875 l -1.265625,5.0742188 c -0.1054688,0.39843746 -0.2695313,0.71484371 -1.07812501,0.74999996 -0.046875,0 -0.17578125,0 -0.17578125,0.1875 0,0.08203125 0.0585938,0.1171875 0.140625,0.1171875 0.31640625,0 0.66796876,-0.03515625 0.99609376,-0.03515625 0.3398437,0 0.6914062,0.03515625 1.0195312,0.03515625 0.046875,0 0.1757813,0 0.1757813,-0.19921875 0,-0.10546875 -0.1054688,-0.10546875 -0.1757813,-0.10546875 -0.5625,-0.0117188 -0.6796875,-0.2109375 -0.6796875,-0.4453125 0,-0.0703125 0.011719,-0.1171875 0.046875,-0.22265625 L 3.2936797,-6.4088672 h 0.011719 l 0.8554688,6.17578126 c 0.023437,0.12890625 0.035156,0.234375 0.1523437,0.234375 0.1054688,0 0.1757813,-0.10546875 0.2226563,-0.17578125 L 8.5553984,-6.4791797 h 0.011719 l -1.4296875,5.70703126 c -0.09375,0.38671875 -0.1171875,0.46875 -0.9023438,0.46875 -0.1640625,0 -0.28125,0 -0.28125,0.1875 0,0.1171875 0.1289063,0.1171875 0.1523438,0.1171875 0.28125,0 0.9609375,-0.03515625 1.2304687,-0.03515625 0.4101563,0 0.84375,0.03515625 1.2539063,0.03515625 0.058594,0 0.1875,0 0.1875,-0.19921875 0,-0.10546875 -0.09375,-0.10546875 -0.28125,-0.10546875 -0.3632813,0 -0.6445313,0 -0.6445313,-0.1875 0,-0.0351563 0,-0.0585938 0.046875,-0.234375 z m 9.0966798,-0.890625 c 0,-0.023437 -0.02344,-0.09375 -0.105469,-0.09375 -0.03516,0 -0.04687,0.011719 -0.152344,0.1171875 l -0.703125,0.7617188 c -0.08203,-0.140625 -0.539062,-0.8789063 -1.652343,-0.8789063 -2.214844,0 -4.453125,2.203125 -4.453125,4.5117188 0,1.64062496 1.171875,2.73046871 2.695312,2.73046871 0.867188,0 1.617188,-0.3984375 2.144531,-0.85546875 0.9375,-0.82031246 1.101563,-1.72265626 1.101563,-1.75781246 0,-0.1054688 -0.105469,-0.1054688 -0.117188,-0.1054688 -0.05859,0 -0.117187,0.023437 -0.128906,0.1054688 -0.09375,0.2929687 -0.316406,0.9960937 -1.007812,1.57031246 -0.691407,0.5625 -1.3125,0.7265625 -1.839844,0.7265625 -0.890625,0 -1.945313,-0.515625 -1.945313,-2.06249996 0,-0.5742188 0.210938,-2.1914063 1.207032,-3.3515625 0.609375,-0.703125 1.535156,-1.2070313 2.425781,-1.2070313 1.019531,0 1.605469,0.7734375 1.605469,1.921875 0,0.3984375 -0.03516,0.4101563 -0.03516,0.5039063 0,0.1054687 0.117188,0.1054687 0.152344,0.1054687 0.128906,0 0.128906,-0.023437 0.175781,-0.1992187 z m 0,0"
       style="fill:#000000;fill-opacity:1;fill-rule:nonzero;stroke:none"
       aria-label="MC"
       transform="matrix(1.3333333,0,0,1.3333333,30.737333,74.26)" />
    <path
       id="path11"
       d="m 4.3599297,-0.05896875 c 1.546875,-0.5859375 3.0117187,-2.36718745 3.0117187,-4.28906245 0,-1.59375 -1.0546875,-2.671875 -2.5429687,-2.671875 -2.1445313,0 -4.33593751,2.2617187 -4.33593751,4.5820312 0,1.65234375 1.11328121,2.66015625 2.54296871,2.66015625 0.2578125,0 0.5859375,-0.046875 0.984375,-0.15234375 -0.046875,0.62109375 -0.046875,0.6328125 -0.046875,0.76171875 0,0.32812505 0,1.10156255 0.8320313,1.10156255 1.1835937,0 1.6640625,-1.82812505 1.6640625,-1.9335938 0,-0.0703125 -0.070312,-0.10546875 -0.1171875,-0.10546875 -0.070312,0 -0.09375,0.05859375 -0.1171875,0.1171875 -0.234375,0.703125 -0.8203125,0.94921875 -1.1601563,0.94921875 -0.4570312,0 -0.609375,-0.2578125 -0.7148437,-1.01953125 z M 2.4849297,-0.141 c -0.7851563,-0.3046875 -1.125,-1.0898437 -1.125,-1.9804687 0,-0.6914063 0.2695312,-2.0976563 1.0195312,-3.1757813 0.7265625,-1.0195312 1.6640625,-1.4765625 2.390625,-1.4765625 0.9960938,0 1.7226563,0.7734375 1.7226563,2.109375 0,0.9960938 -0.5039063,3.328125 -2.1796875,4.265625 -0.046875,-0.3515625 -0.1523438,-1.078125 -0.8789063,-1.078125 -0.5273437,0 -1.0078125,0.50390625 -1.0078125,1.01953125 0,0.19921875 0.058594,0.3046875 0.058594,0.31640625 z m 0.609375,0.10546875 c -0.140625,0 -0.4570313,0 -0.4570313,-0.421875 0,-0.3984375 0.3867188,-0.79687495 0.796875,-0.79687495 0.421875,0 0.609375,0.234375 0.609375,0.84374995 0,0.15234375 -0.011719,0.1640625 -0.1054687,0.19921875 -0.2578125,0.10546875 -0.5625,0.17578125 -0.84375,0.17578125 z m 0,0"
       style="fill:#000000;fill-opacity:1;fill-rule:nonzero;stroke:none"
       aria-label="Q"
       transform="matrix(1.3333333,0,0,1.3333333,174.69067,183.688)" />
    <path
       id="path12"
       d="m 3.0243359,-3.1532266 h 1.6875 c 1.4179688,0 2.8007813,-1.03125 2.8007813,-2.1445312 0,-0.7734375 -0.65625,-1.5117188 -1.96875,-1.5117188 H 2.3212109 c -0.1875,0 -0.2929687,0 -0.2929687,0.1992188 0,0.1171875 0.082031,0.1171875 0.28125,0.1171875 0.1289062,0 0.3164062,0.011719 0.4335937,0.011719 0.1523438,0.023437 0.2109375,0.058594 0.2109375,0.1640625 0,0.035156 0,0.070312 -0.035156,0.1875 l -1.3359375,5.35546879 c -0.09375,0.38671875 -0.1171875,0.46875 -0.90234376,0.46875 -0.17578125,0 -0.28125,0 -0.28125,0.1875 0,0.1171874975 0.1171875,0.1171874975 0.15234375,0.1171874975 0.28125,0 0.98437501,-0.0351562475 1.26562501,-0.0351562475 0.2109375,0 0.421875,0.01171875 0.6328125,0.01171875 0.2226562,0 0.4453125,0.0234374975 0.6445312,0.0234374975 0.070312,0 0.1992188,0 0.1992188,-0.1992187475 0,-0.10546875 -0.082031,-0.10546875 -0.2695313,-0.10546875 -0.375,0 -0.65625,0 -0.65625,-0.1875 0,-0.0585938 0.023437,-0.10546875 0.035156,-0.1640625 z m 0.7148438,-2.9648437 c 0.082031,-0.3515625 0.1054687,-0.375 0.5390625,-0.375 h 0.9492187 c 0.8320313,0 1.359375,0.2695312 1.359375,0.9492187 0,0.3984375 -0.1992187,1.2539063 -0.5859375,1.6054688 -0.5039062,0.4453125 -1.1015625,0.5273437 -1.5351562,0.5273437 h -1.40625 z m 0,0"
       style="fill:#000000;fill-opacity:1;fill-rule:nonzero;stroke:none"
       aria-label="P"
       transform="matrix(0,-1.3333333,1.3333333,0,16.161333,91.606667)" />
  </g>
</svg>
