<?xml version="1.0" encoding="UTF-8" standalone="no"?>
<!-- Created with Inkscape (http://www.inkscape.org/) -->

<svg
   version="1.1"
   id="svg1"
   width="203.22"
   height="208.28"
   viewBox="0 0 203.22 208.28"
   sodipodi:docname="fig-salop-cycle.pdf"
   xmlns:inkscape="http://www.inkscape.org/namespaces/inkscape"
   xmlns:sodipodi="http://sodipodi.sourceforge.net/DTD/sodipodi-0.dtd"
   xmlns="http://www.w3.org/2000/svg"
   xmlns:svg="http://www.w3.org/2000/svg">
  <defs
     id="defs1" />
  <sodipodi:namedview
     id="namedview1"
     pagecolor="#ffffff"
     bordercolor="#000000"
     borderopacity="0.25"
     inkscape:showpageshadow="2"
     inkscape:pageopacity="0.0"
     inkscape:pagecheckerboard="0"
     inkscape:deskcolor="#d1d1d1">
    <inkscape:page
       x="0"
       y="0"
       inkscape:label="1"
       id="page1"
       width="203.22"
       height="208.28"
       margin="0"
       bleed="0" />
  </sodipodi:namedview>
  <g
     id="g1"
     inkscape:groupmode="layer"
     inkscape:label="1">
    <path
       id="path1"
       d="M 62.36288,0 C 62.36288,34.4425 34.4425,62.36288 0,62.36288 -34.4425,62.36288 -62.36288,34.4425 -62.36288,0 c 0,-34.4425 27.92038,-62.36288 62.36288,-62.36288 34.4425,0 62.36288,27.92038 62.36288,62.36288 z"
       style="fill:none;stroke:#000000;stroke-width:0.79701;stroke-linecap:round;stroke-linejoin:round;stroke-miterlimit:10;stroke-dasharray:none;stroke-opacity:1"
       transform="matrix(1.3333333,0,0,-1.3333333,101.60933,105.05067)" />
    <path
       id="path2"
       d="m 1.59404,62.36288 c 0,0.88038 -0.71367,1.59406 -1.59404,1.59406 -0.88037,0 -1.59404,-0.71368 -1.59404,-1.59406 0,-0.88037 0.71367,-1.59405 1.59404,-1.59405 0.88037,0 1.59404,0.71368 1.59404,1.59405 z"
       style="fill:#000000;fill-opacity:1;fill-rule:nonzero;stroke:none"
       transform="matrix(1.3333333,0,0,-1.3333333,101.60933,105.05067)" />
    <path
       id="path3"
       d="m 63.95694,0 c 0,0.88037 -0.71368,1.59404 -1.59406,1.59404 -0.88037,0 -1.59405,-0.71367 -1.59405,-1.59404 0,-0.88037 0.71368,-1.59404 1.59405,-1.59404 0.88038,0 1.59406,0.71367 1.59406,1.59404 z"
       style="fill:#000000;fill-opacity:1;fill-rule:nonzero;stroke:none"
       transform="matrix(1.3333333,0,0,-1.3333333,101.60933,105.05067)" />
    <path
       id="path4"
       d="m 1.59404,-62.36288 c 0,0.88037 -0.71367,1.59405 -1.59404,1.59405 -0.88037,0 -1.59404,-0.71368 -1.59404,-1.59405 0,-0.88038 0.71367,-1.59406 1.59404,-1.59406 0.88037,0 1.59404,0.71368 1.59404,1.59406 z"
       style="fill:#000000;fill-opacity:1;fill-rule:nonzero;stroke:none"
       transform="matrix(1.3333333,0,0,-1.3333333,101.60933,105.05067)" />
    <path
       id="path5"
       d="m -60.76883,0 c 0,0.88037 -0.71368,1.59404 -1.59405,1.59404 -0.88038,0 -1.59406,-0.71367 -1.59406,-1.59404 0,-0.88037 0.71368,-1.59404 1.59406,-1.59404 0.88037,0 1.59405,0.71367 1.59405,1.59404 z"
       style="fill:#000000;fill-opacity:1;fill-rule:nonzero;stroke:none"
       transform="matrix(1.3333333,0,0,-1.3333333,101.60933,105.05067)" />
    <g
       id="g5"
       aria-label="¯p"
       transform="matrix(1.3333333,0,0,1.3333333,99.396,14.625333)">
      <path
         id="path6"
         d="M 4.2879609,-5.5666562 V -5.8830625 H 0.69030469 v 0.3164063 z m 0,0"
         style="fill:#000000;fill-opacity:1;fill-rule:nonzero;stroke:none" />
      <path
         id="path7"
         d="m -0.40246875,1.2185 c -0.0820313,0.3398438 -0.09375,0.4101563 -0.5390625,0.4101563 -0.11718755,0 -0.22265625,0 -0.22265625,0.1875 0,0.082031 0.046875,0.1171875 0.1289062,0.1171875 0.2695313,0 0.5507813,-0.035156 0.8320313,-0.035156 0.328125,0 0.66796875,0.035156 0.984375,0.035156 0.0585938,0 0.1875,0 0.1875,-0.1992188 0,-0.1054687 -0.10546875,-0.1054687 -0.24609375,-0.1054687 -0.4921875,0 -0.4921875,-0.070312 -0.4921875,-0.1640625 0,-0.1171875 0.421875,-1.7460938 0.48046875,-1.99218755 0.140625,0.29296875 0.4101562,0.6328125 0.9257812,0.6328125 1.1484375,0 2.4023438,-1.45312495 2.4023438,-2.91796875 0,-0.9375 -0.5742188,-1.59375 -1.3359375,-1.59375 -0.4921875,0 -0.9726563,0.3632813 -1.3007813,0.75 -0.09375,-0.5390625 -0.5273437,-0.75 -0.89062495,-0.75 -0.45703125,0 -0.65625,0.3867188 -0.73828125,0.5742188 -0.1875,0.3398437 -0.31640625,0.9375 -0.31640625,0.9609375 0,0.1054687 0.10546875,0.1054687 0.12890625,0.1054687 0.09375,0 0.10546875,-0.011719 0.1640625,-0.234375 0.1640625,-0.703125 0.36328125,-1.1835937 0.7265625,-1.1835937 0.17578125,0 0.3046875,0.082031 0.3046875,0.4570312 0,0.234375 -0.0234375,0.3398438 -0.0703125,0.5039063 z M 1.3553437,-3.1057187 c 0.070312,-0.2695313 0.3398438,-0.5507813 0.515625,-0.703125 0.3515625,-0.3046875 0.6328125,-0.375 0.8085938,-0.375 0.3984375,0 0.6328125,0.3515625 0.6328125,0.9375 0,0.5859375 -0.328125,1.734375 -0.5039063,2.109375 -0.3398437,0.70312495 -0.8203125,1.03124995 -1.1835937,1.03124995 -0.65625,0 -0.78515625,-0.83203125 -0.78515625,-0.890625 0,-0.0234374 0,-0.0351563 0.0234375,-0.16406245 z m 0,0"
         style="fill:#000000;fill-opacity:1;fill-rule:nonzero;stroke:none" />
    </g>
    <g
       id="g7"
       aria-label="¯p"
       transform="matrix(1.3333333,0,0,1.3333333,190.58,107.53067)">
      <path
         id="path8"
         d="M 4.2876562,-5.5659687 V -5.882375 H 0.69 v 0.3164063 z m 0,0"
         style="fill:#000000;fill-opacity:1;fill-rule:nonzero;stroke:none" />
      <path
         id="path9"
         d="m -0.40277344,1.2191875 c -0.0820313,0.3398438 -0.09375,0.4101563 -0.5390625,0.4101563 -0.11718746,0 -0.22265626,0 -0.22265626,0.1875 0,0.082031 0.046875,0.1171875 0.1289063,0.1171875 0.26953121,0 0.55078121,-0.035156 0.83203121,-0.035156 0.328125,0 0.66796875,0.035156 0.984375,0.035156 0.0585938,0 0.1875,0 0.1875,-0.1992188 0,-0.1054687 -0.10546875,-0.1054687 -0.24609375,-0.1054687 -0.4921875,0 -0.4921875,-0.070312 -0.4921875,-0.1640625 0,-0.1171875 0.421875,-1.7460938 0.48046875,-1.99218755 0.140625,0.29296875 0.41015629,0.6328125 0.92578129,0.6328125 1.1484375,0 2.4023437,-1.45312495 2.4023437,-2.91796875 0,-0.9375 -0.5742187,-1.59375 -1.3359375,-1.59375 -0.4921875,0 -0.9726562,0.3632813 -1.3007812,0.75 -0.09375,-0.5390625 -0.52734379,-0.75 -0.89062504,-0.75 -0.45703125,0 -0.65625,0.3867188 -0.73828125,0.5742188 -0.1875,0.3398437 -0.31640625,0.9375 -0.31640625,0.9609375 0,0.1054687 0.10546875,0.1054687 0.12890625,0.1054687 0.09375,0 0.10546875,-0.011719 0.1640625,-0.234375 0.1640625,-0.703125 0.36328125,-1.1835937 0.7265625,-1.1835937 0.17578125,0 0.3046875,0.082031 0.3046875,0.4570312 0,0.234375 -0.0234375,0.3398438 -0.0703125,0.5039063 z M 1.3550391,-3.1050312 c 0.070312,-0.2695313 0.3398437,-0.5507813 0.515625,-0.703125 0.3515625,-0.3046875 0.6328125,-0.375 0.8085937,-0.375 0.3984375,0 0.6328125,0.3515625 0.6328125,0.9375 0,0.5859375 -0.328125,1.734375 -0.5039062,2.109375 -0.3398438,0.70312495 -0.8203125,1.03124995 -1.1835938,1.03124995 -0.65624999,0 -0.78515624,-0.83203125 -0.78515624,-0.890625 0,-0.0234373 0,-0.0351562 0.0234375,-0.16406245 z m 0,0"
         style="fill:#000000;fill-opacity:1;fill-rule:nonzero;stroke:none" />
    </g>
    <path
       id="path10"
       d="m 0.44646094,1.2187109 c -0.0820313,0.3398438 -0.09375,0.4101563 -0.5390625,0.4101563 -0.1171875,0 -0.22265625,0 -0.22265625,0.1875 0,0.082031 0.046875,0.1171875 0.12890625,0.1171875 0.26953125,0 0.55078125,-0.035156 0.83203125,-0.035156 0.328125,0 0.66796871,0.035156 0.98437501,0.035156 0.058594,0 0.1875,0 0.1875,-0.1992188 0,-0.1054687 -0.1054688,-0.1054687 -0.2460938,-0.1054687 -0.4921875,0 -0.4921875,-0.070312 -0.4921875,-0.1640625 0,-0.1171875 0.421875,-1.74609376 0.4804688,-1.99218751 0.140625,0.29296875 0.4101562,0.6328125 0.9257812,0.6328125 1.1484375,0 2.4023438,-1.45312499 2.4023438,-2.91796879 0,-0.9375 -0.5742188,-1.59375 -1.3359375,-1.59375 -0.4921875,0 -0.9726563,0.3632813 -1.3007813,0.75 -0.09375,-0.5390625 -0.5273437,-0.75 -0.890625,-0.75 -0.45703121,0 -0.65624996,0.3867188 -0.73828121,0.5742188 -0.1875,0.3398437 -0.31640625,0.9375 -0.31640625,0.9609375 0,0.1054687 0.10546875,0.1054687 0.12890625,0.1054687 0.09375,0 0.10546875,-0.011719 0.1640625,-0.234375 0.1640625,-0.703125 0.36328125,-1.1835937 0.72656251,-1.1835937 0.1757812,0 0.3046875,0.082031 0.3046875,0.4570312 0,0.234375 -0.023437,0.3398438 -0.070312,0.5039063 z M 2.2042734,-3.1055078 c 0.070312,-0.2695313 0.3398438,-0.5507813 0.515625,-0.703125 0.3515625,-0.3046875 0.6328125,-0.375 0.8085938,-0.375 0.3984375,0 0.6328125,0.3515625 0.6328125,0.9375 0,0.5859375 -0.328125,1.734375 -0.5039063,2.109375 -0.3398437,0.70312499 -0.8203125,1.03124999 -1.1835937,1.03124999 -0.65625,0 -0.7851563,-0.83203125 -0.7851563,-0.890625 0,-0.0234375 0,-0.0351563 0.023437,-0.16406249 z m 0,0"
       style="fill:#000000;fill-opacity:1;fill-rule:nonzero;stroke:none"
       aria-label="p"
       transform="matrix(1.3333333,0,0,1.3333333,98.268,198.61333)" />
    <g
       id="g10"
       aria-label="¯p"
       transform="matrix(1.3333333,0,0,1.3333333,8.212,107.53067)">
      <path
         id="path11"
         d="M 4.2882656,-5.5659687 V -5.882375 H 0.69060937 v 0.3164063 z m 0,0"
         style="fill:#000000;fill-opacity:1;fill-rule:nonzero;stroke:none" />
      <path
         id="path12"
         d="m -0.40216406,1.2191875 c -0.0820313,0.3398438 -0.09375,0.4101563 -0.5390625,0.4101563 -0.11718754,0 -0.22265624,0 -0.22265624,0.1875 0,0.082031 0.046875,0.1171875 0.1289062,0.1171875 0.26953129,0 0.55078129,-0.035156 0.83203129,-0.035156 0.328125,0 0.66796875,0.035156 0.984375,0.035156 0.0585938,0 0.1875,0 0.1875,-0.1992188 0,-0.1054687 -0.10546875,-0.1054687 -0.24609375,-0.1054687 -0.4921875,0 -0.4921875,-0.070312 -0.4921875,-0.1640625 0,-0.1171875 0.421875,-1.7460938 0.48046875,-1.99218755 0.140625,0.29296875 0.41015621,0.6328125 0.92578121,0.6328125 1.1484375,0 2.4023438,-1.45312495 2.4023438,-2.91796875 0,-0.9375 -0.5742188,-1.59375 -1.3359375,-1.59375 -0.4921875,0 -0.9726563,0.3632813 -1.3007813,0.75 -0.09375,-0.5390625 -0.52734371,-0.75 -0.89062496,-0.75 -0.45703125,0 -0.65625,0.3867188 -0.73828125,0.5742188 -0.1875,0.3398437 -0.31640625,0.9375 -0.31640625,0.9609375 0,0.1054687 0.10546875,0.1054687 0.12890625,0.1054687 0.09375,0 0.10546875,-0.011719 0.1640625,-0.234375 0.1640625,-0.703125 0.36328125,-1.1835937 0.7265625,-1.1835937 0.17578125,0 0.3046875,0.082031 0.3046875,0.4570312 0,0.234375 -0.0234375,0.3398438 -0.0703125,0.5039063 z M 1.3556484,-3.1050312 c 0.070312,-0.2695313 0.3398438,-0.5507813 0.515625,-0.703125 0.3515625,-0.3046875 0.6328125,-0.375 0.8085938,-0.375 0.3984375,0 0.6328125,0.3515625 0.6328125,0.9375 0,0.5859375 -0.328125,1.734375 -0.5039063,2.109375 -0.3398437,0.70312495 -0.8203125,1.03124995 -1.1835937,1.03124995 -0.65625001,0 -0.78515626,-0.83203125 -0.78515626,-0.890625 0,-0.0234373 0,-0.0351562 0.0234375,-0.16406245 z m 0,0"
         style="fill:#000000;fill-opacity:1;fill-rule:nonzero;stroke:none" />
    </g>
    <path
       id="path13"
       d="m 2.3322656,-4.4296875 c 0,-0.1875 -0.011719,-0.1992187 -0.2109375,-0.1992187 -0.4453125,0.4335937 -1.078125,0.4453125 -1.35937498,0.4453125 V -3.9375 c 0.1640625,0 0.62109378,0 1.00781248,-0.1875 v 3.55078125 c 0,0.234375 0,0.328125 -0.6914062,0.328125 H 0.80882812 V 0 C 0.93773437,-0.01171875 1.7932031,-0.0234375 2.0510156,-0.0234375 2.2619531,-0.0234375 3.1408594,-0.01171875 3.2932031,0 V -0.24609375 H 3.0353906 c -0.703125,0 -0.703125,-0.09375 -0.703125,-0.328125 z m 0,0"
       style="fill:#000000;fill-opacity:1;fill-rule:nonzero;stroke:none"
       aria-label="1"
       transform="matrix(1.3333333,0,0,1.3333333,32.82,37)" />
    <path
       id="path14"
       d="M 0,0 H 3.971"
       style="fill:none;stroke:#000000;stroke-width:0.398;stroke-linecap:butt;stroke-linejoin:round;stroke-miterlimit:10;stroke-dasharray:none;stroke-opacity:1"
       transform="matrix(1.3333333,0,0,-1.3333333,32.82,38.909333)" />
    <path
       id="path15"
       d="M 3.6916406,-1.1470625 V -1.3931562 H 2.9182031 V -4.498625 c 0,-0.1523437 0,-0.1992187 -0.1523437,-0.1992187 -0.09375,0 -0.1171875,0 -0.1875,0.09375 l -2.30859378,3.2109375 v 0.2460937 H 2.3205469 v 0.57421875 c 0,0.234375 0,0.328125 -0.5625,0.328125 h -0.1875 V 0.001375 c 0.3515625,-0.01171875 0.796875,-0.0234375 1.0429687,-0.0234375 0.2578125,0 0.703125,0.01171875 1.0546875,0.0234375 v -0.24609375 h -0.1875 c -0.5625,0 -0.5625,-0.09375 -0.5625,-0.328125 V -1.1470625 Z M 2.3674219,-3.9478437 v 2.5546875 H 0.52757812 Z m 0,0"
       style="fill:#000000;fill-opacity:1;fill-rule:nonzero;stroke:none"
       aria-label="4"
       transform="matrix(1.3333333,0,0,1.3333333,32.82,46.810667)" />
    <path
       id="path16"
       d="m 2.3331328,-4.4296875 c 0,-0.1875 -0.011719,-0.1992187 -0.2109375,-0.1992187 -0.4453125,0.4335937 -1.078125,0.4453125 -1.35937499,0.4453125 V -3.9375 c 0.1640625,0 0.62109379,0 1.00781249,-0.1875 v 3.55078125 c 0,0.234375 0,0.328125 -0.6914062,0.328125 H 0.80969531 V 0 C 0.93860156,-0.01171875 1.7940703,-0.0234375 2.0518828,-0.0234375 2.2628203,-0.0234375 3.1417266,-0.01171875 3.2940703,0 V -0.24609375 H 3.0362578 c -0.703125,0 -0.703125,-0.09375 -0.703125,-0.328125 z m 0,0"
       style="fill:#000000;fill-opacity:1;fill-rule:nonzero;stroke:none"
       aria-label="1"
       transform="matrix(1.3333333,0,0,1.3333333,165.104,37)" />
    <path
       id="path17"
       d="M 0,0 H 3.971"
       style="fill:none;stroke:#000000;stroke-width:0.398;stroke-linecap:butt;stroke-linejoin:round;stroke-miterlimit:10;stroke-dasharray:none;stroke-opacity:1"
       transform="matrix(1.3333333,0,0,-1.3333333,165.104,38.909333)" />
    <path
       id="path18"
       d="M 3.6925078,-1.1470625 V -1.3931562 H 2.9190703 V -4.498625 c 0,-0.1523437 0,-0.1992187 -0.1523437,-0.1992187 -0.09375,0 -0.1171875,0 -0.1875,0.09375 l -2.30859379,3.2109375 v 0.2460937 H 2.3214141 v 0.57421875 c 0,0.234375 0,0.328125 -0.5625,0.328125 h -0.1875 V 0.001375 c 0.3515625,-0.01171875 0.796875,-0.0234375 1.0429687,-0.0234375 0.2578125,0 0.703125,0.01171875 1.0546875,0.0234375 v -0.24609375 h -0.1875 c -0.5625,0 -0.5625,-0.09375 -0.5625,-0.328125 V -1.1470625 Z M 2.3682891,-3.9478437 v 2.5546875 H 0.52844531 Z m 0,0"
       style="fill:#000000;fill-opacity:1;fill-rule:nonzero;stroke:none"
       aria-label="4"
       transform="matrix(1.3333333,0,0,1.3333333,165.104,46.810667)" />
    <path
       id="path19"
       d="m 2.3322656,-4.4288203 c 0,-0.1875 -0.011719,-0.1992188 -0.2109375,-0.1992188 -0.4453125,0.4335938 -1.078125,0.4453125 -1.35937498,0.4453125 v 0.2460938 c 0.1640625,0 0.62109378,0 1.00781248,-0.1875 v 3.55078124 c 0,0.234375 0,0.328125 -0.6914062,0.328125 H 0.80882812 V 8.671875e-4 C 0.93773437,-0.01085156 1.7932031,-0.02257031 2.0510156,-0.02257031 c 0.2109375,0 1.0898438,0.01171875 1.2421875,0.0234374975 V -0.24522656 H 3.0353906 c -0.703125,0 -0.703125,-0.09375 -0.703125,-0.328125 z m 0,0"
       style="fill:#000000;fill-opacity:1;fill-rule:nonzero;stroke:none"
       aria-label="1"
       transform="matrix(1.3333333,0,0,1.3333333,32.82,169.284)" />
    <path
       id="path20"
       d="M 0,0 H 3.971"
       style="fill:none;stroke:#000000;stroke-width:0.398;stroke-linecap:butt;stroke-linejoin:round;stroke-miterlimit:10;stroke-dasharray:none;stroke-opacity:1"
       transform="matrix(1.3333333,0,0,-1.3333333,32.82,171.19333)" />
    <path
       id="path21"
       d="M 3.6916406,-1.149125 V -1.3952187 H 2.9182031 v -3.1054688 c 0,-0.1523437 0,-0.1992187 -0.1523437,-0.1992187 -0.09375,0 -0.1171875,0 -0.1875,0.09375 L 0.26976562,-1.3952187 V -1.149125 H 2.3205469 v 0.57421875 c 0,0.234375 0,0.328125 -0.5625,0.328125 h -0.1875 V -6.875e-4 c 0.3515625,-0.01171875 0.796875,-0.0234375 1.0429687,-0.0234375 0.2578125,0 0.703125,0.01171875 1.0546875,0.0234375 v -0.24609375 h -0.1875 c -0.5625,0 -0.5625,-0.09375 -0.5625,-0.328125 V -1.149125 Z M 2.3674219,-3.9499062 v 2.5546875 H 0.52757812 Z m 0,0"
       style="fill:#000000;fill-opacity:1;fill-rule:nonzero;stroke:none"
       aria-label="4"
       transform="matrix(1.3333333,0,0,1.3333333,32.82,179.09467)" />
    <path
       id="path22"
       d="m 2.3331328,-4.4288203 c 0,-0.1875 -0.011719,-0.1992188 -0.2109375,-0.1992188 -0.4453125,0.4335938 -1.078125,0.4453125 -1.35937499,0.4453125 v 0.2460938 c 0.1640625,0 0.62109379,0 1.00781249,-0.1875 v 3.55078124 c 0,0.234375 0,0.328125 -0.6914062,0.328125 H 0.80969531 V 8.671875e-4 C 0.93860156,-0.01085156 1.7940703,-0.02257031 2.0518828,-0.02257031 c 0.2109375,0 1.0898438,0.01171875 1.2421875,0.0234374975 V -0.24522656 H 3.0362578 c -0.703125,0 -0.703125,-0.09375 -0.703125,-0.328125 z m 0,0"
       style="fill:#000000;fill-opacity:1;fill-rule:nonzero;stroke:none"
       aria-label="1"
       transform="matrix(1.3333333,0,0,1.3333333,165.104,169.284)" />
    <path
       id="path23"
       d="M 0,0 H 3.971"
       style="fill:none;stroke:#000000;stroke-width:0.398;stroke-linecap:butt;stroke-linejoin:round;stroke-miterlimit:10;stroke-dasharray:none;stroke-opacity:1"
       transform="matrix(1.3333333,0,0,-1.3333333,165.104,171.19333)" />
    <path
       id="path24"
       d="M 3.6925078,-1.149125 V -1.3952187 H 2.9190703 v -3.1054688 c 0,-0.1523437 0,-0.1992187 -0.1523437,-0.1992187 -0.09375,0 -0.1171875,0 -0.1875,0.09375 L 0.27063281,-1.3952187 V -1.149125 H 2.3214141 v 0.57421875 c 0,0.234375 0,0.328125 -0.5625,0.328125 h -0.1875 V -6.875e-4 c 0.3515625,-0.01171875 0.796875,-0.0234375 1.0429687,-0.0234375 0.2578125,0 0.703125,0.01171875 1.0546875,0.0234375 v -0.24609375 h -0.1875 c -0.5625,0 -0.5625,-0.09375 -0.5625,-0.328125 V -1.149125 Z M 2.3682891,-3.9499062 v 2.5546875 H 0.52844531 Z m 0,0"
       style="fill:#000000;fill-opacity:1;fill-rule:nonzero;stroke:none"
       aria-label="4"
       transform="matrix(1.3333333,0,0,1.3333333,165.104,179.09467)" />
  </g>
</svg>
