<?xml version="1.0" encoding="UTF-8" standalone="no"?>
<!-- Created with Inkscape (http://www.inkscape.org/) -->

<svg
   version="1.1"
   id="svg1"
   width="459.91867"
   height="100.15067"
   viewBox="0 0 459.91867 100.15067"
   sodipodi:docname="fig-salop-line-comp-region.pdf"
   xmlns:inkscape="http://www.inkscape.org/namespaces/inkscape"
   xmlns:sodipodi="http://sodipodi.sourceforge.net/DTD/sodipodi-0.dtd"
   xmlns="http://www.w3.org/2000/svg"
   xmlns:svg="http://www.w3.org/2000/svg">
  <defs
     id="defs1" />
  <sodipodi:namedview
     id="namedview1"
     pagecolor="#ffffff"
     bordercolor="#000000"
     borderopacity="0.25"
     inkscape:showpageshadow="2"
     inkscape:pageopacity="0.0"
     inkscape:pagecheckerboard="0"
     inkscape:deskcolor="#d1d1d1">
    <inkscape:page
       x="0"
       y="0"
       inkscape:label="1"
       id="page1"
       width="459.91867"
       height="100.15067"
       margin="0"
       bleed="0" />
  </sodipodi:namedview>
  <g
     id="g1"
     inkscape:groupmode="layer"
     inkscape:label="1">
    <path
       id="path1"
       d="M -167.49059,0 H 167.49059"
       style="fill:none;stroke:#000000;stroke-width:0.79701;stroke-linecap:round;stroke-linejoin:miter;stroke-miterlimit:10;stroke-dasharray:none;stroke-opacity:1"
       transform="matrix(1.3333333,0,0,-1.3333333,229.96,78.248)" />
    <path
       id="path2"
       d="M 2.59026,0 -1.55415,2.0722 0,0 -1.55415,-2.0722"
       style="fill:#000000;fill-opacity:1;fill-rule:nonzero;stroke:none"
       transform="matrix(-1.3333333,0,0,1.3333333,6.6392133,78.248)" />
    <path
       id="path3"
       d="M 2.59026,0 -1.55415,2.0722 0,0 -1.55415,-2.0722"
       style="fill:#000000;fill-opacity:1;fill-rule:nonzero;stroke:none"
       transform="matrix(1.3333333,0,0,-1.3333333,453.28079,78.248)" />
    <path
       id="path4"
       d="m -139.74149,0 c 0,1.10046 -0.89209,1.99255 -1.99255,1.99255 -1.10048,0 -1.99256,-0.89209 -1.99256,-1.99255 0,-1.10046 0.89208,-1.99255 1.99256,-1.99255 1.10046,0 1.99255,0.89209 1.99255,1.99255 z"
       style="fill:#000000;fill-opacity:1;fill-rule:nonzero;stroke:none"
       transform="matrix(1.3333333,0,0,-1.3333333,229.96,78.248)" />
    <path
       id="path5"
       d="m -54.70107,0 c 0,1.10046 -0.89207,1.99255 -1.99255,1.99255 -1.10046,0 -1.99255,-0.89209 -1.99255,-1.99255 0,-1.10046 0.89209,-1.99255 1.99255,-1.99255 1.10048,0 1.99255,0.89209 1.99255,1.99255 z"
       style="fill:#000000;fill-opacity:1;fill-rule:nonzero;stroke:none"
       transform="matrix(1.3333333,0,0,-1.3333333,229.96,78.248)" />
    <path
       id="path6"
       d="M 1.99255,0 C 1.99255,1.10046 1.10046,1.99255 0,1.99255 -1.10046,1.99255 -1.99255,1.10046 -1.99255,0 c 0,-1.10046 0.89209,-1.99255 1.99255,-1.99255 1.10046,0 1.99255,0.89209 1.99255,1.99255 z"
       style="fill:#000000;fill-opacity:1;fill-rule:nonzero;stroke:none"
       transform="matrix(1.3333333,0,0,-1.3333333,229.96,78.248)" />
    <path
       id="path7"
       d="m 58.68617,0 c 0,1.10046 -0.89209,1.99255 -1.99255,1.99255 -1.10048,0 -1.99255,-0.89209 -1.99255,-1.99255 0,-1.10046 0.89207,-1.99255 1.99255,-1.99255 1.10046,0 1.99255,0.89209 1.99255,1.99255 z"
       style="fill:#000000;fill-opacity:1;fill-rule:nonzero;stroke:none"
       transform="matrix(1.3333333,0,0,-1.3333333,229.96,78.248)" />
    <path
       id="path8"
       d="m 143.7266,0 c 0,1.10046 -0.89208,1.99255 -1.99256,1.99255 -1.10046,0 -1.99255,-0.89209 -1.99255,-1.99255 0,-1.10046 0.89209,-1.99255 1.99255,-1.99255 1.10048,0 1.99256,0.89209 1.99256,1.99255 z"
       style="fill:#000000;fill-opacity:1;fill-rule:nonzero;stroke:none"
       transform="matrix(1.3333333,0,0,-1.3333333,229.96,78.248)" />
    <g
       id="g8"
       aria-label="¯p"
       transform="matrix(1.3333333,0,0,1.3333333,38.769333,90.484)">
      <path
         id="path9"
         d="M 4.2892109,-5.566125 V -5.8825312 H 0.69155469 v 0.3164062 z m 0,0"
         style="fill:#000000;fill-opacity:1;fill-rule:nonzero;stroke:none" />
      <path
         id="path10"
         d="m -0.40121875,1.2190313 c -0.0820313,0.3398437 -0.09375,0.4101562 -0.5390625,0.4101562 -0.11718755,0 -0.22265625,0 -0.22265625,0.1875 0,0.082031 0.046875,0.1171875 0.1289062,0.1171875 0.2695313,0 0.5507813,-0.035156 0.8320313,-0.035156 0.328125,0 0.66796875,0.035156 0.984375,0.035156 0.0585938,0 0.1875,0 0.1875,-0.1992187 0,-0.1054688 -0.10546875,-0.1054688 -0.24609375,-0.1054688 -0.4921875,0 -0.4921875,-0.070312 -0.4921875,-0.1640625 0,-0.1171875 0.421875,-1.74609375 0.48046875,-1.9921875 0.140625,0.29296875 0.4101562,0.6328125 0.9257812,0.6328125 1.1484375,0 2.4023438,-1.453125 2.4023438,-2.9179687 0,-0.9375 -0.5742188,-1.59375 -1.3359375,-1.59375 -0.4921875,0 -0.9726563,0.3632812 -1.3007813,0.75 -0.09375,-0.5390625 -0.5273437,-0.75 -0.89062495,-0.75 -0.45703125,0 -0.65625,0.3867187 -0.73828125,0.5742187 -0.1875,0.3398438 -0.31640625,0.9375 -0.31640625,0.9609375 0,0.1054688 0.10546875,0.1054688 0.12890625,0.1054688 0.09375,0 0.10546875,-0.011719 0.1640625,-0.234375 0.1640625,-0.703125 0.36328125,-1.1835938 0.7265625,-1.1835938 0.17578125,0 0.3046875,0.082031 0.3046875,0.4570313 0,0.234375 -0.0234375,0.3398437 -0.0703125,0.5039062 z M 1.3565937,-3.1051875 c 0.070312,-0.2695312 0.3398438,-0.5507812 0.515625,-0.703125 0.3515625,-0.3046875 0.6328125,-0.375 0.8085938,-0.375 0.3984375,0 0.6328125,0.3515625 0.6328125,0.9375 0,0.5859375 -0.328125,1.734375 -0.5039063,2.109375 -0.3398437,0.703125 -0.8203125,1.03125 -1.1835937,1.03125 -0.65625,0 -0.78515625,-0.83203125 -0.78515625,-0.890625 0,-0.0234375 0,-0.0351562 0.0234375,-0.1640625 z m 0,0"
         style="fill:#000000;fill-opacity:1;fill-rule:nonzero;stroke:none" />
    </g>
    <path
       id="path11"
       d="m 0.44520313,1.2178672 c -0.0820313,0.3398437 -0.09375,0.4101562 -0.5390625,0.4101562 -0.1171875,0 -0.22265625,0 -0.22265625,0.1875 0,0.082031 0.046875,0.1171875 0.12890625,0.1171875 0.26953125,0 0.55078125,-0.035156 0.83203125,-0.035156 0.328125,0 0.66796872,0.035156 0.98437502,0.035156 0.058594,0 0.1875,0 0.1875,-0.1992187 0,-0.1054688 -0.1054688,-0.1054688 -0.2460938,-0.1054688 -0.4921875,0 -0.4921875,-0.070312 -0.4921875,-0.1640625 0,-0.1171875 0.421875,-1.74609371 0.4804688,-1.99218746 0.140625,0.29296875 0.4101562,0.6328125 0.9257812,0.6328125 1.1484375,0 2.4023438,-1.45312504 2.4023438,-2.91796874 0,-0.9375 -0.5742188,-1.59375 -1.3359375,-1.59375 -0.4921875,0 -0.9726563,0.3632812 -1.3007813,0.75 -0.09375,-0.5390625 -0.5273437,-0.75 -0.890625,-0.75 -0.45703122,0 -0.65624997,0.3867187 -0.73828122,0.5742187 -0.1875,0.3398438 -0.31640625,0.9375 -0.31640625,0.9609375 0,0.1054688 0.10546875,0.1054688 0.12890625,0.1054688 0.09375,0 0.10546875,-0.011719 0.1640625,-0.234375 0.1640625,-0.703125 0.36328125,-1.1835938 0.72656252,-1.1835938 0.1757812,0 0.3046875,0.082031 0.3046875,0.4570313 0,0.234375 -0.023437,0.3398437 -0.070312,0.5039062 z M 2.2030156,-3.1063516 c 0.070312,-0.2695312 0.3398438,-0.5507812 0.515625,-0.703125 0.3515625,-0.3046875 0.6328125,-0.375 0.8085938,-0.375 0.3984375,0 0.6328125,0.3515625 0.6328125,0.9375 0,0.5859375 -0.328125,1.734375 -0.5039063,2.109375 -0.3398437,0.70312504 -0.8203125,1.03125004 -1.1835937,1.03125004 -0.65625,0 -0.7851563,-0.83203125 -0.7851563,-0.890625 0,-0.0234375 0,-0.0351562 0.023437,-0.16406254 z m 0,0"
       style="fill:#000000;fill-opacity:1;fill-rule:nonzero;stroke:none"
       aria-label="p"
       transform="matrix(1.3333333,0,0,1.3333333,226.61733,88.661333)" />
    <g
       id="g11"
       aria-label="¯p"
       transform="matrix(1.3333333,0,0,1.3333333,416.72133,90.484)">
      <path
         id="path12"
         d="M 4.2900547,-5.566125 V -5.8825312 H 0.69239844 v 0.3164062 z m 0,0"
         style="fill:#000000;fill-opacity:1;fill-rule:nonzero;stroke:none" />
      <path
         id="path13"
         d="m -0.400375,1.2190313 c -0.0820313,0.3398437 -0.09375,0.4101562 -0.5390625,0.4101562 -0.1171875,0 -0.2226562,0 -0.2226562,0.1875 0,0.082031 0.046875,0.1171875 0.1289062,0.1171875 0.26953125,0 0.55078125,-0.035156 0.83203125,-0.035156 0.328125,0 0.66796875,0.035156 0.984375,0.035156 0.0585938,0 0.1875,0 0.1875,-0.1992187 0,-0.1054688 -0.10546875,-0.1054688 -0.24609375,-0.1054688 -0.4921875,0 -0.4921875,-0.070312 -0.4921875,-0.1640625 0,-0.1171875 0.421875,-1.74609375 0.48046875,-1.9921875 0.140625,0.29296875 0.41015625,0.6328125 0.92578125,0.6328125 1.1484375,0 2.4023438,-1.453125 2.4023438,-2.9179687 0,-0.9375 -0.5742188,-1.59375 -1.3359375,-1.59375 -0.4921875,0 -0.9726563,0.3632812 -1.3007813,0.75 -0.09375,-0.5390625 -0.52734375,-0.75 -0.890625,-0.75 -0.45703125,0 -0.65625,0.3867187 -0.73828125,0.5742187 -0.1875,0.3398438 -0.31640625,0.9375 -0.31640625,0.9609375 0,0.1054688 0.10546875,0.1054688 0.12890625,0.1054688 0.09375,0 0.10546875,-0.011719 0.1640625,-0.234375 0.1640625,-0.703125 0.36328125,-1.1835938 0.7265625,-1.1835938 0.17578125,0 0.3046875,0.082031 0.3046875,0.4570313 0,0.234375 -0.0234375,0.3398437 -0.0703125,0.5039062 z m 1.7578125,-4.3242188 c 0.070312,-0.2695312 0.3398438,-0.5507812 0.515625,-0.703125 0.3515625,-0.3046875 0.6328125,-0.375 0.8085938,-0.375 0.3984375,0 0.6328125,0.3515625 0.6328125,0.9375 0,0.5859375 -0.328125,1.734375 -0.5039063,2.109375 -0.3398437,0.703125 -0.8203125,1.03125 -1.1835937,1.03125 -0.65625005,0 -0.7851563,-0.83203125 -0.7851563,-0.890625 0,-0.0234375 0,-0.0351562 0.0234375,-0.1640625 z m 0,0"
         style="fill:#000000;fill-opacity:1;fill-rule:nonzero;stroke:none" />
    </g>
    <path
       id="path14"
       d="m -141.73404,18.42523 c 0.59774,1.19554 1.99255,1.99256 3.98511,1.99256 h 34.54999 c 1.99255,0 3.38737,0.79701 3.9851,1.99255 0.59775,-1.19554 1.99256,-1.99255 3.98511,-1.99255 h 34.55 c 1.99256,0 3.38738,-0.79702 3.98511,-1.99256"
       style="fill:none;stroke:#000000;stroke-width:0.3985;stroke-linecap:round;stroke-linejoin:miter;stroke-miterlimit:10;stroke-dasharray:none;stroke-opacity:1"
       transform="matrix(1.3333333,0,0,-1.3333333,229.96,78.248)" />
    <path
       id="path15"
       d="m 2.3309922,-4.4304766 c 0,-0.1875 -0.011719,-0.1992187 -0.2109375,-0.1992187 -0.4453125,0.4335937 -1.078125,0.4453125 -1.35937501,0.4453125 v 0.2460937 c 0.1640625,0 0.62109371,0 1.00781251,-0.1875 v 3.55078129 c 0,0.234375 0,0.328125 -0.6914063,0.328125 H 0.80755469 V -7.890625e-4 C 0.93646094,-0.01250781 1.7919297,-0.02422656 2.0497422,-0.02422656 c 0.2109375,0 1.0898437,0.01171875 1.2421875,0.0234374975 V -0.24688281 H 3.0341172 c -0.703125,0 -0.703125,-0.09375 -0.703125,-0.328125 z m 0,0"
       style="fill:#000000;fill-opacity:1;fill-rule:nonzero;stroke:none"
       aria-label="1"
       transform="matrix(1.3333333,0,0,1.3333333,83.114667,38.489333)" />
    <path
       id="path16"
       d="M 0,0 H 4.925"
       style="fill:none;stroke:#000000;stroke-width:0.398;stroke-linecap:butt;stroke-linejoin:miter;stroke-miterlimit:10;stroke-dasharray:none;stroke-opacity:1"
       transform="matrix(1.3333333,0,0,-1.3333333,82.48,40.398667)" />
    <g
       id="g16"
       aria-label="n&#10;−x"
       transform="matrix(1.3333333,0,0,1.3333333,82.48,48.3)">
      <path
         id="path17"
         d="m 0.85582031,-0.43300781 c -0.0351563,0.0820313 -0.0703125,0.2578125 -0.0703125,0.28125 0,0.1523437475 0.1171875,0.22265625 0.23437499,0.22265625 0.1289063,0 0.234375,-0.09375 0.2695313,-0.15234375 0.035156,-0.05859375 0.09375,-0.29296875 0.1289062,-0.43359375 0.035156,-0.12890625 0.1054688,-0.45703125 0.1523438,-0.63281254 0.035156,-0.1523437 0.082031,-0.3046875 0.1171875,-0.4570312 0.082031,-0.2929688 0.09375,-0.3515625 0.2929687,-0.6328125 0.1992188,-0.28125 0.5273438,-0.6445313 1.0429688,-0.6445313 0.4101562,0 0.4101562,0.3632813 0.4101562,0.4921875 0,0.421875 -0.2929687,1.1953125 -0.4101562,1.48828129 -0.070312,0.1875 -0.1054688,0.2578125 -0.1054688,0.375 0,0.36328125 0.3046875,0.59765625 0.6679688,0.59765625 0.6914062,0 1.0078125,-0.9609375 1.0078125,-1.06640625 0,-0.09375 -0.09375,-0.09375 -0.1171875,-0.09375 -0.09375,0 -0.1054688,0.046875 -0.1289063,0.11718748 -0.1640625,0.5625 -0.46875,0.84375 -0.7382812,0.84375 -0.1523438,0 -0.1757813,-0.09375 -0.1757813,-0.24609375 0,-0.15234375 0.035156,-0.24609375 0.1523438,-0.5625 0.09375,-0.21093753 0.375,-0.94921873 0.375,-1.34765623 0,-0.6679688 -0.5390625,-0.7851563 -0.9023438,-0.7851563 -0.5859375,0 -0.9726562,0.3515625 -1.1835937,0.6328125 -0.046875,-0.4804687 -0.4570313,-0.6328125 -0.75,-0.6328125 -0.29296879,0 -0.45703129,0.2109375 -0.55078129,0.375 -0.15234375,0.2578125 -0.24609375,0.65625 -0.24609375,0.6914063 0,0.082031 0.09375,0.082031 0.1171875,0.082031 0.09375,0 0.10546875,-0.011719 0.15234375,-0.1992187 0.10546875,-0.421875 0.234375,-0.7617188 0.51562499,-0.7617188 0.1757813,0 0.2226563,0.1523438 0.2226563,0.3398438 0,0.140625 -0.058594,0.3984375 -0.1054688,0.5859375 -0.046875,0.1875 -0.1171875,0.46875 -0.1523437,0.6210937 z m 0,0"
         style="fill:#000000;fill-opacity:1;fill-rule:nonzero;stroke:none" />
      <path
         id="path18"
         d="m 14.897813,-5.7328125 c 0.175781,0 0.351562,0 0.351562,-0.1992188 0,-0.1992187 -0.175781,-0.1992187 -0.351562,-0.1992187 H 9.5071875 c -0.1640625,0 -0.3398437,0 -0.3398437,0.1992187 0,0.1992188 0.1757812,0.1992188 0.3398437,0.1992188 z m 0,0"
         style="fill:#000000;fill-opacity:1;fill-rule:nonzero;stroke:none" />
      <path
         id="path19"
         d="m 21.621445,-6.4476563 c 0.05859,-0.2578125 0.292969,-1.171875 0.984375,-1.171875 0.04687,0 0.292969,0 0.503907,0.1289063 -0.28125,0.046875 -0.480469,0.3046875 -0.480469,0.5390625 0,0.1640625 0.105469,0.3515625 0.375,0.3515625 0.222656,0 0.539062,-0.1875 0.539062,-0.5859375 0,-0.515625 -0.585937,-0.65625 -0.925781,-0.65625 -0.574219,0 -0.925781,0.5273437 -1.042969,0.7617187 -0.257812,-0.65625 -0.785156,-0.7617187 -1.078125,-0.7617187 -1.042968,0 -1.605468,1.2890625 -1.605468,1.5351562 0,0.1054688 0.105468,0.1054688 0.117187,0.1054688 0.08203,0 0.117188,-0.023437 0.128906,-0.1171875 0.339844,-1.0546875 0.996094,-1.3007813 1.335938,-1.3007813 0.1875,0 0.539062,0.09375 0.539062,0.6679688 0,0.3046875 -0.164062,0.9726562 -0.539062,2.3671875 -0.152344,0.6210937 -0.503906,1.0429687 -0.949219,1.0429687 -0.05859,0 -0.28125,0 -0.492187,-0.1289062 0.246093,-0.058594 0.46875,-0.2695313 0.46875,-0.5390625 0,-0.2695313 -0.222657,-0.3515625 -0.375,-0.3515625 -0.292969,0 -0.539063,0.2578125 -0.539063,0.5742187 0,0.4570313 0.492188,0.65625 0.9375,0.65625 0.65625,0 1.007813,-0.6914062 1.042969,-0.75 0.117187,0.3632813 0.480469,0.75 1.078125,0.75 1.019531,0 1.59375,-1.2773437 1.59375,-1.5351562 0,-0.09375 -0.09375,-0.09375 -0.128906,-0.09375 -0.08203,0 -0.105469,0.035156 -0.128907,0.1054687 -0.328125,1.0664063 -0.996093,1.3125 -1.324218,1.3125 -0.386719,0 -0.539063,-0.328125 -0.539063,-0.65625 0,-0.2226562 0.05859,-0.4453125 0.164063,-0.8789062 z m 0,0"
         style="fill:#000000;fill-opacity:1;fill-rule:nonzero;stroke:none" />
    </g>
    <path
       id="path20"
       d="m -56.69362,18.42523 c 0.59775,1.19554 1.99255,1.99256 3.98511,1.99256 h 20.3766 c 1.99255,0 3.38736,0.79701 3.98511,1.99255 0.59775,-1.19554 1.99255,-1.99255 3.9851,-1.99255 h 20.3766 c 1.99255,0 3.38737,-0.79702 3.9851,-1.99256"
       style="fill:none;stroke:#000000;stroke-width:0.3985;stroke-linecap:round;stroke-linejoin:miter;stroke-miterlimit:10;stroke-dasharray:none;stroke-opacity:1"
       transform="matrix(1.3333333,0,0,-1.3333333,229.96,78.248)" />
    <path
       id="path21"
       d="m 3.3275156,-3.0123594 c 0.058594,-0.2578125 0.2929688,-1.171875 0.984375,-1.171875 0.046875,0 0.2929688,0 0.5039063,0.1289063 -0.28125,0.046875 -0.4804688,0.3046875 -0.4804688,0.5390625 0,0.1640625 0.1054688,0.3515625 0.375,0.3515625 0.2226563,0 0.5390625,-0.1875 0.5390625,-0.5859375 0,-0.515625 -0.5859375,-0.65625 -0.9257812,-0.65625 -0.5742188,0 -0.9257813,0.5273437 -1.0429688,0.7617187 -0.2578125,-0.65625 -0.7851562,-0.7617187 -1.078125,-0.7617187 -1.0429687,0 -1.60546873,1.2890625 -1.60546873,1.5351562 0,0.1054688 0.10546875,0.1054688 0.1171875,0.1054688 0.0820313,0 0.1171875,-0.023437 0.12890625,-0.1171875 0.33984378,-1.0546875 0.99609378,-1.3007813 1.33593748,-1.3007813 0.1875,0 0.5390625,0.09375 0.5390625,0.6679688 0,0.3046875 -0.1640625,0.9726562 -0.5390625,2.3671875 -0.1523437,0.62109372 -0.5039062,1.04296872 -0.9492187,1.04296872 -0.058594,0 -0.28125003,0 -0.49218753,-0.12890625 0.24609375,-0.0585937 0.46875003,-0.26953125 0.46875003,-0.5390625 0,-0.26953127 -0.22265628,-0.35156247 -0.37500003,-0.35156247 -0.29296875,0 -0.5390625,0.25781247 -0.5390625,0.57421872 0,0.45703125 0.4921875,0.65625 0.93750003,0.65625 0.65625,0 1.0078125,-0.69140625 1.0429687,-0.75 0.1171875,0.36328125 0.4804688,0.75 1.078125,0.75 1.0195313,0 1.59375,-1.27734372 1.59375,-1.53515622 0,-0.09375 -0.09375,-0.09375 -0.1289062,-0.09375 -0.082031,0 -0.1054688,0.035156 -0.1289063,0.1054687 -0.328125,1.06640627 -0.9960937,1.31250002 -1.3242187,1.31250002 -0.3867188,0 -0.5390625,-0.328125 -0.5390625,-0.65625 0,-0.22265625 0.058594,-0.44531252 0.1640625,-0.87890622 z m 0,0"
       style="fill:#000000;fill-opacity:1;fill-rule:nonzero;stroke:none"
       aria-label="x"
       transform="matrix(1.3333333,0,0,1.3333333,188.368,43.258667)" />
    <path
       id="path22"
       d="m 0,18.42523 c 0.59773,1.19554 1.99255,1.99256 3.9851,1.99256 h 20.3766 c 1.99255,0 3.38735,0.79701 3.9851,1.99255 0.59775,-1.19554 1.99256,-1.99255 3.98511,-1.99255 h 20.3766 c 1.99256,0 3.38736,-0.79702 3.98511,-1.99256"
       style="fill:none;stroke:#000000;stroke-width:0.3985;stroke-linecap:round;stroke-linejoin:miter;stroke-miterlimit:10;stroke-dasharray:none;stroke-opacity:1"
       transform="matrix(1.3333333,0,0,-1.3333333,229.96,78.248)" />
    <path
       id="path23"
       d="m 3.3268984,-3.0123594 c 0.058594,-0.2578125 0.2929688,-1.171875 0.984375,-1.171875 0.046875,0 0.2929688,0 0.5039063,0.1289063 -0.28125,0.046875 -0.4804688,0.3046875 -0.4804688,0.5390625 0,0.1640625 0.1054688,0.3515625 0.375,0.3515625 0.2226563,0 0.5390625,-0.1875 0.5390625,-0.5859375 0,-0.515625 -0.5859375,-0.65625 -0.9257812,-0.65625 -0.5742188,0 -0.9257813,0.5273437 -1.0429688,0.7617187 -0.2578125,-0.65625 -0.7851562,-0.7617187 -1.078125,-0.7617187 -1.0429687,0 -1.60546871,1.2890625 -1.60546871,1.5351562 0,0.1054688 0.10546875,0.1054688 0.1171875,0.1054688 0.0820313,0 0.1171875,-0.023437 0.12890625,-0.1171875 0.33984376,-1.0546875 0.99609376,-1.3007813 1.33593746,-1.3007813 0.1875,0 0.5390625,0.09375 0.5390625,0.6679688 0,0.3046875 -0.1640625,0.9726562 -0.5390625,2.3671875 -0.1523437,0.62109372 -0.5039062,1.04296872 -0.9492187,1.04296872 -0.058594,0 -0.28125001,0 -0.49218751,-0.12890625 0.24609375,-0.0585937 0.46875001,-0.26953125 0.46875001,-0.5390625 0,-0.26953127 -0.22265626,-0.35156247 -0.37500001,-0.35156247 -0.29296875,0 -0.5390625,0.25781247 -0.5390625,0.57421872 0,0.45703125 0.4921875,0.65625 0.93750001,0.65625 0.65625,0 1.0078125,-0.69140625 1.0429687,-0.75 0.1171875,0.36328125 0.4804688,0.75 1.078125,0.75 1.0195313,0 1.59375,-1.27734372 1.59375,-1.53515622 0,-0.09375 -0.09375,-0.09375 -0.1289062,-0.09375 -0.082031,0 -0.1054688,0.035156 -0.1289063,0.1054687 -0.328125,1.06640627 -0.9960937,1.31250002 -1.3242187,1.31250002 -0.3867188,0 -0.5390625,-0.328125 -0.5390625,-0.65625 0,-0.22265625 0.058594,-0.44531252 0.1640625,-0.87890622 z m 0,0"
       style="fill:#000000;fill-opacity:1;fill-rule:nonzero;stroke:none"
       aria-label="x"
       transform="matrix(1.3333333,0,0,1.3333333,263.95867,43.258667)" />
    <path
       id="path24"
       d="m 56.69362,18.42523 c 0.59773,1.19554 1.99255,1.99256 3.98511,1.99256 h 34.54998 c 1.99256,0 3.38736,0.79701 3.98511,1.99255 0.59773,-1.19554 1.99256,-1.99255 3.98511,-1.99255 h 34.55 c 1.99256,0 3.38737,-0.79702 3.98511,-1.99256"
       style="fill:none;stroke:#000000;stroke-width:0.3985;stroke-linecap:round;stroke-linejoin:miter;stroke-miterlimit:10;stroke-dasharray:none;stroke-opacity:1"
       transform="matrix(1.3333333,0,0,-1.3333333,229.96,78.248)" />
    <path
       id="path25"
       d="m 2.3307969,-4.4304766 c 0,-0.1875 -0.011719,-0.1992187 -0.2109375,-0.1992187 -0.4453125,0.4335937 -1.078125,0.4453125 -1.35937502,0.4453125 v 0.2460937 c 0.1640625,0 0.62109372,0 1.00781252,-0.1875 v 3.55078129 c 0,0.234375 0,0.328125 -0.6914063,0.328125 H 0.80735938 V -7.890625e-4 C 0.93626563,-0.01250781 1.7917344,-0.02422656 2.0495469,-0.02422656 c 0.2109375,0 1.0898437,0.01171875 1.2421875,0.0234374975 V -0.24688281 H 3.0339219 c -0.703125,0 -0.703125,-0.09375 -0.703125,-0.328125 z m 0,0"
       style="fill:#000000;fill-opacity:1;fill-rule:nonzero;stroke:none"
       aria-label="1"
       transform="matrix(1.3333333,0,0,1.3333333,347.68133,38.489333)" />
    <path
       id="path26"
       d="M 0,0 H 4.925"
       style="fill:none;stroke:#000000;stroke-width:0.398;stroke-linecap:butt;stroke-linejoin:miter;stroke-miterlimit:10;stroke-dasharray:none;stroke-opacity:1"
       transform="matrix(1.3333333,0,0,-1.3333333,347.04667,40.398667)" />
    <g
       id="g26"
       aria-label="n&#10;−x"
       transform="matrix(1.3333333,0,0,1.3333333,347.04667,48.3)">
      <path
         id="path27"
         d="m 0.855625,-0.43300781 c -0.0351563,0.0820313 -0.0703125,0.2578125 -0.0703125,0.28125 0,0.1523437475 0.1171875,0.22265625 0.234375,0.22265625 0.1289063,0 0.234375,-0.09375 0.2695313,-0.15234375 0.035156,-0.05859375 0.09375,-0.29296875 0.1289062,-0.43359375 0.035156,-0.12890625 0.1054688,-0.45703125 0.1523438,-0.63281254 0.035156,-0.1523437 0.082031,-0.3046875 0.1171875,-0.4570312 0.082031,-0.2929688 0.09375,-0.3515625 0.2929687,-0.6328125 0.1992188,-0.28125 0.5273438,-0.6445313 1.0429688,-0.6445313 0.4101562,0 0.4101562,0.3632813 0.4101562,0.4921875 0,0.421875 -0.2929687,1.1953125 -0.4101562,1.48828129 -0.070312,0.1875 -0.1054688,0.2578125 -0.1054688,0.375 0,0.36328125 0.3046875,0.59765625 0.6679688,0.59765625 0.6914062,0 1.0078125,-0.9609375 1.0078125,-1.06640625 0,-0.09375 -0.09375,-0.09375 -0.1171875,-0.09375 -0.09375,0 -0.1054688,0.046875 -0.1289063,0.11718748 -0.1640625,0.5625 -0.46875,0.84375 -0.7382812,0.84375 -0.1523438,0 -0.1757813,-0.09375 -0.1757813,-0.24609375 0,-0.15234375 0.035156,-0.24609375 0.1523438,-0.5625 0.09375,-0.21093753 0.375,-0.94921873 0.375,-1.34765623 0,-0.6679688 -0.5390625,-0.7851563 -0.9023438,-0.7851563 -0.5859375,0 -0.9726562,0.3515625 -1.1835937,0.6328125 -0.046875,-0.4804687 -0.4570313,-0.6328125 -0.75,-0.6328125 -0.2929688,0 -0.4570313,0.2109375 -0.5507813,0.375 -0.15234375,0.2578125 -0.24609375,0.65625 -0.24609375,0.6914063 0,0.082031 0.09375,0.082031 0.1171875,0.082031 0.09375,0 0.10546875,-0.011719 0.15234375,-0.1992187 0.10546875,-0.421875 0.234375,-0.7617188 0.515625,-0.7617188 0.1757813,0 0.2226563,0.1523438 0.2226563,0.3398438 0,0.140625 -0.058594,0.3984375 -0.1054688,0.5859375 -0.046875,0.1875 -0.1171875,0.46875 -0.1523437,0.6210937 z m 0,0"
         style="fill:#000000;fill-opacity:1;fill-rule:nonzero;stroke:none" />
      <path
         id="path28"
         d="m 14.897617,-5.7328125 c 0.175781,0 0.351563,0 0.351563,-0.1992188 0,-0.1992187 -0.175782,-0.1992187 -0.351563,-0.1992187 H 9.5069922 c -0.1640625,0 -0.3398438,0 -0.3398438,0.1992187 0,0.1992188 0.1757813,0.1992188 0.3398438,0.1992188 z m 0,0"
         style="fill:#000000;fill-opacity:1;fill-rule:nonzero;stroke:none" />
      <path
         id="path29"
         d="m 21.62418,-6.4476563 c 0.05859,-0.2578125 0.292968,-1.171875 0.984375,-1.171875 0.04687,0 0.292968,0 0.503906,0.1289063 -0.28125,0.046875 -0.480469,0.3046875 -0.480469,0.5390625 0,0.1640625 0.105469,0.3515625 0.375,0.3515625 0.222656,0 0.539063,-0.1875 0.539063,-0.5859375 0,-0.515625 -0.585938,-0.65625 -0.925782,-0.65625 -0.574218,0 -0.925781,0.5273437 -1.042968,0.7617187 -0.257813,-0.65625 -0.785157,-0.7617187 -1.078125,-0.7617187 -1.042969,0 -1.605469,1.2890625 -1.605469,1.5351562 0,0.1054688 0.105469,0.1054688 0.117187,0.1054688 0.08203,0 0.117188,-0.023437 0.128907,-0.1171875 0.339843,-1.0546875 0.996093,-1.3007813 1.335937,-1.3007813 0.1875,0 0.539063,0.09375 0.539063,0.6679688 0,0.3046875 -0.164063,0.9726562 -0.539063,2.3671875 -0.152344,0.6210937 -0.503906,1.0429687 -0.949219,1.0429687 -0.05859,0 -0.28125,0 -0.492187,-0.1289062 0.246094,-0.058594 0.46875,-0.2695313 0.46875,-0.5390625 0,-0.2695313 -0.222656,-0.3515625 -0.375,-0.3515625 -0.292969,0 -0.539063,0.2578125 -0.539063,0.5742187 0,0.4570313 0.492188,0.65625 0.9375,0.65625 0.65625,0 1.007813,-0.6914062 1.042969,-0.75 0.117188,0.3632813 0.480469,0.75 1.078125,0.75 1.019531,0 1.59375,-1.2773437 1.59375,-1.5351562 0,-0.09375 -0.09375,-0.09375 -0.128906,-0.09375 -0.08203,0 -0.105469,0.035156 -0.128906,0.1054687 -0.328125,1.0664063 -0.996094,1.3125 -1.324219,1.3125 -0.386719,0 -0.539063,-0.328125 -0.539063,-0.65625 0,-0.2226562 0.05859,-0.4453125 0.164063,-0.8789062 z m 0,0"
         style="fill:#000000;fill-opacity:1;fill-rule:nonzero;stroke:none" />
    </g>
    <path
       id="path30"
       d="M 2.4012969,-6.5854922 C 2.3075469,-6.8081484 2.2841094,-6.8081484 2.0497344,-6.8081484 H 0.36223438 v 0.3164062 h 0.24609375 c 0.76171877,0 0.78515627,0.1054688 0.78515627,0.46875 v 4.9804688 c 0,0.26953121 0,0.73828121 -1.03125002,0.73828121 V 4.453125e-4 C 0.71379688,-0.01127344 1.2059844,-0.03471094 1.5341094,-0.03471094 c 0.328125,0 0.8203125,0.0234375 1.1601562,0.0351562525 V -0.30424219 c -1.0195312,0 -1.0195312,-0.46875 -1.0195312,-0.73828121 v -5.3671875 h 0.011719 l 2.4023438,6.18749996 c 0.046875,0.12890625 0.09375,0.2226562525 0.1992187,0.2226562525 0.1054688,0 0.1289063,-0.0820312525 0.1757813,-0.1875000025 L 6.9130156,-6.4917422 h 0.011719 v 5.71875001 c 0,0.3515625 -0.023437,0.46875 -0.7851563,0.46875 H 5.8934844 V 4.453125e-4 c 0.375,-0.0351562525 1.0429687,-0.0351562525 1.4414062,-0.0351562525 0.3867188,0 1.0546875,0 1.4179688,0.0351562525 V -0.30424219 h -0.234375 c -0.7734375,0 -0.7851563,-0.1171875 -0.7851563,-0.46875 V -6.0229922 c 0,-0.3632812 0.011719,-0.46875 0.7851563,-0.46875 h 0.234375 V -6.8081484 H 7.0770781 c -0.2695312,0 -0.2695312,0.011719 -0.3398437,0.1992187 l -2.1796875,5.6015625 z m 10.0488281,5.82421876 c 0.03516,0.3984375 0.304688,0.8203125 0.773438,0.8203125 0.210937,0 0.820312,-0.140625 0.820312,-0.94921875 V -1.4409609 h -0.246094 v 0.55078121 c 0,0.5859375 -0.246093,0.64453125 -0.363281,0.64453125 -0.328125,0 -0.363281,-0.45703125 -0.363281,-0.50390625 V -2.7417422 c 0,-0.4101562 0,-0.8085937 -0.363281,-1.171875 -0.386719,-0.3867187 -0.878907,-0.5507812 -1.359375,-0.5507812 -0.820313,0 -1.5117192,0.46875 -1.5117192,1.125 0,0.3046875 0.1992192,0.46875 0.4570312,0.46875 0.28125,0 0.46875,-0.1992188 0.46875,-0.4570313 0,-0.1171875 -0.05859,-0.4453125 -0.515625,-0.4570312 0.269531,-0.3515625 0.761719,-0.4570313 1.078125,-0.4570313 0.492188,0 1.054688,0.3867188 1.054688,1.2773438 v 0.3632812 c -0.503907,0.035156 -1.207032,0.058594 -1.828125,0.3632813 -0.7500005,0.3398437 -0.9960942,0.8554687 -0.9960942,1.28906246 0,0.80859375 0.9609372,1.0546875 1.5937502,1.0546875 0.65625,0 1.113281,-0.3984375 1.300781,-0.8671875 z m -0.07031,-1.62890626 v 0.9960938 c 0,0.94921871 -0.714844,1.28906246 -1.160157,1.28906246 -0.492187,0 -0.902343,-0.3515625 -0.902343,-0.85546875 0,-0.53906251 0.421875,-1.37109371 2.0625,-1.42968751 z m 3.398437,-0.9140625 v -1.1015625 l -1.382812,0.1171875 v 0.3046875 c 0.691406,0 0.773437,0.070312 0.773437,0.5625 v 2.66015626 c 0,0.45703125 -0.105469,0.45703125 -0.773437,0.45703125 V 4.453125e-4 C 14.782156,-0.01127344 15.250906,-0.03471094 15.532156,-0.03471094 c 0.398438,0 0.867188,0 1.265625,0.0351562525 V -0.30424219 h -0.210937 c -0.738281,0 -0.761719,-0.1171875 -0.761719,-0.46875 V -2.3081484 c 0,-0.984375 0.421875,-1.875 1.183594,-1.875 0.05859,0 0.08203,0 0.105469,0.011719 -0.03516,0.011719 -0.234375,0.1289063 -0.234375,0.3867188 0,0.28125 0.210937,0.4335937 0.433593,0.4335937 0.175782,0 0.421875,-0.1289062 0.421875,-0.4453125 0,-0.3164062 -0.304687,-0.609375 -0.726562,-0.609375 -0.738281,0 -1.089844,0.6679688 -1.230469,1.1015625 z m 4.453125,1.59375 c -0.867187,0 -0.867187,-0.9960937 -0.867187,-1.2304687 0,-0.2695313 0.01172,-0.5859375 0.152343,-0.8320313 0.08203,-0.1171875 0.316407,-0.3984375 0.714844,-0.3984375 0.867188,0 0.867188,0.9960938 0.867188,1.21875 0,0.2695313 -0.01172,0.5976563 -0.164063,0.84375 -0.08203,0.1171875 -0.304687,0.3984375 -0.703125,0.3984375 z m -1.160156,0.3867188 c 0,-0.035156 0,-0.2695313 0.175781,-0.46875 0.386719,0.28125 0.796875,0.3046875 0.984375,0.3046875 0.925781,0 1.605469,-0.6796875 1.605469,-1.453125 0,-0.3632813 -0.152344,-0.7382813 -0.398438,-0.9609375 0.351563,-0.3398438 0.714844,-0.3867188 0.890625,-0.3867188 0.02344,0 0.07031,0 0.105469,0 -0.117187,0.046875 -0.164062,0.1523438 -0.164062,0.2695313 0,0.1757812 0.128906,0.2929687 0.292968,0.2929687 0.09375,0 0.28125,-0.070312 0.28125,-0.2929687 0,-0.1757813 -0.117187,-0.4921875 -0.503906,-0.4921875 -0.199219,0 -0.632812,0.058594 -1.054687,0.46875 -0.421875,-0.328125 -0.84375,-0.3632813 -1.054688,-0.3632813 -0.925781,0 -1.617187,0.6914063 -1.617187,1.453125 0,0.4453125 0.222656,0.8203125 0.46875,1.03125 -0.128907,0.1523438 -0.304688,0.4804688 -0.304688,0.8203125 0,0.31640626 0.128906,0.69140626 0.433594,0.89062501 -0.597656,0.17578125 -0.914063,0.59765625 -0.914063,0.99609375 0,0.71484374 0.984375,1.26562504 2.203125,1.26562504 1.171875,0 2.203125,-0.5039063 2.203125,-1.28906254 0,-0.33984375 -0.140625,-0.85546875 -0.644531,-1.125 -0.527344,-0.28125 -1.101562,-0.28125 -1.710937,-0.28125 -0.246094,0 -0.679688,0 -0.75,-0.0117188 -0.316407,-0.046875 -0.527344,-0.35156246 -0.527344,-0.66796866 z m 1.441406,3.1523437 c -1.007812,0 -1.699219,-0.515625 -1.699219,-1.04296874 0,-0.45703125 0.375,-0.8203125 0.820313,-0.85546875 h 0.585937 c 0.855469,0 1.96875,0 1.96875,0.85546875 0,0.53906254 -0.703125,1.04296874 -1.675781,1.04296874 z m 4.242188,-6.234375 -1.394532,0.1171875 v 0.3046875 c 0.65625,0 0.738282,0.058594 0.738282,0.5507813 v 2.67187496 c 0,0.45703125 -0.105469,0.45703125 -0.773438,0.45703125 V 4.453125e-4 C 23.641531,-0.01127344 24.180594,-0.03471094 24.426688,-0.03471094 c 0.339843,0 0.691406,0.0234375 1.03125,0.0351562525 V -0.30424219 c -0.65625,0 -0.703125,-0.0585938 -0.703125,-0.4453125 z m 0.04687,-1.734375 c 0,-0.3164062 -0.246094,-0.5273437 -0.527344,-0.5273437 -0.316406,0 -0.527344,0.2695312 -0.527344,0.5273437 0,0.2695313 0.210938,0.5273438 0.527344,0.5273438 0.28125,0 0.527344,-0.1992188 0.527344,-0.5273438 z m 2.065429,2.71875 v 2.66015626 c 0,0.45703125 -0.117187,0.45703125 -0.785156,0.45703125 V 4.453125e-4 c 0.351562,-0.0117187525 0.855469,-0.0351562525 1.125,-0.0351562525 0.257812,0 0.785156,0.0234375 1.113281,0.0351562525 V -0.30424219 c -0.65625,0 -0.773437,0 -0.773437,-0.45703125 V -2.5893984 c 0,-1.03125 0.714843,-1.59375 1.347656,-1.59375 0.621094,0 0.738281,0.5390625 0.738281,1.1015625 v 2.32031246 c 0,0.45703125 -0.117187,0.45703125 -0.773437,0.45703125 V 4.453125e-4 c 0.339843,-0.0117187525 0.855468,-0.0351562525 1.125,-0.0351562525 0.257812,0 0.773437,0.0234375 1.113281,0.0351562525 V -0.30424219 c -0.515625,0 -0.773438,0 -0.785156,-0.3046875 V -2.5073672 c 0,-0.8554687 0,-1.171875 -0.304688,-1.5234375 -0.140625,-0.1757812 -0.46875,-0.375 -1.042969,-0.375 -0.726562,0 -1.195312,0.4335938 -1.476562,1.0546875 v -1.0546875 l -1.40625,0.1171875 v 0.3046875 c 0.703125,0 0.785156,0.070312 0.785156,0.5625 z m 7.749024,2.66015626 c 0.03516,0.3984375 0.304687,0.8203125 0.773437,0.8203125 0.210938,0 0.820313,-0.140625 0.820313,-0.94921875 V -1.4409609 h -0.246094 v 0.55078121 c 0,0.5859375 -0.246094,0.64453125 -0.363281,0.64453125 -0.328125,0 -0.363282,-0.45703125 -0.363282,-0.50390625 V -2.7417422 c 0,-0.4101562 0,-0.8085937 -0.363281,-1.171875 -0.386719,-0.3867187 -0.878906,-0.5507812 -1.359375,-0.5507812 -0.820312,0 -1.511719,0.46875 -1.511719,1.125 0,0.3046875 0.199219,0.46875 0.457032,0.46875 0.28125,0 0.46875,-0.1992188 0.46875,-0.4570313 0,-0.1171875 -0.05859,-0.4453125 -0.515625,-0.4570312 0.269531,-0.3515625 0.761718,-0.4570313 1.078125,-0.4570313 0.492187,0 1.054687,0.3867188 1.054687,1.2773438 v 0.3632812 c -0.503906,0.035156 -1.207031,0.058594 -1.828125,0.3632813 -0.75,0.3398437 -0.996094,0.8554687 -0.996094,1.28906246 0,0.80859375 0.960938,1.0546875 1.59375,1.0546875 0.65625,0 1.113282,-0.3984375 1.300782,-0.8671875 z m -0.07031,-1.62890626 v 0.9960938 c 0,0.94921871 -0.714844,1.28906246 -1.160156,1.28906246 -0.492188,0 -0.902344,-0.3515625 -0.902344,-0.85546875 0,-0.53906251 0.421875,-1.37109371 2.0625,-1.42968751 z m 3.495117,-4.5234375 -1.429687,0.1054688 v 0.3164062 c 0.703125,0 0.773437,0.070312 0.773437,0.5507813 v 5.17968746 c 0,0.45703125 -0.105468,0.45703125 -0.773437,0.45703125 V 4.453125e-4 C 36.939383,-0.01127344 37.466727,-0.03471094 37.71282,-0.03471094 c 0.257813,0 0.738282,0.0234375 1.113282,0.0351562525 V -0.30424219 c -0.667969,0 -0.785157,0 -0.785157,-0.45703125 z M 0.16301563,9.7856016 c 0,-1.6289063 0.8203125,-2.0507813 1.34765627,-2.0507813 0.09375,0 0.7148437,0.011719 1.0664062,0.375 -0.4101562,0.023437 -0.46875,0.328125 -0.46875,0.4570313 0,0.2578125 0.1875,0.4570312 0.4570313,0.4570312 0.2578125,0 0.4570312,-0.1640625 0.4570312,-0.46875 0,-0.6796875 -0.75,-1.0664062 -1.5234375,-1.0664062 -1.24218747,0 -2.15624997,1.078125 -2.15624997,2.3085937 0,1.2773437 0.984375,2.2617187 2.14453127,2.2617187 1.3359375,0 1.6523437,-1.195312 1.6523437,-1.289062 0,-0.105469 -0.1054687,-0.105469 -0.1289062,-0.105469 -0.09375,0 -0.1171875,0.04687 -0.1289063,0.105469 -0.2929687,0.925781 -0.9375,1.042968 -1.3125,1.042968 -0.5273437,0 -1.40624997,-0.421875 -1.40624997,-2.0273434 z m 7.95410157,0.035156 c 0,-1.2773437 -0.9960938,-2.3320312 -2.1914063,-2.3320312 -1.2539062,0 -2.2148437,1.0898437 -2.2148437,2.3320312 0,1.2890624 1.03125,2.2382814 2.203125,2.2382814 1.2070312,0 2.203125,-0.972656 2.203125,-2.2382814 z M 5.9257109,11.812945 c -0.4335937,0 -0.8671875,-0.210937 -1.1367187,-0.667968 -0.2578125,-0.433594 -0.2578125,-1.042969 -0.2578125,-1.4062504 0,-0.3867188 0,-0.9257813 0.2460937,-1.359375 0.2695313,-0.4570313 0.7382813,-0.6679688 1.1367188,-0.6679688 0.4335937,0 0.8671875,0.2226563 1.125,0.6445313 0.2578125,0.4335937 0.2578125,1.0078125 0.2578125,1.3828125 0,0.3632814 0,0.9023434 -0.2226563,1.3359374 -0.2226562,0.445313 -0.65625,0.738281 -1.1484375,0.738281 z M 9.5145781,8.5316953 v 2.6601567 c 0,0.457031 -0.1171875,0.457031 -0.7851562,0.457031 v 0.304687 c 0.3515625,-0.01172 0.8554687,-0.03516 1.125,-0.03516 0.2578121,0 0.7851561,0.02344 1.1132811,0.03516 v -0.304687 c -0.65625,0 -0.773437,0 -0.773437,-0.457031 V 9.3637266 c 0,-1.03125 0.714843,-1.59375 1.347656,-1.59375 0.621094,0 0.738281,0.5390625 0.738281,1.1015625 v 2.3203129 c 0,0.457031 -0.117187,0.457031 -0.773437,0.457031 v 0.304687 c 0.339843,-0.01172 0.855468,-0.03516 1.125,-0.03516 0.257812,0 0.773437,0.02344 1.113281,0.03516 v -0.304687 c -0.515625,0 -0.773438,0 -0.785156,-0.304688 V 9.4457578 c 0,-0.8554687 0,-1.171875 -0.304688,-1.5234375 -0.140625,-0.1757812 -0.46875,-0.375 -1.042969,-0.375 -0.726562,0 -1.195312,0.4335938 -1.476562,1.0546875 V 7.5473203 L 8.7294219,7.6645078 v 0.3046875 c 0.703125,0 0.7851562,0.070313 0.7851562,0.5625 z m 6.5068359,1.4882817 c 0.222656,0.03516 1.03125,0.199218 1.03125,0.914062 0,0.515625 -0.351562,0.914063 -1.125,0.914063 -0.832031,0 -1.195312,-0.574219 -1.382812,-1.417969 -0.03516,-0.128906 -0.03516,-0.175781 -0.140625,-0.175781 -0.128907,0 -0.128907,0.07031 -0.128907,0.257812 v 1.3125 c 0,0.164063 0,0.234375 0.105469,0.234375 0.05859,0 0.07031,0 0.257813,-0.199219 0.01172,-0.01172 0.01172,-0.03516 0.199218,-0.222656 0.433594,0.421875 0.878907,0.421875 1.089844,0.421875 1.148438,0 1.605469,-0.667969 1.605469,-1.382812 0,-0.527344 -0.292969,-0.8203129 -0.421875,-0.9492192 -0.328125,-0.3164062 -0.714844,-0.3984375 -1.136719,-0.46875 -0.550781,-0.1171875 -1.21875,-0.2460937 -1.21875,-0.8203125 0,-0.3515625 0.257813,-0.7617187 1.113281,-0.7617187 1.101563,0 1.148438,0.9023437 1.171875,1.2070312 0,0.09375 0.09375,0.09375 0.117188,0.09375 0.128906,0 0.128906,-0.046875 0.128906,-0.2460937 V 7.7348203 c 0,-0.1757812 0,-0.2460937 -0.117187,-0.2460937 -0.04687,0 -0.07031,0 -0.199219,0.1171875 -0.02344,0.046875 -0.128906,0.1289062 -0.164063,0.1640625 -0.375,-0.28125 -0.785156,-0.28125 -0.9375,-0.28125 -1.21875,0 -1.59375,0.6679687 -1.59375,1.2304687 0,0.3398438 0.164063,0.6210938 0.433594,0.84375 0.316406,0.2578125 0.597656,0.3164063 1.3125,0.4570317 z m 5.745117,1.148437 v 0.890625 l 1.441407,-0.105469 v -0.304687 c -0.703125,0 -0.785157,-0.07031 -0.785157,-0.5625 V 7.5473203 l -1.453125,0.1171875 v 0.3046875 c 0.691407,0 0.773438,0.070313 0.773438,0.5625 v 1.7695317 c 0,0.867187 -0.480469,1.546875 -1.207031,1.546875 -0.832032,0 -0.878907,-0.46875 -0.878907,-0.996094 V 7.5473203 l -1.464843,0.1171875 v 0.3046875 c 0.785156,0 0.785156,0.035156 0.785156,0.9140625 v 1.5000002 c 0,0.773437 0,1.675781 1.511719,1.675781 0.550781,0 0.996093,-0.269531 1.277343,-0.890625 z m 2.745117,-2.6367187 v 2.6601567 c 0,0.457031 -0.117187,0.457031 -0.785156,0.457031 v 0.304687 c 0.351563,-0.01172 0.855469,-0.03516 1.125,-0.03516 0.257813,0 0.785156,0.02344 1.113281,0.03516 v -0.304687 c -0.65625,0 -0.773437,0 -0.773437,-0.457031 V 9.3637266 c 0,-1.03125 0.714844,-1.59375 1.347656,-1.59375 0.621094,0 0.738281,0.5390625 0.738281,1.1015625 v 2.3203129 c 0,0.457031 -0.117187,0.457031 -0.773437,0.457031 v 0.304687 c 0.339844,-0.01172 0.855469,-0.03516 1.125,-0.03516 0.257812,0 0.773437,0.02344 1.113281,0.03516 v -0.304687 c -0.667969,0 -0.785156,0 -0.785156,-0.457031 V 9.3637266 c 0,-1.03125 0.714844,-1.59375 1.347656,-1.59375 0.632813,0 0.738281,0.5390625 0.738281,1.1015625 v 2.3203129 c 0,0.457031 -0.105468,0.457031 -0.773437,0.457031 v 0.304687 c 0.351562,-0.01172 0.855469,-0.03516 1.125,-0.03516 0.257812,0 0.773437,0.02344 1.113281,0.03516 v -0.304687 c -0.515625,0 -0.761719,0 -0.773437,-0.304688 V 9.4457578 c 0,-0.8554687 0,-1.171875 -0.316407,-1.5234375 -0.128906,-0.1757812 -0.46875,-0.375 -1.042968,-0.375 -0.832032,0 -1.277344,0.5976563 -1.441407,0.984375 -0.140625,-0.8671875 -0.878906,-0.984375 -1.324218,-0.984375 -0.726563,0 -1.195313,0.4335938 -1.476563,1.0546875 V 7.5473203 l -1.40625,0.1171875 v 0.3046875 c 0.703125,0 0.785156,0.070313 0.785156,0.5625 z m 8.314454,0.9140625 c 0.05859,-1.4882812 0.902343,-1.734375 1.242187,-1.734375 1.019531,0 1.125,1.3476563 1.125,1.734375 z m -0.01172,0.2109375 h 2.789062 c 0.210938,0 0.246094,0 0.246094,-0.2109375 0,-0.984375 -0.539062,-1.9570312 -1.78125,-1.9570312 -1.160156,0 -2.074219,1.03125 -2.074219,2.2734375 0,1.3359379 1.042969,2.2968749 2.191407,2.2968749 1.21875,0 1.664062,-1.101562 1.664062,-1.289062 0,-0.105469 -0.08203,-0.117188 -0.128906,-0.117188 -0.09375,0 -0.117188,0.05859 -0.128906,0.140625 -0.351563,1.019531 -1.253907,1.019531 -1.347657,1.019531 -0.503906,0 -0.902343,-0.292968 -1.125,-0.667968 -0.304687,-0.480469 -0.304687,-1.136719 -0.304687,-1.4882817 z M 37.803641,8.6488828 V 7.5473203 l -1.382813,0.1171875 v 0.3046875 c 0.691406,0 0.773438,0.070313 0.773438,0.5625 v 2.6601567 c 0,0.457031 -0.105469,0.457031 -0.773438,0.457031 v 0.304687 c 0.386719,-0.01172 0.855469,-0.03516 1.136719,-0.03516 0.398437,0 0.867187,0 1.265625,0.03516 v -0.304687 h -0.210938 c -0.738281,0 -0.761718,-0.117188 -0.761718,-0.46875 V 9.6449766 c 0,-0.984375 0.421875,-1.875 1.183593,-1.875 0.05859,0 0.08203,0 0.105469,0.011719 -0.03516,0.011719 -0.234375,0.1289063 -0.234375,0.3867188 0,0.28125 0.210938,0.4335937 0.433594,0.4335937 0.175781,0 0.421875,-0.1289062 0.421875,-0.4453125 0,-0.3164062 -0.304688,-0.609375 -0.726563,-0.609375 -0.738281,0 -1.089843,0.6679688 -1.230468,1.1015622 z m 0,0"
       style="fill:#000000;fill-opacity:1;fill-rule:nonzero;stroke:none"
       aria-label="Marginal&#10;consumer"
       transform="matrix(1.3333333,0,0,1.3333333,128.33733,16.308)" />
    <path
       id="path31"
       d="M -56.69362,34.01608 V 5.99173"
       style="fill:none;stroke:#000000;stroke-width:0.79701;stroke-linecap:round;stroke-linejoin:miter;stroke-miterlimit:10;stroke-dasharray:none;stroke-opacity:1"
       transform="matrix(1.3333333,0,0,-1.3333333,229.96,78.248)" />
    <path
       id="path32"
       d="M 2.59026,0 -1.55415,2.0722 0,0 -1.55415,-2.0722"
       style="fill:#000000;fill-opacity:1;fill-rule:nonzero;stroke:none"
       transform="matrix(0,1.3333333,1.3333333,0,154.36851,70.259027)" />
    <path
       id="path33"
       d="M 2.4029922,-6.5854922 C 2.3092422,-6.8081484 2.2858047,-6.8081484 2.0514297,-6.8081484 H 0.36392969 v 0.3164062 h 0.24609375 c 0.76171876,0 0.78515626,0.1054688 0.78515626,0.46875 v 4.9804688 c 0,0.26953121 0,0.73828121 -1.03125001,0.73828121 V 4.453125e-4 C 0.71549219,-0.01127344 1.2076797,-0.03471094 1.5358047,-0.03471094 c 0.328125,0 0.8203125,0.0234375 1.1601562,0.0351562525 V -0.30424219 c -1.0195312,0 -1.0195312,-0.46875 -1.0195312,-0.73828121 v -5.3671875 h 0.011719 l 2.4023438,6.18749996 c 0.046875,0.12890625 0.09375,0.2226562525 0.1992187,0.2226562525 0.1054688,0 0.1289063,-0.0820312525 0.1757813,-0.1875000025 L 6.9147109,-6.4917422 h 0.011719 v 5.71875001 c 0,0.3515625 -0.023437,0.46875 -0.7851563,0.46875 H 5.8951797 V 4.453125e-4 c 0.375,-0.0351562525 1.0429687,-0.0351562525 1.4414062,-0.0351562525 0.3867188,0 1.0546875,0 1.4179688,0.0351562525 V -0.30424219 h -0.234375 c -0.7734375,0 -0.7851563,-0.1171875 -0.7851563,-0.46875 V -6.0229922 c 0,-0.3632812 0.011719,-0.46875 0.7851563,-0.46875 h 0.234375 V -6.8081484 H 7.0787734 c -0.2695312,0 -0.2695312,0.011719 -0.3398437,0.1992187 l -2.1796875,5.6015625 z m 10.0458988,5.82421876 c 0.03516,0.3984375 0.304687,0.8203125 0.773437,0.8203125 0.210938,0 0.820313,-0.140625 0.820313,-0.94921875 V -1.4409609 h -0.246094 v 0.55078121 c 0,0.5859375 -0.246094,0.64453125 -0.363281,0.64453125 -0.328125,0 -0.363282,-0.45703125 -0.363282,-0.50390625 V -2.7417422 c 0,-0.4101562 0,-0.8085937 -0.363281,-1.171875 -0.386719,-0.3867187 -0.878906,-0.5507812 -1.359375,-0.5507812 -0.820312,0 -1.5117186,0.46875 -1.5117186,1.125 0,0.3046875 0.1992186,0.46875 0.4570316,0.46875 0.28125,0 0.46875,-0.1992188 0.46875,-0.4570313 0,-0.1171875 -0.05859,-0.4453125 -0.515625,-0.4570312 0.269531,-0.3515625 0.761718,-0.4570313 1.078125,-0.4570313 0.492187,0 1.054687,0.3867188 1.054687,1.2773438 v 0.3632812 c -0.503906,0.035156 -1.207031,0.058594 -1.828125,0.3632813 -0.7499999,0.3398437 -0.9960936,0.8554687 -0.9960936,1.28906246 0,0.80859375 0.9609376,1.0546875 1.5937496,1.0546875 0.65625,0 1.113282,-0.3984375 1.300782,-0.8671875 z m -0.07031,-1.62890626 v 0.9960938 c 0,0.94921871 -0.714844,1.28906246 -1.160156,1.28906246 -0.492188,0 -0.902344,-0.3515625 -0.902344,-0.85546875 0,-0.53906251 0.421875,-1.37109371 2.0625,-1.42968751 z m 3.398438,-0.9140625 v -1.1015625 l -1.382813,0.1171875 v 0.3046875 c 0.691406,0 0.773438,0.070312 0.773438,0.5625 v 2.66015626 c 0,0.45703125 -0.105469,0.45703125 -0.773438,0.45703125 V 4.453125e-4 C 14.780922,-0.01127344 15.249672,-0.03471094 15.530922,-0.03471094 c 0.398437,0 0.867187,0 1.265625,0.0351562525 V -0.30424219 h -0.210938 c -0.738281,0 -0.761718,-0.1171875 -0.761718,-0.46875 V -2.3081484 c 0,-0.984375 0.421875,-1.875 1.183593,-1.875 0.05859,0 0.08203,0 0.105469,0.011719 -0.03516,0.011719 -0.234375,0.1289063 -0.234375,0.3867188 0,0.28125 0.210938,0.4335937 0.433594,0.4335937 0.175781,0 0.421875,-0.1289062 0.421875,-0.4453125 0,-0.3164062 -0.304688,-0.609375 -0.726563,-0.609375 -0.738281,0 -1.089843,0.6679688 -1.230468,1.1015625 z m 4.453125,1.59375 c -0.867188,0 -0.867188,-0.9960937 -0.867188,-1.2304687 0,-0.2695313 0.01172,-0.5859375 0.152344,-0.8320313 0.08203,-0.1171875 0.316406,-0.3984375 0.714844,-0.3984375 0.867187,0 0.867187,0.9960938 0.867187,1.21875 0,0.2695313 -0.01172,0.5976563 -0.164062,0.84375 -0.08203,0.1171875 -0.304688,0.3984375 -0.703125,0.3984375 z m -1.160157,0.3867188 c 0,-0.035156 0,-0.2695313 0.175782,-0.46875 0.386718,0.28125 0.796875,0.3046875 0.984375,0.3046875 0.925781,0 1.605468,-0.6796875 1.605468,-1.453125 0,-0.3632813 -0.152343,-0.7382813 -0.398437,-0.9609375 0.351562,-0.3398438 0.714844,-0.3867188 0.890625,-0.3867188 0.02344,0 0.07031,0 0.105469,0 -0.117188,0.046875 -0.164063,0.1523438 -0.164063,0.2695313 0,0.1757812 0.128906,0.2929687 0.292969,0.2929687 0.09375,0 0.28125,-0.070312 0.28125,-0.2929687 0,-0.1757813 -0.117188,-0.4921875 -0.503906,-0.4921875 -0.199219,0 -0.632813,0.058594 -1.054688,0.46875 -0.421875,-0.328125 -0.84375,-0.3632813 -1.054687,-0.3632813 -0.925782,0 -1.617188,0.6914063 -1.617188,1.453125 0,0.4453125 0.222656,0.8203125 0.46875,1.03125 -0.128906,0.1523438 -0.304687,0.4804688 -0.304687,0.8203125 0,0.31640626 0.128906,0.69140626 0.433593,0.89062501 -0.597656,0.17578125 -0.914062,0.59765625 -0.914062,0.99609375 0,0.71484374 0.984375,1.26562504 2.203125,1.26562504 1.171875,0 2.203125,-0.5039063 2.203125,-1.28906254 0,-0.33984375 -0.140625,-0.85546875 -0.644531,-1.125 -0.527344,-0.28125 -1.101563,-0.28125 -1.710938,-0.28125 -0.246094,0 -0.679687,0 -0.75,-0.0117188 -0.316406,-0.046875 -0.527344,-0.35156246 -0.527344,-0.66796866 z m 1.441407,3.1523437 c -1.007813,0 -1.699219,-0.515625 -1.699219,-1.04296874 0,-0.45703125 0.375,-0.8203125 0.820312,-0.85546875 h 0.585938 c 0.855469,0 1.96875,0 1.96875,0.85546875 0,0.53906254 -0.703125,1.04296874 -1.675781,1.04296874 z m 4.245117,-6.234375 -1.394531,0.1171875 v 0.3046875 c 0.65625,0 0.738281,0.058594 0.738281,0.5507813 v 2.67187496 c 0,0.45703125 -0.105469,0.45703125 -0.773438,0.45703125 V 4.453125e-4 c 0.316404,-0.0117187525 0.855466,-0.0351562525 1.10156,-0.0351562525 0.339844,0 0.691406,0.0234375 1.03125,0.0351562525 V -0.30424219 c -0.65625,0 -0.703125,-0.0585938 -0.703125,-0.4453125 z m 0.04687,-1.734375 c 0,-0.3164062 -0.246094,-0.5273437 -0.527344,-0.5273437 -0.316406,0 -0.527344,0.2695312 -0.527344,0.5273437 0,0.2695313 0.210938,0.5273438 0.527344,0.5273438 0.28125,0 0.527344,-0.1992188 0.527344,-0.5273438 z m 2.0625,2.71875 v 2.66015626 c 0,0.45703125 -0.117188,0.45703125 -0.785156,0.45703125 V 4.453125e-4 c 0.351562,-0.0117187525 0.855468,-0.0351562525 1.125,-0.0351562525 0.257812,0 0.785156,0.0234375 1.113281,0.0351562525 V -0.30424219 c -0.65625,0 -0.773438,0 -0.773438,-0.45703125 V -2.5893984 c 0,-1.03125 0.714844,-1.59375 1.347657,-1.59375 0.621093,0 0.738281,0.5390625 0.738281,1.1015625 v 2.32031246 c 0,0.45703125 -0.117188,0.45703125 -0.773438,0.45703125 V 4.453125e-4 c 0.339844,-0.0117187525 0.855469,-0.0351562525 1.125,-0.0351562525 0.257813,0 0.773438,0.0234375 1.113282,0.0351562525 V -0.30424219 c -0.515625,0 -0.773438,0 -0.785157,-0.3046875 V -2.5073672 c 0,-0.8554687 0,-1.171875 -0.304687,-1.5234375 -0.140625,-0.1757812 -0.46875,-0.375 -1.042969,-0.375 -0.726562,0 -1.195312,0.4335938 -1.476562,1.0546875 v -1.0546875 l -1.40625,0.1171875 v 0.3046875 c 0.703125,0 0.785156,0.070312 0.785156,0.5625 z m 7.751953,2.66015626 c 0.03516,0.3984375 0.304687,0.8203125 0.773437,0.8203125 0.210938,0 0.820313,-0.140625 0.820313,-0.94921875 V -1.4409609 H 35.96549 v 0.55078121 c 0,0.5859375 -0.246094,0.64453125 -0.363281,0.64453125 -0.328125,0 -0.363281,-0.45703125 -0.363281,-0.50390625 V -2.7417422 c 0,-0.4101562 0,-0.8085937 -0.363282,-1.171875 -0.386718,-0.3867187 -0.878906,-0.5507812 -1.359375,-0.5507812 -0.820312,0 -1.511718,0.46875 -1.511718,1.125 0,0.3046875 0.199218,0.46875 0.457031,0.46875 0.28125,0 0.46875,-0.1992188 0.46875,-0.4570313 0,-0.1171875 -0.05859,-0.4453125 -0.515625,-0.4570312 0.269531,-0.3515625 0.761719,-0.4570313 1.078125,-0.4570313 0.492187,0 1.054687,0.3867188 1.054687,1.2773438 v 0.3632812 c -0.503906,0.035156 -1.207031,0.058594 -1.828125,0.3632813 -0.75,0.3398437 -0.996093,0.8554687 -0.996093,1.28906246 0,0.80859375 0.960937,1.0546875 1.59375,1.0546875 0.65625,0 1.113281,-0.3984375 1.300781,-0.8671875 z m -0.07031,-1.62890626 v 0.9960938 c 0,0.94921871 -0.714843,1.28906246 -1.160156,1.28906246 -0.492187,0 -0.902344,-0.3515625 -0.902344,-0.85546875 0,-0.53906251 0.421875,-1.37109371 2.0625,-1.42968751 z m 3.492188,-4.5234375 -1.429688,0.1054688 v 0.3164062 c 0.703125,0 0.773438,0.070312 0.773438,0.5507813 v 5.17968746 c 0,0.45703125 -0.105469,0.45703125 -0.773438,0.45703125 V 4.453125e-4 C 36.938148,-0.01127344 37.465492,-0.03471094 37.711586,-0.03471094 c 0.257812,0 0.738281,0.0234375 1.113281,0.0351562525 V -0.30424219 c -0.667969,0 -0.785156,0 -0.785156,-0.45703125 z M 0.16178125,9.7856016 c 0,-1.6289063 0.8203125,-2.0507813 1.34765625,-2.0507813 0.09375,0 0.7148438,0.011719 1.0664063,0.375 -0.4101563,0.023437 -0.46875,0.328125 -0.46875,0.4570313 0,0.2578125 0.1875,0.4570312 0.4570312,0.4570312 0.2578125,0 0.4570313,-0.1640625 0.4570313,-0.46875 0,-0.6796875 -0.75,-1.0664062 -1.5234375,-1.0664062 -1.24218755,0 -2.15625005,1.078125 -2.15625005,2.3085937 0,1.2773437 0.984375,2.2617187 2.14453125,2.2617187 1.3359375,0 1.6523438,-1.195312 1.6523438,-1.289062 0,-0.105469 -0.1054688,-0.105469 -0.1289063,-0.105469 -0.09375,0 -0.1171875,0.04687 -0.1289062,0.105469 -0.2929688,0.925781 -0.9375,1.042968 -1.3125,1.042968 -0.5273438,0 -1.40625005,-0.421875 -1.40625005,-2.0273434 z m 7.95703125,0.035156 c 0,-1.2773437 -0.9960937,-2.3320312 -2.1914062,-2.3320312 -1.2539063,0 -2.2148438,1.0898437 -2.2148438,2.3320312 0,1.2890624 1.03125,2.2382814 2.203125,2.2382814 1.2070313,0 2.203125,-0.972656 2.203125,-2.2382814 z M 5.9274063,11.812945 c -0.4335938,0 -0.8671875,-0.210937 -1.1367188,-0.667968 C 4.532875,10.711383 4.532875,10.102008 4.532875,9.7387266 c 0,-0.3867188 0,-0.9257813 0.2460938,-1.359375 C 5.0485,7.9223203 5.51725,7.7113828 5.9156875,7.7113828 c 0.4335938,0 0.8671875,0.2226563 1.125,0.6445313 C 7.2985,8.7895078 7.2985,9.3637266 7.2985,9.7387266 c 0,0.3632814 0,0.9023434 -0.2226562,1.3359374 -0.2226563,0.445313 -0.65625,0.738281 -1.1484375,0.738281 z M 9.5133438,8.5316953 v 2.6601567 c 0,0.457031 -0.1171875,0.457031 -0.7851563,0.457031 v 0.304687 c 0.3515625,-0.01172 0.8554688,-0.03516 1.125,-0.03516 0.2578125,0 0.7851565,0.02344 1.1132815,0.03516 v -0.304687 c -0.65625,0 -0.773438,0 -0.773438,-0.457031 V 9.3637266 c 0,-1.03125 0.714844,-1.59375 1.347657,-1.59375 0.621093,0 0.738281,0.5390625 0.738281,1.1015625 v 2.3203129 c 0,0.457031 -0.117188,0.457031 -0.773438,0.457031 v 0.304687 c 0.339844,-0.01172 0.855469,-0.03516 1.125,-0.03516 0.257813,0 0.773438,0.02344 1.113282,0.03516 v -0.304687 c -0.515625,0 -0.773438,0 -0.785157,-0.304688 V 9.4457578 c 0,-0.8554687 0,-1.171875 -0.304687,-1.5234375 -0.140625,-0.1757812 -0.46875,-0.375 -1.042969,-0.375 -0.726562,0 -1.195312,0.4335938 -1.476562,1.0546875 V 7.5473203 L 8.7281875,7.6645078 v 0.3046875 c 0.703125,0 0.7851563,0.070313 0.7851563,0.5625 z M 16.02018,10.019977 c 0.222656,0.03516 1.03125,0.199218 1.03125,0.914062 0,0.515625 -0.351563,0.914063 -1.125,0.914063 -0.832032,0 -1.195313,-0.574219 -1.382813,-1.417969 -0.03516,-0.128906 -0.03516,-0.175781 -0.140625,-0.175781 -0.128906,0 -0.128906,0.07031 -0.128906,0.257812 v 1.3125 c 0,0.164063 0,0.234375 0.105469,0.234375 0.05859,0 0.07031,0 0.257812,-0.199219 0.01172,-0.01172 0.01172,-0.03516 0.199219,-0.222656 0.433594,0.421875 0.878906,0.421875 1.089844,0.421875 1.148437,0 1.605468,-0.667969 1.605468,-1.382812 0,-0.527344 -0.292968,-0.8203129 -0.421875,-0.9492192 -0.328125,-0.3164062 -0.714843,-0.3984375 -1.136718,-0.46875 -0.550782,-0.1171875 -1.21875,-0.2460937 -1.21875,-0.8203125 0,-0.3515625 0.257812,-0.7617187 1.113281,-0.7617187 1.101562,0 1.148437,0.9023437 1.171875,1.2070312 0,0.09375 0.09375,0.09375 0.117187,0.09375 0.128907,0 0.128907,-0.046875 0.128907,-0.2460937 V 7.7348203 c 0,-0.1757812 0,-0.2460937 -0.117188,-0.2460937 -0.04687,0 -0.07031,0 -0.199219,0.1171875 -0.02344,0.046875 -0.128906,0.1289062 -0.164062,0.1640625 -0.375,-0.28125 -0.785156,-0.28125 -0.9375,-0.28125 -1.21875,0 -1.59375,0.6679687 -1.59375,1.2304687 0,0.3398438 0.164062,0.6210938 0.433594,0.84375 0.316406,0.2578125 0.597656,0.3164063 1.3125,0.4570317 z m 5.748047,1.148437 v 0.890625 l 1.441406,-0.105469 v -0.304687 c -0.703125,0 -0.785156,-0.07031 -0.785156,-0.5625 V 7.5473203 l -1.453125,0.1171875 v 0.3046875 c 0.691406,0 0.773437,0.070313 0.773437,0.5625 v 1.7695317 c 0,0.867187 -0.480469,1.546875 -1.207031,1.546875 -0.832031,0 -0.878906,-0.46875 -0.878906,-0.996094 V 7.5473203 l -1.464844,0.1171875 v 0.3046875 c 0.785156,0 0.785156,0.035156 0.785156,0.9140625 v 1.5000002 c 0,0.773437 0,1.675781 1.511719,1.675781 0.550781,0 0.996094,-0.269531 1.277344,-0.890625 z m 2.745117,-2.6367187 v 2.6601567 c 0,0.457031 -0.117188,0.457031 -0.785156,0.457031 v 0.304687 c 0.351562,-0.01172 0.855468,-0.03516 1.125,-0.03516 0.257812,0 0.785156,0.02344 1.113281,0.03516 v -0.304687 c -0.65625,0 -0.773438,0 -0.773438,-0.457031 V 9.3637266 c 0,-1.03125 0.714844,-1.59375 1.347657,-1.59375 0.621093,0 0.738281,0.5390625 0.738281,1.1015625 v 2.3203129 c 0,0.457031 -0.117188,0.457031 -0.773438,0.457031 v 0.304687 c 0.339844,-0.01172 0.855469,-0.03516 1.125,-0.03516 0.257813,0 0.773438,0.02344 1.113282,0.03516 v -0.304687 c -0.667969,0 -0.785157,0 -0.785157,-0.457031 V 9.3637266 c 0,-1.03125 0.714844,-1.59375 1.347657,-1.59375 0.632812,0 0.738281,0.5390625 0.738281,1.1015625 v 2.3203129 c 0,0.457031 -0.105469,0.457031 -0.773438,0.457031 v 0.304687 c 0.351563,-0.01172 0.855469,-0.03516 1.125,-0.03516 0.257813,0 0.773438,0.02344 1.113282,0.03516 v -0.304687 c -0.515625,0 -0.761719,0 -0.773438,-0.304688 V 9.4457578 c 0,-0.8554687 0,-1.171875 -0.316406,-1.5234375 -0.128906,-0.1757812 -0.46875,-0.375 -1.042969,-0.375 -0.832031,0 -1.277344,0.5976563 -1.441406,0.984375 -0.140625,-0.8671875 -0.878906,-0.984375 -1.324219,-0.984375 -0.726562,0 -1.195312,0.4335938 -1.476562,1.0546875 V 7.5473203 l -1.40625,0.1171875 v 0.3046875 c 0.703125,0 0.785156,0.070313 0.785156,0.5625 z m 8.314453,0.9140625 c 0.05859,-1.4882812 0.902344,-1.734375 1.242187,-1.734375 1.019532,0 1.125,1.3476563 1.125,1.734375 z m -0.01172,0.2109375 h 2.789063 c 0.210937,0 0.246093,0 0.246093,-0.2109375 0,-0.984375 -0.539062,-1.9570312 -1.78125,-1.9570312 -1.160156,0 -2.074218,1.03125 -2.074218,2.2734375 0,1.3359379 1.042968,2.2968749 2.191406,2.2968749 1.21875,0 1.664062,-1.101562 1.664062,-1.289062 0,-0.105469 -0.08203,-0.117188 -0.128906,-0.117188 -0.09375,0 -0.117187,0.05859 -0.128906,0.140625 -0.351563,1.019531 -1.253906,1.019531 -1.347656,1.019531 -0.503907,0 -0.902344,-0.292968 -1.125,-0.667968 -0.304688,-0.480469 -0.304688,-1.136719 -0.304688,-1.4882817 z M 37.805336,8.6488828 V 7.5473203 l -1.382813,0.1171875 v 0.3046875 c 0.691407,0 0.773438,0.070313 0.773438,0.5625 v 2.6601567 c 0,0.457031 -0.105469,0.457031 -0.773438,0.457031 v 0.304687 c 0.386719,-0.01172 0.855469,-0.03516 1.136719,-0.03516 0.398438,0 0.867188,0 1.265625,0.03516 V 11.648883 H 38.61393 c -0.738282,0 -0.761719,-0.117188 -0.761719,-0.46875 V 9.6449766 c 0,-0.984375 0.421875,-1.875 1.183594,-1.875 0.05859,0 0.08203,0 0.105468,0.011719 -0.03516,0.011719 -0.234375,0.1289063 -0.234375,0.3867188 0,0.28125 0.210938,0.4335937 0.433594,0.4335937 0.175781,0 0.421875,-0.1289062 0.421875,-0.4453125 0,-0.3164062 -0.304687,-0.609375 -0.726562,-0.609375 -0.738282,0 -1.089844,0.6679688 -1.230469,1.1015622 z m 0,0"
       style="fill:#000000;fill-opacity:1;fill-rule:nonzero;stroke:none"
       aria-label="Marginal&#10;consumer"
       transform="matrix(1.3333333,0,0,1.3333333,279.51867,16.308)" />
    <path
       id="path34"
       d="M 56.69362,34.01608 V 5.99173"
       style="fill:none;stroke:#000000;stroke-width:0.79701;stroke-linecap:round;stroke-linejoin:miter;stroke-miterlimit:10;stroke-dasharray:none;stroke-opacity:1"
       transform="matrix(1.3333333,0,0,-1.3333333,229.96,78.248)" />
    <path
       id="path35"
       d="M 2.59026,0 -1.55415,2.0722 0,0 -1.55415,-2.0722"
       style="fill:#000000;fill-opacity:1;fill-rule:nonzero;stroke:none"
       transform="matrix(0,1.3333333,1.3333333,0,305.55149,70.259027)" />
  </g>
</svg>
