<?xml version="1.0" encoding="UTF-8" standalone="no"?>
<!-- Created with Inkscape (http://www.inkscape.org/) -->

<svg
   version="1.1"
   id="svg1"
   width="286.59067"
   height="228.11467"
   viewBox="0 0 286.59067 228.11467"
   sodipodi:docname="fig-salop-demand-comp-mon.pdf"
   xmlns:inkscape="http://www.inkscape.org/namespaces/inkscape"
   xmlns:sodipodi="http://sodipodi.sourceforge.net/DTD/sodipodi-0.dtd"
   xmlns="http://www.w3.org/2000/svg"
   xmlns:svg="http://www.w3.org/2000/svg">
  <defs
     id="defs1" />
  <sodipodi:namedview
     id="namedview1"
     pagecolor="#ffffff"
     bordercolor="#000000"
     borderopacity="0.25"
     inkscape:showpageshadow="2"
     inkscape:pageopacity="0.0"
     inkscape:pagecheckerboard="0"
     inkscape:deskcolor="#d1d1d1">
    <inkscape:page
       x="0"
       y="0"
       inkscape:label="1"
       id="page1"
       width="286.59067"
       height="228.11467"
       margin="0"
       bleed="0" />
  </sodipodi:namedview>
  <g
     id="g1"
     inkscape:groupmode="layer"
     inkscape:label="1">
    <path
       id="path1"
       d="M 0,0 H 184.49884"
       style="fill:none;stroke:#000000;stroke-width:0.79701;stroke-linecap:round;stroke-linejoin:round;stroke-miterlimit:10;stroke-dasharray:none;stroke-opacity:1"
       transform="matrix(1.3333333,0,0,-1.3333333,18.692,216.88)" />
    <path
       id="path2"
       d="M 2.59026,0 -1.55415,2.0722 0,0 -1.55415,-2.0722"
       style="fill:#000000;fill-opacity:1;fill-rule:nonzero;stroke:none"
       transform="matrix(1.3333333,0,0,-1.3333333,264.69045,216.88)" />
    <path
       id="path3"
       d="m 4.5011719,-4.2881484 c 0,-0.046875 -0.023437,-0.1054688 -0.09375,-0.1054688 -0.1171875,0 -0.515625,0.3984375 -0.6796875,0.6914063 -0.2226563,-0.5390625 -0.609375,-0.703125 -0.9257813,-0.703125 -1.171875,0 -2.40234373,1.4765625 -2.40234373,2.9179687 0,0.98437501 0.5859375,1.59375001 1.31250003,1.59375001 0.4335937,0 0.8203125,-0.234375 1.1835937,-0.59765625 -0.09375,0.3515625 -0.421875,1.69921874 -0.4570312,1.79296874 -0.082031,0.2695313 -0.1523438,0.3164063 -0.7148438,0.328125 -0.1289062,0 -0.2226562,0 -0.2226562,0.1992188 0,0 0,0.1054687 0.1289062,0.1054687 0.3164063,0 0.6679688,-0.035156 0.9960938,-0.035156 0.328125,0 0.6914062,0.035156 1.0195312,0.035156 0.046875,0 0.1757813,0 0.1757813,-0.1992187 0,-0.1054688 -0.09375,-0.1054688 -0.2578125,-0.1054688 -0.46875,0 -0.46875,-0.070312 -0.46875,-0.1640625 0,-0.070312 0.011719,-0.1289062 0.035156,-0.2226562 z m -2.7539063,4.18359371 c -0.5976562,0 -0.6445312,-0.7734375 -0.6445312,-0.93750001 0,-0.4804687 0.2929687,-1.5703125 0.4570312,-1.9804687 0.3164063,-0.7382813 0.8320313,-1.1601563 1.2421875,-1.1601563 0.6445313,0 0.7851563,0.8085938 0.7851563,0.8789063 0,0.058594 -0.5507813,2.2382812 -0.5742188,2.2734375 -0.1523437,0.28124996 -0.7148437,0.92578121 -1.265625,0.92578121 z m 0,0"
       style="fill:#000000;fill-opacity:1;fill-rule:nonzero;stroke:none"
       aria-label="q"
       transform="matrix(1.3333333,0,0,1.3333333,273.1,218.448)" />
    <path
       id="path4"
       d="M 0,0 V 144.81305"
       style="fill:none;stroke:#000000;stroke-width:0.79701;stroke-linecap:round;stroke-linejoin:round;stroke-miterlimit:10;stroke-dasharray:none;stroke-opacity:1"
       transform="matrix(1.3333333,0,0,-1.3333333,18.692,216.88)" />
    <path
       id="path5"
       d="M 2.59026,0 -1.55415,2.0722 0,0 -1.55415,-2.0722"
       style="fill:#000000;fill-opacity:1;fill-rule:nonzero;stroke:none"
       transform="matrix(0,-1.3333333,-1.3333333,0,18.692,23.795933)" />
    <path
       id="path6"
       d="m 0.44598438,1.2173359 c -0.0820313,0.3398438 -0.09375,0.4101563 -0.5390625,0.4101563 -0.1171875,0 -0.22265625,0 -0.22265625,0.1875 0,0.082031 0.046875,0.1171875 0.12890625,0.1171875 0.26953125,0 0.55078125,-0.035156 0.83203125,-0.035156 0.328125,0 0.66796877,0.035156 0.98437497,0.035156 0.058594,0 0.1875,0 0.1875,-0.1992188 0,-0.1054687 -0.1054687,-0.1054687 -0.2460937,-0.1054687 -0.4921875,0 -0.4921875,-0.070312 -0.4921875,-0.1640625 0,-0.1171875 0.421875,-1.74609376 0.4804687,-1.99218751 0.140625,0.29296875 0.4101563,0.6328125 0.9257813,0.6328125 1.1484375,0 2.4023437,-1.45312499 2.4023437,-2.91796879 0,-0.9375 -0.5742187,-1.59375 -1.3359375,-1.59375 -0.4921875,0 -0.9726562,0.3632813 -1.3007812,0.75 -0.09375,-0.5390625 -0.5273438,-0.75 -0.890625,-0.75 -0.45703127,0 -0.65625002,0.3867188 -0.73828127,0.5742188 -0.1875,0.3398437 -0.31640625,0.9375 -0.31640625,0.9609375 0,0.1054687 0.10546875,0.1054687 0.12890625,0.1054687 0.09375,0 0.10546875,-0.011719 0.1640625,-0.234375 0.1640625,-0.703125 0.36328125,-1.1835937 0.72656247,-1.1835937 0.1757813,0 0.3046875,0.082031 0.3046875,0.4570312 0,0.234375 -0.023437,0.3398438 -0.070312,0.5039063 z M 2.2037969,-3.1068828 c 0.070312,-0.2695313 0.3398437,-0.5507813 0.515625,-0.703125 0.3515625,-0.3046875 0.6328125,-0.375 0.8085937,-0.375 0.3984375,0 0.6328125,0.3515625 0.6328125,0.9375 0,0.5859375 -0.328125,1.734375 -0.5039062,2.109375 -0.3398438,0.70312499 -0.8203125,1.03124999 -1.1835938,1.03124999 -0.65625,0 -0.7851562,-0.83203125 -0.7851562,-0.890625 0,-0.0234375 0,-0.0351563 0.023437,-0.16406249 z m 0,0"
       style="fill:#000000;fill-opacity:1;fill-rule:nonzero;stroke:none"
       aria-label="p"
       transform="matrix(1.3333333,0,0,1.3333333,15.350667,12.802667)" />
    <path
       id="path7"
       d="m 1.49442,119.0565 c 0,0.82535 -0.66909,1.49442 -1.49442,1.49442 -0.82533,0 -1.49442,-0.66907 -1.49442,-1.49442 0,-0.82534 0.66909,-1.49441 1.49442,-1.49441 0.82533,0 1.49442,0.66907 1.49442,1.49441 z"
       style="fill:#000000;fill-opacity:1;fill-rule:nonzero;stroke:none"
       transform="matrix(1.3333333,0,0,-1.3333333,18.692,216.88)" />
    <path
       id="path8"
       d="m 4.6655156,-3.702125 c 0,-0.5390625 -0.2578125,-0.703125 -0.4453125,-0.703125 -0.2460937,0 -0.4804687,0.2578125 -0.4804687,0.4804688 0,0.1289062 0.046875,0.1875 0.1523437,0.3046875 0.2109375,0.1992187 0.3398438,0.4570312 0.3398438,0.8085937 0,0.421875 -0.609375,2.70703125 -1.7695313,2.70703125 -0.5039062,0 -0.7382812,-0.3515625 -0.7382812,-0.8671875 0,-0.56249995 0.2695312,-1.28906245 0.5742187,-2.12109375 0.070312,-0.1640625 0.1289063,-0.3046875 0.1289063,-0.4921875 0,-0.4453125 -0.328125,-0.8203125 -0.8203125,-0.8203125 -0.93750003,0 -1.31250003,1.453125 -1.31250003,1.5351563 0,0.1054687 0.09375,0.1054687 0.1171875,0.1054687 0.09375,0 0.10546875,-0.023437 0.15234375,-0.1875 0.29296875,-0.9960937 0.72656248,-1.2304687 1.00781248,-1.2304687 0.082031,0 0.2578125,0 0.2578125,0.3164062 0,0.2460938 -0.1054687,0.515625 -0.1757812,0.703125 -0.4335938,1.1484375 -0.5625,1.6054688 -0.5625,2.0390625 0,1.078125 0.8671875,1.23046875 1.3359375,1.23046875 1.6640625,0 2.2382812,-3.29296875 2.2382812,-3.80859375 z m 0,0"
       style="fill:#000000;fill-opacity:1;fill-rule:nonzero;stroke:none"
       aria-label="v"
       transform="matrix(1.3333333,0,0,1.3333333,7.084,60.998667)" />
    <path
       id="path9"
       d="M 0,119.0565 85.04042,85.04042 147.40332,45.35506"
       style="fill:none;stroke:#000000;stroke-width:0.79701;stroke-linecap:round;stroke-linejoin:round;stroke-miterlimit:10;stroke-dasharray:none;stroke-opacity:1"
       transform="matrix(1.3333333,0,0,-1.3333333,18.692,216.88)" />
    <path
       id="path10"
       d="M 85.04042,0 V 136.06476"
       style="fill:none;stroke:#000000;stroke-width:0.79701;stroke-linecap:round;stroke-linejoin:round;stroke-miterlimit:10;stroke-dasharray:2.98883, 1.99255;stroke-dashoffset:0;stroke-opacity:1"
       transform="matrix(1.3333333,0,0,-1.3333333,18.692,216.88)" />
    <path
       id="path11"
       d="M 2.4036406,-6.5870547 C 2.3098906,-6.8097109 2.2864531,-6.8097109 2.0520781,-6.8097109 H 0.36457813 v 0.3164062 h 0.24609375 c 0.76171872,0 0.78515622,0.1054688 0.78515622,0.46875 v 4.9804688 c 0,0.26953121 0,0.73828121 -1.03124997,0.73828121 v 0.3046875 c 0.3515625,-0.01171875 0.84374997,-0.03515625 1.17187497,-0.03515625 0.328125,0 0.8203125,0.0234375 1.1601563,0.03515625 v -0.3046875 c -1.0195313,0 -1.0195313,-0.46875 -1.0195313,-0.73828121 v -5.3671875 h 0.011719 l 2.4023437,6.18749996 c 0.046875,0.12890625 0.09375,0.22265625 0.1992188,0.22265625 0.1054687,0 0.1289062,-0.08203125 0.1757812,-0.1875 L 6.9153594,-6.4933047 h 0.011719 v 5.71875001 c 0,0.3515625 -0.023437,0.46875 -0.7851562,0.46875 H 5.8958281 v 0.3046875 c 0.375,-0.03515625 1.0429688,-0.03515625 1.4414063,-0.03515625 0.3867187,0 1.0546875,0 1.4179687,0.03515625 v -0.3046875 h -0.234375 c -0.7734375,0 -0.7851562,-0.1171875 -0.7851562,-0.46875 V -6.0245547 c 0,-0.3632812 0.011719,-0.46875 0.7851562,-0.46875 h 0.234375 V -6.8097109 H 7.0794219 c -0.2695313,0 -0.2695313,0.011719 -0.3398438,0.1992187 l -2.1796875,5.6015625 z m 11.4169924,4.453125 c 0,-1.2773437 -0.996094,-2.3320312 -2.191406,-2.3320312 -1.253907,0 -2.2148442,1.0898437 -2.2148442,2.3320312 0,1.28906251 1.0312502,2.23828126 2.2031252,2.23828126 1.207031,0 2.203125,-0.97265625 2.203125,-2.23828126 z m -2.191406,1.99218751 c -0.433594,0 -0.867188,-0.2109375 -1.136719,-0.66796875 -0.257813,-0.43359376 -0.257813,-1.04296876 -0.257813,-1.40624996 0,-0.3867188 0,-0.9257813 0.246094,-1.359375 0.269531,-0.4570313 0.738281,-0.6679688 1.136719,-0.6679688 0.433594,0 0.867187,0.2226563 1.125,0.6445313 0.257812,0.4335937 0.257812,1.0078125 0.257812,1.3828125 0,0.3632812 0,0.9023437 -0.222656,1.33593746 -0.222656,0.4453125 -0.65625,0.73828125 -1.148437,0.73828125 z m 3.585937,-3.28125001 v 2.66015626 c 0,0.45703125 -0.117187,0.45703125 -0.785156,0.45703125 v 0.3046875 c 0.351562,-0.01171875 0.855469,-0.03515625 1.125,-0.03515625 0.257812,0 0.785156,0.0234375 1.113281,0.03515625 v -0.3046875 c -0.65625,0 -0.773437,0 -0.773437,-0.45703125 V -2.5909609 c 0,-1.03125 0.714843,-1.59375 1.347656,-1.59375 0.621094,0 0.738281,0.5390625 0.738281,1.1015625 v 2.32031246 c 0,0.45703125 -0.117187,0.45703125 -0.773437,0.45703125 v 0.3046875 c 0.339843,-0.01171875 0.855468,-0.03515625 1.125,-0.03515625 0.257812,0 0.773437,0.0234375 1.113281,0.03515625 v -0.3046875 c -0.515625,0 -0.773438,0 -0.785156,-0.3046875 V -2.5089297 c 0,-0.8554687 0,-1.171875 -0.304688,-1.5234375 -0.140625,-0.1757812 -0.46875,-0.375 -1.042969,-0.375 -0.726562,0 -1.195312,0.4335938 -1.476562,1.0546875 v -1.0546875 l -1.40625,0.1171875 v 0.3046875 c 0.703125,0 0.785156,0.070312 0.785156,0.5625 z m 9.120117,1.2890625 c 0,-1.2773437 -0.996093,-2.3320312 -2.191406,-2.3320312 -1.253906,0 -2.214844,1.0898437 -2.214844,2.3320312 0,1.28906251 1.03125,2.23828126 2.203125,2.23828126 1.207032,0 2.203125,-0.97265625 2.203125,-2.23828126 z m -2.191406,1.99218751 c -0.433594,0 -0.867187,-0.2109375 -1.136719,-0.66796875 -0.257812,-0.43359376 -0.257812,-1.04296876 -0.257812,-1.40624996 0,-0.3867188 0,-0.9257813 0.246094,-1.359375 0.269531,-0.4570313 0.738281,-0.6679688 1.136718,-0.6679688 0.433594,0 0.867188,0.2226563 1.125,0.6445313 0.257813,0.4335937 0.257813,1.0078125 0.257813,1.3828125 0,0.3632812 0,0.9023437 -0.222656,1.33593746 -0.222657,0.4453125 -0.65625,0.73828125 -1.148438,0.73828125 z m 4.198242,-3.60937501 v -0.65625 l -1.429687,0.1171875 v 0.3046875 c 0.703125,0 0.773437,0.058594 0.773437,0.4921875 v 4.6640625 c 0,0.4570313 -0.105469,0.4570313 -0.773437,0.4570313 v 0.3046875 c 0.339843,-0.011719 0.855468,-0.035156 1.113281,-0.035156 0.269531,0 0.773437,0.023437 1.125,0.035156 V 1.6277891 c -0.667969,0 -0.773438,0 -0.773438,-0.4570313 v -1.75781249 c 0.04687,0.15234375 0.46875,0.69140625 1.21875,0.69140625 1.183594,0 2.226563,-0.97265625 2.226563,-2.26171876 0,-1.265625 -0.972656,-2.25 -2.085938,-2.25 -0.773437,0 -1.195312,0.4453125 -1.394531,0.65625 z m 0.03516,2.6132813 v -2.2148438 c 0.28125,-0.515625 0.773438,-0.796875 1.277344,-0.796875 0.726563,0 1.335938,0.8671875 1.335938,1.9921875 0,1.20703126 -0.691407,2.05078126 -1.429688,2.05078126 -0.398437,0 -0.773437,-0.19921875 -1.042969,-0.609375 -0.140625,-0.2109375 -0.140625,-0.22265625 -0.140625,-0.42187496 z m 8.753907,-0.9960938 c 0,-1.2773437 -0.996094,-2.3320312 -2.191407,-2.3320312 -1.253906,0 -2.214843,1.0898437 -2.214843,2.3320312 0,1.28906251 1.03125,2.23828126 2.203125,2.23828126 1.207031,0 2.203125,-0.97265625 2.203125,-2.23828126 z m -2.191407,1.99218751 c -0.433593,0 -0.867187,-0.2109375 -1.136718,-0.66796875 -0.257813,-0.43359376 -0.257813,-1.04296876 -0.257813,-1.40624996 0,-0.3867188 0,-0.9257813 0.246094,-1.359375 0.269531,-0.4570313 0.738281,-0.6679688 1.136719,-0.6679688 0.433593,0 0.867187,0.2226563 1.125,0.6445313 0.257812,0.4335937 0.257812,1.0078125 0.257812,1.3828125 0,0.3632812 0,0.9023437 -0.222656,1.33593746 -0.222656,0.4453125 -0.65625,0.73828125 -1.148438,0.73828125 z m 4.245118,-6.77343751 -1.429688,0.1054688 v 0.3164062 c 0.703125,0 0.773438,0.070312 0.773438,0.5507813 v 5.17968746 c 0,0.45703125 -0.105469,0.45703125 -0.773438,0.45703125 v 0.3046875 c 0.328125,-0.01171875 0.855469,-0.03515625 1.101563,-0.03515625 0.257812,0 0.738281,0.0234375 1.113281,0.03515625 v -0.3046875 c -0.667969,0 -0.785156,0 -0.785156,-0.45703125 z m 5.144531,3.5625 c 0.257812,-0.6210937 0.761719,-0.6328125 0.925781,-0.6328125 v -0.3046875 c -0.234375,0.011719 -0.515625,0.023437 -0.75,0.023437 -0.175781,0 -0.644531,-0.023437 -0.867187,-0.023437 v 0.3046875 c 0.304687,0.011719 0.46875,0.1757813 0.46875,0.4335938 0,0.09375 -0.01172,0.1171875 -0.05859,0.234375 l -1.007813,2.44921871 -1.101562,-2.68359371 c -0.04687,-0.09375 -0.05859,-0.140625 -0.05859,-0.1757813 0,-0.2578125 0.363281,-0.2578125 0.550781,-0.2578125 v -0.3046875 c -0.257812,0 -0.914062,0.023437 -1.078125,0.023437 -0.269531,0 -0.667968,-0.011719 -0.972656,-0.023437 v 0.3046875 c 0.480469,0 0.667969,0 0.808594,0.3515625 l 1.5,3.63281251 c -0.05859,0.12890625 -0.199219,0.45703125 -0.257813,0.5859375 -0.210937,0.55078129 -0.492187,1.24218749 -1.136718,1.24218749 -0.04687,0 -0.269532,0 -0.46875,-0.1875 0.316406,-0.035156 0.398437,-0.2578125 0.398437,-0.4101562 0,-0.26953129 -0.199219,-0.42187504 -0.421875,-0.42187504 -0.199219,0 -0.421875,0.12890625 -0.421875,0.42187504 0,0.4570312 0.421875,0.8085937 0.914063,0.8085937 0.632812,0 1.042968,-0.5625 1.277343,-1.13671874 z m 0,0"
       style="fill:#000000;fill-opacity:1;fill-rule:nonzero;stroke:none"
       aria-label="Monopoly"
       transform="matrix(1.3333333,0,0,1.3333333,61.537333,46.341333)" />
    <path
       id="path12"
       d="m 1.6641406,-3.3038203 v -1.1015625 l -1.38281248,0.1171875 v 0.3046875 c 0.69140625,0 0.77343748,0.070312 0.77343748,0.5625 v 2.66015624 c 0,0.45703125 -0.10546873,0.45703125 -0.77343748,0.45703125 V 8.671875e-4 C 0.66804687,-0.01085156 1.1367969,-0.03428906 1.4180469,-0.03428906 c 0.3984375,0 0.8671875,0 1.265625,0.0351562475 V -0.30382031 H 2.4727344 c -0.7382813,0 -0.7617188,-0.1171875 -0.7617188,-0.46875 V -2.3077266 c 0,-0.984375 0.421875,-1.875 1.1835938,-1.875 0.058594,0 0.082031,0 0.1054687,0.011719 -0.035156,0.011719 -0.234375,0.1289062 -0.234375,0.3867187 0,0.28125 0.2109375,0.4335938 0.4335938,0.4335938 0.1757812,0 0.421875,-0.1289063 0.421875,-0.4453125 0,-0.3164063 -0.3046875,-0.609375 -0.7265625,-0.609375 -0.7382813,0 -1.0898438,0.6679687 -1.2304688,1.1015623 z m 3.3515625,0.796875 c 0.058594,-1.4882813 0.9023438,-1.734375 1.2421875,-1.734375 1.0195313,0 1.125,1.3476562 1.125,1.734375 z m -0.011719,0.2109375 h 2.7890625 c 0.2109375,0 0.2460937,0 0.2460937,-0.2109375 0,-0.984375 -0.5390625,-1.9570313 -1.78125,-1.9570313 -1.1601562,0 -2.0742187,1.03125 -2.0742187,2.2734375 0,1.33593754 1.0429687,2.29687504 2.1914062,2.29687504 1.21875,0 1.6640625,-1.1015625 1.6640625,-1.28906254 0,-0.1054687 -0.082031,-0.1171875 -0.1289062,-0.1171875 -0.09375,0 -0.1171875,0.058594 -0.1289063,0.140625 -0.3515625,1.01953129 -1.2539062,1.01953129 -1.3476562,1.01953129 -0.5039063,0 -0.9023438,-0.29296875 -1.125,-0.66796875 C 5.0039844,-1.2881953 5.0039844,-1.9444453 5.0039841,-2.2960078 Z m 5.5400389,0.5859375 c -0.8671874,0 -0.8671874,-0.9960938 -0.8671874,-1.2304688 0,-0.2695312 0.011719,-0.5859375 0.1523438,-0.8320312 0.082031,-0.1171875 0.3164066,-0.3984375 0.7148436,-0.3984375 0.867188,0 0.867188,0.9960937 0.867188,1.21875 0,0.2695312 -0.01172,0.5976562 -0.164063,0.84375 -0.08203,0.1171875 -0.304687,0.3984375 -0.703125,0.3984375 z m -1.1601561,0.3867187 c 0,-0.035156 0,-0.2695312 0.1757812,-0.46875 0.3867188,0.28125 0.7968749,0.3046875 0.9843749,0.3046875 0.925782,0 1.605469,-0.6796875 1.605469,-1.453125 0,-0.3632812 -0.152344,-0.7382812 -0.398437,-0.9609375 0.351562,-0.3398437 0.714843,-0.3867187 0.890625,-0.3867187 0.02344,0 0.07031,0 0.105468,0 -0.117187,0.046875 -0.164062,0.1523437 -0.164062,0.2695312 0,0.1757813 0.128906,0.2929688 0.292969,0.2929688 0.09375,0 0.28125,-0.070312 0.28125,-0.2929688 0,-0.1757812 -0.117188,-0.4921875 -0.503907,-0.4921875 -0.199218,0 -0.632812,0.058594 -1.054687,0.46875 -0.421875,-0.328125 -0.84375,-0.3632812 -1.054688,-0.3632812 -0.9257811,0 -1.6171874,0.6914062 -1.6171874,1.453125 0,0.4453125 0.2226563,0.8203125 0.46875,1.03125 -0.1289062,0.1523437 -0.3046875,0.4804687 -0.3046875,0.8203125 0,0.31640624 0.1289063,0.69140624 0.4335938,0.89062499 -0.5976563,0.17578125 -0.9140625,0.59765625 -0.9140625,0.99609375 0,0.71484376 0.984375,1.26562496 2.2031256,1.26562496 1.171875,0 2.203125,-0.5039062 2.203125,-1.28906246 0,-0.33984375 -0.140625,-0.85546875 -0.644532,-1.125 -0.527343,-0.28125 -1.101562,-0.28125 -1.710937,-0.28125 -0.246094,0 -0.6796879,0 -0.7500004,-0.0117188 C 9.5948047,-0.70225781 9.3838672,-1.0069453 9.3838669,-1.3233516 Z m 1.4414061,3.1523438 c -1.0078124,0 -1.6992186,-0.515625 -1.6992186,-1.04296876 0,-0.45703125 0.375,-0.8203125 0.8203125,-0.85546875 h 0.5859381 c 0.855468,0 1.96875,0 1.96875,0.85546875 0,0.53906246 -0.703125,1.04296876 -1.675782,1.04296876 z m 4.242188,-6.234375 -1.394531,0.1171875 v 0.3046875 c 0.65625,0 0.738281,0.058594 0.738281,0.5507812 v 2.67187504 c 0,0.45703125 -0.105469,0.45703125 -0.773438,0.45703125 V 8.671875e-4 C 13.95418,-0.01085156 14.493242,-0.03428906 14.739336,-0.03428906 c 0.339844,0 0.691406,0.0234375 1.03125,0.0351562475 V -0.30382031 c -0.65625,0 -0.703125,-0.0585938 -0.703125,-0.4453125 z m 0.04687,-1.734375 c 0,-0.3164063 -0.246094,-0.5273438 -0.527344,-0.5273438 -0.316406,0 -0.527344,0.2695313 -0.527344,0.5273438 0,0.2695312 0.210938,0.5273437 0.527344,0.5273437 0.28125,0 0.527344,-0.1992187 0.527344,-0.5273437 z m 5.651367,4.0078125 c 0,-1.2773438 -0.996094,-2.3320313 -2.191406,-2.3320313 -1.253906,0 -2.214844,1.0898438 -2.214844,2.3320313 0,1.28906249 1.03125,2.23828124 2.203125,2.23828124 1.207031,0 2.203125,-0.97265625 2.203125,-2.23828124 z m -2.191406,1.99218749 c -0.433594,0 -0.867188,-0.2109375 -1.136719,-0.66796875 -0.257812,-0.43359374 -0.257812,-1.04296874 -0.257812,-1.40625004 0,-0.3867187 0,-0.9257812 0.246093,-1.359375 0.269532,-0.4570312 0.738282,-0.6679687 1.136719,-0.6679687 0.433594,0 0.867188,0.2226562 1.125,0.6445312 0.257813,0.4335938 0.257813,1.0078125 0.257813,1.3828125 0,0.3632813 0,0.9023438 -0.222657,1.33593754 -0.222656,0.4453125 -0.65625,0.73828125 -1.148437,0.73828125 z m 3.585937,-3.28124999 v 2.66015624 c 0,0.45703125 -0.117187,0.45703125 -0.785156,0.45703125 V 8.671875e-4 c 0.351563,-0.0117187475 0.855469,-0.0351562475 1.125,-0.0351562475 0.257813,0 0.785156,0.0234375 1.113281,0.0351562475 V -0.30382031 c -0.65625,0 -0.773437,0 -0.773437,-0.45703125 V -2.5889766 c 0,-1.03125 0.714844,-1.59375 1.347656,-1.59375 0.621094,0 0.738281,0.5390625 0.738281,1.1015625 v 2.32031254 c 0,0.45703125 -0.117187,0.45703125 -0.773437,0.45703125 V 8.671875e-4 c 0.339844,-0.0117187475 0.855469,-0.0351562475 1.125,-0.0351562475 0.257812,0 0.773437,0.0234375 1.113281,0.0351562475 V -0.30382031 c -0.515625,0 -0.773437,0 -0.785156,-0.3046875 V -2.5069453 c 0,-0.8554688 0,-1.171875 -0.304688,-1.5234375 -0.140625,-0.1757813 -0.46875,-0.375 -1.042968,-0.375 -0.726563,0 -1.195313,0.4335937 -1.476563,1.0546875 v -1.0546875 l -1.40625,0.1171875 v 0.3046875 c 0.703125,0 0.785156,0.070312 0.785156,0.5625 z m 0,0"
       style="fill:#000000;fill-opacity:1;fill-rule:nonzero;stroke:none"
       aria-label="region"
       transform="matrix(1.3333333,0,0,1.3333333,72.773333,61.284)" />
    <path
       id="path13"
       d="m 0.56166406,-3.4090078 c 0,2.0625 1.60546874,3.63281249 3.45703124,3.63281249 1.6289063,0 2.6015625,-1.38281249 2.6015625,-2.54296879 0,-0.1054687 0,-0.1757812 -0.1289062,-0.1757812 -0.1054688,0 -0.1054688,0.070312 -0.1171875,0.1640625 -0.082031,1.42968749 -1.1484375,2.23828124 -2.2265625,2.23828124 -0.609375,0 -2.5664063,-0.33984375 -2.5664063,-3.30468754 0,-2.9765625 1.9453125,-3.3164062 2.5546875,-3.3164062 1.078125,0 1.96875,0.9023437 2.1679688,2.3671875 0.023437,0.1289062 0.023437,0.1640625 0.1640625,0.1640625 0.1523437,0 0.1523437,-0.035156 0.1523437,-0.234375 v -2.3671875 c 0,-0.1640625 0,-0.234375 -0.1054687,-0.234375 -0.035156,0 -0.082031,0 -0.1640625,0.1171875 l -0.4921875,0.7382812 c -0.375,-0.3632812 -0.8789063,-0.8554687 -1.8398438,-0.8554687 -1.8632812,0 -3.45703124,1.5820312 -3.45703124,3.609375 z M 11.881977,-2.1316641 c 0,-1.2773437 -0.996094,-2.3320312 -2.1914067,-2.3320312 -1.2539062,0 -2.2148437,1.0898437 -2.2148437,2.3320312 0,1.28906254 1.03125,2.23828129 2.203125,2.23828129 1.2070314,0 2.2031254,-0.97265625 2.2031254,-2.23828129 z m -2.1914067,1.99218754 c -0.4335937,0 -0.8671875,-0.2109375 -1.1367187,-0.66796875 C 8.2960391,-1.2410391 8.2960391,-1.8504141 8.2960391,-2.2136953 c 0,-0.3867188 0,-0.9257813 0.2460937,-1.359375 0.2695313,-0.4570313 0.7382813,-0.6679688 1.1367188,-0.6679688 0.4335934,0 0.8671874,0.2226563 1.1250004,0.6445313 0.257812,0.4335937 0.257812,1.0078125 0.257812,1.3828125 0,0.3632812 0,0.9023437 -0.222656,1.33593749 -0.222656,0.4453125 -0.65625,0.73828125 -1.1484377,0.73828125 z M 13.276508,-3.4207266 v 2.66015629 c 0,0.45703125 -0.117188,0.45703125 -0.785156,0.45703125 v 0.3046875 c 0.351562,-0.01171875 0.855468,-0.03515625 1.125,-0.03515625 0.257812,0 0.785156,0.0234375 1.113281,0.03515625 v -0.3046875 c -0.65625,0 -0.773438,0 -0.773438,-0.45703125 V -2.5886953 c 0,-1.03125 0.714844,-1.59375 1.347657,-1.59375 0.621093,0 0.738281,0.5390625 0.738281,1.1015625 v 2.32031249 c 0,0.45703125 -0.117188,0.45703125 -0.773438,0.45703125 v 0.3046875 c 0.339844,-0.01171875 0.855469,-0.03515625 1.125,-0.03515625 0.257813,0 0.773438,0.0234375 1.113282,0.03515625 v -0.3046875 c -0.667969,0 -0.785157,0 -0.785157,-0.45703125 V -2.5886953 c 0,-1.03125 0.714844,-1.59375 1.347657,-1.59375 0.632812,0 0.738281,0.5390625 0.738281,1.1015625 v 2.32031249 c 0,0.45703125 -0.105469,0.45703125 -0.773438,0.45703125 v 0.3046875 c 0.351563,-0.01171875 0.855469,-0.03515625 1.125,-0.03515625 0.257813,0 0.773438,0.0234375 1.113282,0.03515625 v -0.3046875 c -0.515625,0 -0.761719,0 -0.773438,-0.3046875 V -2.5066641 c 0,-0.8554687 0,-1.171875 -0.316406,-1.5234375 -0.128906,-0.1757812 -0.46875,-0.375 -1.042969,-0.375 -0.832031,0 -1.277344,0.5976563 -1.441406,0.984375 -0.140625,-0.8671875 -0.878906,-0.984375 -1.324219,-0.984375 -0.726562,0 -1.195312,0.4335938 -1.476562,1.0546875 v -1.0546875 l -1.40625,0.1171875 v 0.3046875 c 0.703125,0 0.785156,0.070312 0.785156,0.5625 z m 8.912109,-0.328125 v -0.65625 l -1.429687,0.1171875 v 0.3046875 c 0.703125,0 0.773437,0.058594 0.773437,0.4921875 v 4.6640625 c 0,0.4570313 -0.105469,0.4570313 -0.773437,0.4570313 v 0.3046875 c 0.339843,-0.011719 0.855468,-0.035156 1.113281,-0.035156 0.269531,0 0.773437,0.023437 1.125,0.035156 V 1.6300547 c -0.667969,0 -0.773438,0 -0.773438,-0.4570313 v -1.75781246 c 0.04687,0.15234375 0.46875,0.69140625 1.21875,0.69140625 1.183594,0 2.226563,-0.97265625 2.226563,-2.26171879 0,-1.265625 -0.972656,-2.25 -2.085938,-2.25 -0.773437,0 -1.195312,0.4453125 -1.394531,0.65625 z m 0.03516,2.6132813 v -2.2148438 c 0.28125,-0.515625 0.773438,-0.796875 1.277344,-0.796875 0.726563,0 1.335938,0.8671875 1.335938,1.9921875 0,1.20703129 -0.691407,2.05078129 -1.429688,2.05078129 -0.398437,0 -0.773437,-0.19921875 -1.042969,-0.609375 -0.140625,-0.2109375 -0.140625,-0.22265625 -0.140625,-0.42187499 z m 5.182618,-1.3710938 c 0.05859,-1.4882812 0.902343,-1.734375 1.242187,-1.734375 1.019531,0 1.125,1.3476563 1.125,1.734375 z m -0.01172,0.2109375 h 2.789062 c 0.210938,0 0.246094,0 0.246094,-0.2109375 0,-0.984375 -0.539062,-1.9570312 -1.78125,-1.9570312 -1.160156,0 -2.074219,1.03125 -2.074219,2.2734375 0,1.33593749 1.042969,2.29687499 2.191407,2.29687499 1.21875,0 1.664062,-1.1015625 1.664062,-1.28906249 0,-0.1054688 -0.08203,-0.1171875 -0.128906,-0.1171875 -0.09375,0 -0.117188,0.058594 -0.128906,0.140625 -0.351563,1.01953124 -1.253907,1.01953124 -1.347657,1.01953124 -0.503906,0 -0.902343,-0.29296875 -1.125,-0.66796875 -0.30469,-0.48046879 -0.30469,-1.13671879 -0.30469,-1.48828129 z m 5.047851,-1.6875 h 1.429688 V -4.2879141 H 32.442523 V -6.1277578 H 32.19643 c -0.01172,0.8203125 -0.316407,1.8867187 -1.289063,1.921875 v 0.2226562 h 0.84375 v 2.7539063 c 0,1.21874999 0.925781,1.33593749 1.289063,1.33593749 0.703125,0 0.984375,-0.703125 0.984375,-1.33593749 v -0.5742188 h -0.246094 v 0.5507813 c 0,0.73828124 -0.304688,1.11328124 -0.667969,1.11328124 -0.667969,0 -0.667969,-0.90234374 -0.667969,-1.07812504 z m 3.908204,-0.421875 -1.394532,0.1171875 v 0.3046875 c 0.65625,0 0.738282,0.058594 0.738282,0.5507813 v 2.67187499 c 0,0.45703125 -0.105469,0.45703125 -0.773438,0.45703125 v 0.3046875 c 0.316406,-0.01171875 0.855469,-0.03515625 1.101563,-0.03515625 0.339843,0 0.691406,0.0234375 1.03125,0.03515625 v -0.3046875 c -0.65625,0 -0.703125,-0.0585938 -0.703125,-0.4453125 z m 0.04687,-1.734375 c 0,-0.3164062 -0.246094,-0.5273437 -0.527344,-0.5273437 -0.316406,0 -0.527344,0.2695312 -0.527344,0.5273437 0,0.2695313 0.210938,0.5273438 0.527344,0.5273438 0.28125,0 0.527344,-0.1992188 0.527344,-0.5273438 z m 2.686523,2.15625 h 1.429687 v -0.3046875 h -1.429687 v -1.8398437 h -0.246094 c -0.01172,0.8203125 -0.316406,1.8867187 -1.289062,1.921875 v 0.2226562 h 0.84375 v 2.7539063 c 0,1.21874999 0.925781,1.33593749 1.289062,1.33593749 0.703125,0 0.984375,-0.703125 0.984375,-1.33593749 V -1.8035391 H 40.42006 v 0.5507813 c 0,0.73828124 -0.304687,1.11328124 -0.667968,1.11328124 -0.667969,0 -0.667969,-0.90234374 -0.667969,-1.07812504 z m 3.911133,-0.421875 -1.394531,0.1171875 v 0.3046875 c 0.65625,0 0.738281,0.058594 0.738281,0.5507813 v 2.67187499 c 0,0.45703125 -0.105469,0.45703125 -0.773438,0.45703125 v 0.3046875 c 0.316407,-0.01171875 0.855469,-0.03515625 1.101563,-0.03515625 0.339844,0 0.691406,0.0234375 1.03125,0.03515625 v -0.3046875 c -0.65625,0 -0.703125,-0.0585938 -0.703125,-0.4453125 z m 0.04687,-1.734375 c 0,-0.3164062 -0.246094,-0.5273437 -0.527344,-0.5273437 -0.316406,0 -0.527344,0.2695312 -0.527344,0.5273437 0,0.2695313 0.210938,0.5273438 0.527344,0.5273438 0.28125,0 0.527344,-0.1992188 0.527344,-0.5273438 z m 5.109375,2.8242188 c 0.08203,-0.234375 0.257812,-0.65625 0.914062,-0.6679688 v -0.3046875 c -0.234375,0.011719 -0.515625,0.023437 -0.75,0.023437 -0.234375,0 -0.691406,-0.023437 -0.867187,-0.023437 v 0.3046875 c 0.375,0.011719 0.480469,0.234375 0.480469,0.4335938 0,0.082031 -0.02344,0.1289062 -0.05859,0.234375 l -1.019531,2.54296874 -1.113282,-2.77734374 c -0.05859,-0.140625 -0.05859,-0.1523438 -0.05859,-0.1757813 0,-0.2578125 0.386718,-0.2578125 0.5625,-0.2578125 v -0.3046875 c -0.292969,0 -0.855469,0.023437 -1.078125,0.023437 -0.269532,0 -0.667969,-0.011719 -0.972657,-0.023437 v 0.3046875 c 0.632813,0 0.667969,0.058594 0.796875,0.3632813 l 1.441407,3.53906249 c 0.05859,0.140625 0.07031,0.1875 0.199218,0.1875 0.128907,0 0.175782,-0.08203125 0.210938,-0.1875 z m 1.945312,0.8085937 c 0.05859,-1.4882812 0.902344,-1.734375 1.242188,-1.734375 1.019531,0 1.125,1.3476563 1.125,1.734375 z m -0.01172,0.2109375 h 2.789062 c 0.210938,0 0.246094,0 0.246094,-0.2109375 0,-0.984375 -0.539063,-1.9570312 -1.78125,-1.9570312 -1.160156,0 -2.074219,1.03125 -2.074219,2.2734375 0,1.33593749 1.042969,2.29687499 2.191406,2.29687499 1.21875,0 1.664063,-1.1015625 1.664063,-1.28906249 0,-0.1054688 -0.08203,-0.1171875 -0.128906,-0.1171875 -0.09375,0 -0.117188,0.058594 -0.128907,0.140625 -0.351562,1.01953124 -1.253906,1.01953124 -1.347656,1.01953124 -0.503906,0 -0.902344,-0.29296875 -1.125,-0.66796875 C 50.085102,-1.2879141 50.085102,-1.9441641 50.085102,-2.2957266 Z m 0,0"
       style="fill:#000000;fill-opacity:1;fill-rule:nonzero;stroke:none"
       aria-label="Competitive"
       transform="matrix(1.3333333,0,0,1.3333333,141.82533,46.268)" />
    <path
       id="path14"
       d="m 1.6644063,-3.3038203 v -1.1015625 l -1.38281255,0.1171875 v 0.3046875 c 0.69140625,0 0.77343755,0.070312 0.77343755,0.5625 v 2.66015624 c 0,0.45703125 -0.1054688,0.45703125 -0.77343755,0.45703125 V 8.671875e-4 C 0.6683125,-0.01085156 1.1370625,-0.03428906 1.4183125,-0.03428906 c 0.3984375,0 0.8671875,0 1.265625,0.0351562475 V -0.30382031 H 2.473 c -0.7382812,0 -0.7617187,-0.1171875 -0.7617187,-0.46875 V -2.3077266 c 0,-0.984375 0.421875,-1.875 1.1835937,-1.875 0.058594,0 0.082031,0 0.1054688,0.011719 -0.035156,0.011719 -0.234375,0.1289062 -0.234375,0.3867187 0,0.28125 0.2109375,0.4335938 0.4335937,0.4335938 0.1757813,0 0.421875,-0.1289063 0.421875,-0.4453125 0,-0.3164063 -0.3046875,-0.609375 -0.7265625,-0.609375 -0.7382812,0 -1.0898437,0.6679687 -1.2304687,1.1015623 z m 3.3515625,0.796875 c 0.058594,-1.4882813 0.9023437,-1.734375 1.2421875,-1.734375 1.0195312,0 1.125,1.3476562 1.125,1.734375 z M 5.00425,-2.2960078 h 2.7890625 c 0.2109375,0 0.2460938,0 0.2460938,-0.2109375 0,-0.984375 -0.5390625,-1.9570313 -1.78125,-1.9570313 -1.1601563,0 -2.0742188,1.03125 -2.0742188,2.2734375 0,1.33593754 1.0429688,2.29687504 2.1914063,2.29687504 1.21875,0 1.6640625,-1.1015625 1.6640625,-1.28906254 0,-0.1054687 -0.082031,-0.1171875 -0.1289063,-0.1171875 -0.09375,0 -0.1171875,0.058594 -0.1289062,0.140625 -0.3515625,1.01953129 -1.2539063,1.01953129 -1.3476563,1.01953129 -0.5039062,0 -0.9023437,-0.29296875 -1.125,-0.66796875 C 5.00425,-1.2881953 5.00425,-1.9444453 5.00425,-2.2960078 Z m 5.540039,0.5859375 c -0.8671874,0 -0.8671874,-0.9960938 -0.8671874,-1.2304688 0,-0.2695312 0.011719,-0.5859375 0.1523437,-0.8320312 0.082031,-0.1171875 0.3164067,-0.3984375 0.7148437,-0.3984375 0.867188,0 0.867188,0.9960937 0.867188,1.21875 0,0.2695312 -0.01172,0.5976562 -0.164063,0.84375 -0.08203,0.1171875 -0.304687,0.3984375 -0.703125,0.3984375 z m -1.1601562,0.3867187 c 0,-0.035156 0,-0.2695312 0.1757813,-0.46875 0.3867187,0.28125 0.7968749,0.3046875 0.9843749,0.3046875 0.925781,0 1.605469,-0.6796875 1.605469,-1.453125 0,-0.3632812 -0.152344,-0.7382812 -0.398438,-0.9609375 0.351563,-0.3398437 0.714844,-0.3867187 0.890625,-0.3867187 0.02344,0 0.07031,0 0.105469,0 -0.117187,0.046875 -0.164062,0.1523437 -0.164062,0.2695312 0,0.1757813 0.128906,0.2929688 0.292968,0.2929688 0.09375,0 0.28125,-0.070312 0.28125,-0.2929688 0,-0.1757812 -0.117187,-0.4921875 -0.503906,-0.4921875 -0.199219,0 -0.632812,0.058594 -1.054687,0.46875 -0.421875,-0.328125 -0.84375,-0.3632812 -1.054688,-0.3632812 -0.9257812,0 -1.6171874,0.6914062 -1.6171874,1.453125 0,0.4453125 0.2226562,0.8203125 0.46875,1.03125 -0.1289063,0.1523437 -0.3046875,0.4804687 -0.3046875,0.8203125 0,0.31640624 0.1289062,0.69140624 0.4335937,0.89062499 -0.5976562,0.17578125 -0.9140625,0.59765625 -0.9140625,0.99609375 0,0.71484376 0.984375,1.26562496 2.2031247,1.26562496 1.171875,0 2.203125,-0.5039062 2.203125,-1.28906246 0,-0.33984375 -0.140625,-0.85546875 -0.644531,-1.125 -0.527344,-0.28125 -1.101562,-0.28125 -1.710937,-0.28125 -0.246094,0 -0.6796879,0 -0.7500004,-0.0117188 C 9.5950703,-0.70225781 9.3841328,-1.0069453 9.3841328,-1.3233516 Z m 1.4414062,3.1523438 c -1.0078124,0 -1.6992187,-0.515625 -1.6992187,-1.04296876 0,-0.45703125 0.375,-0.8203125 0.8203125,-0.85546875 H 10.53257 c 0.855469,0 1.96875,0 1.96875,0.85546875 0,0.53906246 -0.703125,1.04296876 -1.675781,1.04296876 z m 4.242188,-6.234375 -1.394532,0.1171875 v 0.3046875 c 0.65625,0 0.738282,0.058594 0.738282,0.5507812 v 2.67187504 c 0,0.45703125 -0.105469,0.45703125 -0.773438,0.45703125 V 8.671875e-4 C 13.954445,-0.01085156 14.493508,-0.03428906 14.739602,-0.03428906 c 0.339843,0 0.691406,0.0234375 1.03125,0.0351562475 V -0.30382031 c -0.65625,0 -0.703125,-0.0585938 -0.703125,-0.4453125 z m 0.04687,-1.734375 c 0,-0.3164063 -0.246094,-0.5273438 -0.527344,-0.5273438 -0.316406,0 -0.527344,0.2695313 -0.527344,0.5273438 0,0.2695312 0.210938,0.5273437 0.527344,0.5273437 0.28125,0 0.527344,-0.1992187 0.527344,-0.5273437 z m 5.651367,4.0078125 c 0,-1.2773438 -0.996094,-2.3320313 -2.191406,-2.3320313 -1.253907,0 -2.214844,1.0898438 -2.214844,2.3320313 0,1.28906249 1.03125,2.23828124 2.203125,2.23828124 1.207031,0 2.203125,-0.97265625 2.203125,-2.23828124 z m -2.191406,1.99218749 c -0.433594,0 -0.867188,-0.2109375 -1.136719,-0.66796875 -0.257813,-0.43359374 -0.257813,-1.04296874 -0.257813,-1.40625004 0,-0.3867187 0,-0.9257812 0.246094,-1.359375 0.269531,-0.4570312 0.738281,-0.6679687 1.136719,-0.6679687 0.433594,0 0.867187,0.2226562 1.125,0.6445312 0.257812,0.4335938 0.257812,1.0078125 0.257812,1.3828125 0,0.3632813 0,0.9023438 -0.222656,1.33593754 -0.222656,0.4453125 -0.65625,0.73828125 -1.148437,0.73828125 z M 22.1605,-3.4210078 v 2.66015624 c 0,0.45703125 -0.117187,0.45703125 -0.785156,0.45703125 V 8.671875e-4 c 0.351562,-0.0117187475 0.855469,-0.0351562475 1.125,-0.0351562475 0.257812,0 0.785156,0.0234375 1.113281,0.0351562475 V -0.30382031 c -0.65625,0 -0.773437,0 -0.773437,-0.45703125 V -2.5889766 c 0,-1.03125 0.714843,-1.59375 1.347656,-1.59375 0.621094,0 0.738281,0.5390625 0.738281,1.1015625 v 2.32031254 c 0,0.45703125 -0.117187,0.45703125 -0.773437,0.45703125 V 8.671875e-4 c 0.339843,-0.0117187475 0.855468,-0.0351562475 1.125,-0.0351562475 0.257812,0 0.773437,0.0234375 1.113281,0.0351562475 V -0.30382031 c -0.515625,0 -0.773438,0 -0.785156,-0.3046875 V -2.5069453 c 0,-0.8554688 0,-1.171875 -0.304688,-1.5234375 -0.140625,-0.1757813 -0.46875,-0.375 -1.042969,-0.375 -0.726562,0 -1.195312,0.4335937 -1.476562,1.0546875 v -1.0546875 l -1.40625,0.1171875 v 0.3046875 c 0.703125,0 0.785156,0.070312 0.785156,0.5625 z m 0,0"
       style="fill:#000000;fill-opacity:1;fill-rule:nonzero;stroke:none"
       aria-label="region"
       transform="matrix(1.3333333,0,0,1.3333333,159.70267,61.284)" />
  </g>
</svg>
