<?xml version="1.0" encoding="UTF-8" standalone="no"?>
<!-- Created with Inkscape (http://www.inkscape.org/) -->

<svg
   version="1.1"
   id="svg1"
   width="492.77866"
   height="122.952"
   viewBox="0 0 492.77866 122.952"
   sodipodi:docname="fig-hotelling-movement-location.pdf"
   xmlns:inkscape="http://www.inkscape.org/namespaces/inkscape"
   xmlns:sodipodi="http://sodipodi.sourceforge.net/DTD/sodipodi-0.dtd"
   xmlns="http://www.w3.org/2000/svg"
   xmlns:svg="http://www.w3.org/2000/svg">
  <defs
     id="defs1" />
  <sodipodi:namedview
     id="namedview1"
     pagecolor="#ffffff"
     bordercolor="#000000"
     borderopacity="0.25"
     inkscape:showpageshadow="2"
     inkscape:pageopacity="0.0"
     inkscape:pagecheckerboard="0"
     inkscape:deskcolor="#d1d1d1">
    <inkscape:page
       x="0"
       y="0"
       inkscape:label="1"
       id="page1"
       width="492.77866"
       height="122.952"
       margin="0"
       bleed="0" />
  </sodipodi:namedview>
  <g
     id="g1"
     inkscape:groupmode="layer"
     inkscape:label="1">
    <path
       id="path1"
       d="M 0,0 H 340.16171"
       style="fill:none;stroke:#000000;stroke-width:0.79701;stroke-linecap:round;stroke-linejoin:miter;stroke-miterlimit:10;stroke-dasharray:none;stroke-opacity:1"
       transform="matrix(1.3333333,0,0,-1.3333333,18.418667,66.5)" />
    <path
       id="path2"
       d="M 1.99255,0 C 1.99255,1.10046 1.10046,1.99255 0,1.99255 -1.10046,1.99255 -1.99255,1.10046 -1.99255,0 c 0,-1.10046 0.89209,-1.99255 1.99255,-1.99255 1.10046,0 1.99255,0.89209 1.99255,1.99255 z"
       style="fill:#000000;fill-opacity:1;fill-rule:nonzero;stroke:none"
       transform="matrix(1.3333333,0,0,-1.3333333,18.418667,66.5)" />
    <path
       id="path3"
       d="m 172.07341,0 c 0,1.10046 -0.89209,1.99255 -1.99255,1.99255 -1.10048,0 -1.99256,-0.89209 -1.99256,-1.99255 0,-1.10046 0.89208,-1.99255 1.99256,-1.99255 1.10046,0 1.99255,0.89209 1.99255,1.99255 z"
       style="fill:#000000;fill-opacity:1;fill-rule:nonzero;stroke:none"
       transform="matrix(1.3333333,0,0,-1.3333333,18.418667,66.5)" />
    <path
       id="path4"
       d="m 342.15427,0 c 0,1.10046 -0.89209,1.99255 -1.99256,1.99255 -1.10048,0 -1.99255,-0.89209 -1.99255,-1.99255 0,-1.10046 0.89207,-1.99255 1.99255,-1.99255 1.10047,0 1.99256,0.89209 1.99256,1.99255 z"
       style="fill:#000000;fill-opacity:1;fill-rule:nonzero;stroke:none"
       transform="matrix(1.3333333,0,0,-1.3333333,18.418667,66.5)" />
    <path
       id="path5"
       d="m 4.5834844,-3.1865625 c 0,-0.796875 -0.046875,-1.59375 -0.3984375,-2.3320313 -0.4570313,-0.9609375 -1.2773438,-1.1132812 -1.6875,-1.1132812 -0.5976563,0 -1.3359375,0.2578125 -1.73437503,1.1835937 -0.328125,0.6914063 -0.375,1.4648438 -0.375,2.2617188 0,0.75 0.046875,1.640625 0.4453125,2.40234375 0.43359373,0.80859375 1.16015623,1.0078125 1.65234373,1.0078125 0.5390625,0 1.2890625,-0.2109375 1.734375,-1.16015625 0.3164063,-0.6914063 0.3632813,-1.4648438 0.3632813,-2.25 z m -2.0976563,3.1875 c -0.3867187,0 -0.984375,-0.24609375 -1.1601562,-1.2070313 C 1.2202031,-1.80375 1.2202031,-2.7178125 1.2202031,-3.30375 c 0,-0.6445313 0,-1.3007813 0.082031,-1.8398438 0.1875,-1.1835937 0.9257812,-1.265625 1.1835937,-1.265625 0.328125,0 0.984375,0.1757813 1.171875,1.1601563 0.09375,0.5625 0.09375,1.3125 0.09375,1.9453125 0,0.75 0,1.4179687 -0.1054687,2.0625 -0.1523435,0.9375 -0.7148435,1.2421875 -1.160156,1.2421875 z m 0,0"
       style="fill:#000000;fill-opacity:1;fill-rule:nonzero;stroke:none"
       aria-label="0"
       transform="matrix(1.3333333,0,0,1.3333333,7.084,70.78)" />
    <path
       id="path6"
       d="m 3.72775,-6.0231406 c 0.09375,-0.3632813 0.1171875,-0.46875 1.0546875,-0.46875 0.3046875,0 0.375,0 0.375,-0.1875 0,-0.1289063 -0.1054687,-0.1289063 -0.1523437,-0.1289063 -0.328125,0 -1.1484375,0.035156 -1.4765625,0.035156 -0.3046875,0 -1.03125,-0.035156 -1.3242188,-0.035156 -0.070312,0 -0.1875,0 -0.1875,0.1992188 0,0.1171875 0.082031,0.1171875 0.28125,0.1171875 0.011719,0 0.1992188,0 0.375,0.011719 0.1757813,0.023437 0.2695313,0.035156 0.2695313,0.1640625 0,0.035156 -0.011719,0.070312 -0.046875,0.1875 l -1.3359375,5.35546877 c -0.09375,0.38671875 -0.1171875,0.46875 -0.9023438,0.46875 -0.1640625,0 -0.26953125,0 -0.26953125,0.19921875 0,0.105468755 0.09375,0.105468755 0.26953125,0.105468755 H 5.274625 c 0.234375,0 0.2460938,0 0.3046875,-0.164062505 L 6.3644688,-2.3200156 c 0.046875,-0.1054688 0.046875,-0.1289063 0.046875,-0.140625 0,-0.035156 -0.035156,-0.1054688 -0.1289063,-0.1054688 -0.082031,0 -0.09375,0.046875 -0.1640625,0.2109375 -0.3398437,0.9140625 -0.7734375,2.05078127 -2.4960937,2.05078127 h -0.9375 c -0.140625,0 -0.1640625,0 -0.2226563,-0.0117188 -0.1054687,-0.0117188 -0.1289062,-0.0234375 -0.1289062,-0.10546875 0,-0.0234375 0,-0.046875 0.046875,-0.22265625 z m 0,0"
       style="fill:#000000;fill-opacity:1;fill-rule:nonzero;stroke:none"
       aria-label="L"
       transform="matrix(1.3333333,0,0,1.3333333,476.65467,71.038667)" />
    <path
       id="path7"
       d="m 0,15.59082 c 0.59773,1.19554 1.99255,1.99255 3.9851,1.99255 h 77.07021 c 1.99256,0 3.38736,0.79702 3.98511,1.99256 0.59775,-1.19554 1.99255,-1.99256 3.98511,-1.99256 h 77.07022 c 1.99255,0 3.38736,-0.79701 3.98511,-1.99255"
       style="fill:none;stroke:#000000;stroke-width:0.3985;stroke-linecap:round;stroke-linejoin:miter;stroke-miterlimit:10;stroke-dasharray:none;stroke-opacity:1"
       transform="matrix(1.3333333,0,0,-1.3333333,18.418667,66.5)" />
    <path
       id="path8"
       d="m 3.7145703,-3.7609219 c -0.1757812,-0.375 -0.46875,-0.6445312 -0.9140625,-0.6445312 -1.171875,0 -2.40234374,1.4648437 -2.40234374,2.9179687 0,0.93750002 0.55078125,1.59375002 1.32421874,1.59375002 0.1992188,0 0.703125,-0.03515625 1.3007813,-0.73828125 0.070312,0.41015625 0.421875,0.73828125 0.9023437,0.73828125 0.3515625,0 0.5742188,-0.22265625 0.7382813,-0.5390625 0.1640625,-0.36328125 0.2929687,-0.97265622 0.2929687,-0.99609372 0,-0.09375 -0.082031,-0.09375 -0.1171875,-0.09375 -0.09375,0 -0.1054687,0.035156 -0.140625,0.1757812 -0.1640625,0.64453127 -0.3515625,1.24218752 -0.75,1.24218752 -0.2695312,0 -0.3046875,-0.2578125 -0.3046875,-0.45703125 0,-0.22265625 0.023437,-0.3046875 0.1289063,-0.73828127 0.1171875,-0.421875 0.1289062,-0.5273437 0.2226562,-0.9023437 l 0.3515625,-1.3945313 c 0.070312,-0.28125 0.070312,-0.2929687 0.070312,-0.3398437 0,-0.1640625 -0.1171875,-0.2695313 -0.28125,-0.2695313 -0.2460937,0 -0.3867187,0.2226563 -0.4218745,0.4453125 z m -0.6445312,2.578125 c -0.046875,0.1757813 -0.046875,0.19921877 -0.1992188,0.36328127 -0.4453125,0.55078125 -0.84375,0.71484375 -1.125,0.71484375 -0.5039062,0 -0.6445312,-0.55078125 -0.6445312,-0.93750002 0,-0.5039062 0.328125,-1.7226562 0.5507812,-2.1796875 0.3046875,-0.5976562 0.7617188,-0.9609375 1.1601563,-0.9609375 0.6445312,0 0.7851562,0.8203125 0.7851562,0.8789063 0,0.058594 -0.023437,0.1171875 -0.035156,0.1640625 z m 0,0"
       style="fill:#000000;fill-opacity:1;fill-rule:nonzero;stroke:none"
       aria-label="a"
       transform="matrix(1.3333333,0,0,1.3333333,128.29333,35.288)" />
    <path
       id="path9"
       d="m 170.08086,15.59082 c 0.59773,1.19554 1.99255,1.99255 3.9851,1.99255 h 77.07021 c 1.99255,0 3.38737,0.79702 3.98511,1.99256 0.59774,-1.19554 1.99255,-1.99256 3.9851,-1.99256 h 77.07022 c 1.99256,0 3.38736,-0.79701 3.98511,-1.99255"
       style="fill:none;stroke:#000000;stroke-width:0.3985;stroke-linecap:round;stroke-linejoin:miter;stroke-miterlimit:10;stroke-dasharray:none;stroke-opacity:1"
       transform="matrix(1.3333333,0,0,-1.3333333,18.418667,66.5)" />
    <path
       id="path10"
       d="m 2.3798281,-6.8073672 c 0,0 0,-0.1054687 -0.1289062,-0.1054687 -0.2226563,0 -0.9492188,0.082031 -1.21875,0.1054687 -0.0703125,0 -0.18750002,0.011719 -0.18750002,0.1992188 0,0.1171875 0.09375,0.1171875 0.24609372,0.1171875 0.46875,0 0.4921875,0.070312 0.4921875,0.1640625 0,0.070312 -0.082031,0.4101562 -0.140625,0.6210937 l -0.80859372,3.2460938 c -0.12890625,0.5039062 -0.1640625,0.65625 -0.1640625,1.0078125 0,0.94921871 0.52734375,1.55859371 1.26562502,1.55859371 1.171875,0 2.4023437,-1.47656251 2.4023437,-2.91796871 0,-0.9023438 -0.5273437,-1.59375 -1.3242187,-1.59375 -0.4570313,0 -0.8671875,0.2929687 -1.171875,0.5976562 z m -0.9375,3.7734375 c 0.058594,-0.2226562 0.058594,-0.2460937 0.1523438,-0.3515625 0.4921875,-0.6445312 0.9375,-0.796875 1.1953125,-0.796875 0.3632812,0 0.6328125,0.2929688 0.6328125,0.9375 0,0.5859375 -0.328125,1.734375 -0.515625,2.109375 -0.328125,0.66796876 -0.7851563,1.03125001 -1.171875,1.03125001 -0.3398438,0 -0.6679688,-0.26953125 -0.6679688,-1.00781251 0,-0.1875 0,-0.3867187 0.1640625,-1.0078125 z m 0,0"
       style="fill:#000000;fill-opacity:1;fill-rule:nonzero;stroke:none"
       aria-label="b"
       transform="matrix(1.3333333,0,0,1.3333333,355.72533,37.041333)" />
    <path
       id="path11"
       d="M 5.8009297,-6.7739922 H 0.32827344 v 0.3046875 h 0.234375 c 0.77343746,0 0.79687496,0.1171875 0.79687496,0.46875 v 5.22656251 c 0,0.3515625 -0.023437,0.46875 -0.79687496,0.46875 h -0.234375 V -5.546875e-4 C 0.67983594,-0.03571094 1.4532734,-0.03571094 1.8399922,-0.03571094 c 0.4101562,0 1.3125,0 1.6757812,0.0351562525 V -0.30524219 h -0.328125 c -0.9492187,0 -0.9492187,-0.12890625 -0.9492187,-0.48046875 V -3.2349297 h 0.8554687 c 0.9609375,0 1.0546875,0.3164063 1.0546875,1.1601563 H 4.4063984 V -4.7114922 H 4.1485859 c 0,0.8320313 -0.09375,1.1601563 -1.0546875,1.1601563 H 2.2384297 v -2.5195313 c 0,-0.328125 0.023437,-0.3984375 0.4921875,-0.3984375 h 1.1953125 c 1.4882812,0 1.7460937,0.5625 1.8984375,1.9335938 h 0.2578125 z m 2.4609375,2.3671875 -1.3945313,0.1171875 v 0.3046875 c 0.65625,0 0.7382813,0.058594 0.7382813,0.5507813 v 2.67187496 c 0,0.45703125 -0.1054688,0.45703125 -0.7734375,0.45703125 V -5.546875e-4 C 7.1485859,-0.01227344 7.6876484,-0.03571094 7.9337422,-0.03571094 c 0.3398437,0 0.6914062,0.0234375 1.03125,0.0351562525 V -0.30524219 c -0.65625,0 -0.703125,-0.0585938 -0.703125,-0.4453125 z m 0.046875,-1.734375 c 0,-0.3164062 -0.2460938,-0.5273437 -0.5273438,-0.5273437 -0.3164062,0 -0.5273437,0.2695312 -0.5273437,0.5273437 0,0.2695313 0.2109375,0.5273438 0.5273437,0.5273438 0.28125,0 0.5273438,-0.1992188 0.5273438,-0.5273438 z m 2.6279298,2.8359375 v -1.1015625 l -1.3828126,0.1171875 v 0.3046875 c 0.6914066,0 0.7734376,0.070312 0.7734376,0.5625 v 2.66015626 c 0,0.45703125 -0.105469,0.45703125 -0.7734376,0.45703125 V -5.546875e-4 C 9.9405781,-0.01227344 10.409328,-0.03571094 10.690578,-0.03571094 c 0.398438,0 0.867188,0 1.265625,0.0351562525 V -0.30524219 h -0.210937 c -0.738282,0 -0.761719,-0.1171875 -0.761719,-0.46875 V -2.3091484 c 0,-0.984375 0.421875,-1.875 1.183594,-1.875 0.05859,0 0.08203,0 0.105468,0.011719 -0.03516,0.011719 -0.234375,0.1289063 -0.234375,0.3867188 0,0.28125 0.210938,0.4335937 0.433594,0.4335937 0.175781,0 0.421875,-0.1289062 0.421875,-0.4453125 0,-0.3164062 -0.304687,-0.609375 -0.726562,-0.609375 -0.738282,0 -1.089844,0.6679688 -1.230469,1.1015622 z m 3.339844,-0.1171875 v 2.66015626 c 0,0.45703125 -0.117188,0.45703125 -0.785157,0.45703125 v 0.3046875025 c 0.351563,-0.0117187525 0.855469,-0.0351562525 1.125,-0.0351562525 0.257813,0 0.785157,0.0234375 1.113282,0.0351562525 V -0.30524219 c -0.65625,0 -0.773438,0 -0.773438,-0.45703125 V -2.5903984 c 0,-1.03125 0.714844,-1.59375 1.347656,-1.59375 0.621094,0 0.738282,0.5390625 0.738282,1.1015625 v 2.32031246 c 0,0.45703125 -0.117188,0.45703125 -0.773438,0.45703125 v 0.3046875025 c 0.339844,-0.0117187525 0.855469,-0.0351562525 1.125,-0.0351562525 0.257813,0 0.773438,0.0234375 1.113281,0.0351562525 V -0.30524219 c -0.667968,0 -0.785156,0 -0.785156,-0.45703125 V -2.5903984 c 0,-1.03125 0.714844,-1.59375 1.347656,-1.59375 0.632813,0 0.738282,0.5390625 0.738282,1.1015625 v 2.32031246 c 0,0.45703125 -0.105469,0.45703125 -0.773438,0.45703125 v 0.3046875025 c 0.351563,-0.0117187525 0.855469,-0.0351562525 1.125,-0.0351562525 0.257813,0 0.773438,0.0234375 1.113281,0.0351562525 V -0.30524219 c -0.515625,0 -0.761718,0 -0.773437,-0.3046875 V -2.5083672 c 0,-0.8554687 0,-1.171875 -0.316406,-1.5234375 -0.128907,-0.1757812 -0.46875,-0.375 -1.042969,-0.375 -0.832031,0 -1.277344,0.5976563 -1.441406,0.984375 -0.140625,-0.8671875 -0.878907,-0.984375 -1.324219,-0.984375 -0.726563,0 -1.195313,0.4335938 -1.476563,1.0546875 v -1.0546875 l -1.40625,0.1171875 v 0.3046875 c 0.703125,0 0.785157,0.070312 0.785157,0.5625 z m 9.272461,1.4882813 c 0.222656,0.035156 1.03125,0.1992187 1.03125,0.9140625 0,0.51562496 -0.351563,0.91406246 -1.125,0.91406246 -0.832032,0 -1.195313,-0.57421875 -1.382813,-1.41796876 -0.03516,-0.1289062 -0.03516,-0.1757812 -0.140625,-0.1757812 -0.128906,0 -0.128906,0.070312 -0.128906,0.2578125 v 1.31249996 c 0,0.1640625 0,0.234375 0.105469,0.234375 0.05859,0 0.07031,0 0.257812,-0.19921875 0.01172,-0.01171875 0.01172,-0.03515625 0.199219,-0.22265625 0.433594,0.421875 0.878906,0.421875 1.089844,0.421875 1.148437,0 1.605468,-0.66796875 1.605468,-1.38281246 0,-0.5273438 -0.292968,-0.8203125 -0.421875,-0.9492188 -0.328125,-0.3164062 -0.714843,-0.3984375 -1.136718,-0.46875 -0.550782,-0.1171875 -1.21875,-0.2460937 -1.21875,-0.8203125 0,-0.3515625 0.257812,-0.7617187 1.113281,-0.7617187 1.101562,0 1.148437,0.9023437 1.171875,1.2070312 0,0.09375 0.09375,0.09375 0.117187,0.09375 0.128907,0 0.128907,-0.046875 0.128907,-0.2460937 v -0.9960938 c 0,-0.1757812 0,-0.2460937 -0.117188,-0.2460937 -0.04687,0 -0.07031,0 -0.199219,0.1171875 -0.02344,0.046875 -0.128906,0.1289062 -0.164062,0.1640625 -0.375,-0.28125 -0.785156,-0.28125 -0.9375,-0.28125 -1.21875,0 -1.59375,0.6679687 -1.59375,1.2304687 0,0.3398438 0.164062,0.6210938 0.433594,0.84375 0.316406,0.2578125 0.597656,0.3164063 1.3125,0.4570313 z m 8.103515,-4.4414063 c 0,-0.234375 0,-0.2578125 -0.234375,-0.2578125 -0.609375,0.6328125 -1.488281,0.6328125 -1.804687,0.6328125 v 0.3164063 c 0.199218,0 0.785156,0 1.300781,-0.2578125 v 5.15624996 c 0,0.3515625 -0.03516,0.48046875 -0.925781,0.48046875 H 29.672023 V -5.546875e-4 C 30.023586,-0.03571094 30.879055,-0.03571094 31.277492,-0.03571094 c 0.398438,0 1.265625,0 1.617188,0.0351562525 V -0.30524219 h -0.316407 c -0.902343,0 -0.925781,-0.1171875 -0.925781,-0.48046875 z m 8.695313,5.61328126 c 0.03516,0.3984375 0.304687,0.8203125 0.773437,0.8203125 0.210938,0 0.820313,-0.140625 0.820313,-0.94921875 V -1.4419609 h -0.246094 v 0.55078121 c 0,0.5859375 -0.246094,0.64453125 -0.363281,0.64453125 -0.328125,0 -0.363282,-0.45703125 -0.363282,-0.50390625 V -2.7427422 c 0,-0.4101562 0,-0.8085937 -0.363281,-1.171875 -0.386719,-0.3867187 -0.878906,-0.5507812 -1.359375,-0.5507812 -0.820312,0 -1.511719,0.46875 -1.511719,1.125 0,0.3046875 0.199219,0.46875 0.457032,0.46875 0.28125,0 0.46875,-0.1992188 0.46875,-0.4570313 0,-0.1171875 -0.05859,-0.4453125 -0.515625,-0.4570312 0.269531,-0.3515625 0.761718,-0.4570313 1.078125,-0.4570313 0.492187,0 1.054687,0.3867188 1.054687,1.2773438 v 0.3632812 c -0.503906,0.035156 -1.207031,0.058594 -1.828125,0.3632813 -0.75,0.3398437 -0.996094,0.8554687 -0.996094,1.28906246 0,0.80859375 0.960938,1.0546875 1.59375,1.0546875 0.65625,0 1.113282,-0.3984375 1.300782,-0.8671875 z m -0.07031,-1.62890626 v 0.9960938 c 0,0.94921871 -0.714844,1.28906246 -1.160156,1.28906246 -0.492188,0 -0.902344,-0.3515625 -0.902344,-0.85546875 0,-0.53906251 0.421875,-1.37109371 2.0625,-1.42968751 z m 2.835938,-1.03125 v 2.66015626 c 0,0.45703125 -0.117188,0.45703125 -0.785157,0.45703125 v 0.3046875025 c 0.351563,-0.0117187525 0.855469,-0.0351562525 1.125,-0.0351562525 0.257813,0 0.785157,0.0234375 1.113282,0.0351562525 V -0.30524219 c -0.65625,0 -0.773438,0 -0.773438,-0.45703125 V -2.5903984 c 0,-1.03125 0.714844,-1.59375 1.347656,-1.59375 0.621094,0 0.738282,0.5390625 0.738282,1.1015625 v 2.32031246 c 0,0.45703125 -0.117188,0.45703125 -0.773438,0.45703125 v 0.3046875025 c 0.339844,-0.0117187525 0.855469,-0.0351562525 1.125,-0.0351562525 0.257813,0 0.773438,0.0234375 1.113281,0.0351562525 V -0.30524219 c -0.515625,0 -0.773437,0 -0.785156,-0.3046875 V -2.5083672 c 0,-0.8554687 0,-1.171875 -0.304687,-1.5234375 -0.140625,-0.1757812 -0.46875,-0.375 -1.042969,-0.375 -0.726563,0 -1.195313,0.4335938 -1.476563,1.0546875 v -1.0546875 l -1.40625,0.1171875 v 0.3046875 c 0.703125,0 0.785157,0.070312 0.785157,0.5625 z m 8.217773,2.87109376 v 0.65625 L 52.796047,-5.546875e-4 V -0.30524219 c -0.703125,0 -0.773438,-0.0703125 -0.773438,-0.5625 V -6.9146172 l -1.441406,0.1054688 v 0.3164062 c 0.703125,0 0.785156,0.070312 0.785156,0.5507813 v 2.15625 c -0.292968,-0.3632813 -0.726562,-0.6210938 -1.265625,-0.6210938 -1.171875,0 -2.214843,0.984375 -2.214843,2.2617188 0,1.26562496 0.972656,2.24999996 2.109375,2.24999996 0.644531,0 1.089843,-0.33984375 1.335937,-0.65625 z m 0,-2.67187496 v 2.0507812 c 0,0.17578126 0,0.19921876 -0.105469,0.36328126 -0.304687,0.48046875 -0.75,0.703125 -1.183593,0.703125 -0.445313,0 -0.796875,-0.2578125 -1.042969,-0.64453125 -0.257813,-0.41015621 -0.292969,-0.97265621 -0.292969,-1.38281251 0,-0.3632812 0.02344,-0.9609375 0.316406,-1.4179687 0.210938,-0.3046875 0.585938,-0.6328125 1.125,-0.6328125 0.351563,0 0.761719,0.1523437 1.078125,0.5976562 0.105469,0.1640625 0.105469,0.1875 0.105469,0.3632813 z m 6.333984,2.46093746 1.054688,-1.03124996 c 1.558594,-1.3710938 2.15625,-1.9101563 2.15625,-2.90625 0,-1.1367188 -0.902344,-1.9335938 -2.121094,-1.9335938 -1.125,0 -1.851562,0.9140625 -1.851562,1.8046875 0,0.5507813 0.492187,0.5507813 0.527343,0.5507813 0.164063,0 0.515625,-0.1171875 0.515625,-0.5273438 0,-0.2578125 -0.1875,-0.515625 -0.527343,-0.515625 -0.08203,0 -0.105469,0 -0.128907,0.011719 0.222657,-0.6445313 0.761719,-1.0195313 1.335938,-1.0195313 0.914062,0 1.335937,0.8085938 1.335937,1.6289063 0,0.796875 -0.492187,1.5820312 -1.042968,2.203125 l -1.910157,2.13281246 c -0.105468,0.10546875 -0.105468,0.12890625 -0.105468,0.3632812525 h 3.691406 L 60.876125,-1.7349297 h -0.257813 c -0.04687,0.3046875 -0.117187,0.73828126 -0.210937,0.89062501 -0.07031,0.0820313 -0.726563,0.0820313 -0.949219,0.0820313 z m 0,0"
       style="fill:#000000;fill-opacity:1;fill-rule:nonzero;stroke:none"
       aria-label="Firms1and2"
       transform="matrix(1.3333333,0,0,1.3333333,204.26933,16.309333)" />
    <path
       id="path12"
       d="M 170.08086,34.01608 V 5.39398"
       style="fill:none;stroke:#000000;stroke-width:0.3985;stroke-linecap:round;stroke-linejoin:miter;stroke-miterlimit:10;stroke-dasharray:none;stroke-opacity:1"
       transform="matrix(1.3333333,0,0,-1.3333333,18.418667,66.5)" />
    <path
       id="path13"
       d="M 1.99252,0 -1.19551,1.59401 0,0 -1.19551,-1.59401"
       style="fill:#000000;fill-opacity:1;fill-rule:nonzero;stroke:none"
       transform="matrix(0,1.3333333,1.3333333,0,245.19315,59.308027)" />
    <path
       id="path14"
       d="M 2.4037969,-6.5860703 C 2.3100469,-6.8087266 2.2866094,-6.8087266 2.0522344,-6.8087266 H 0.36473438 v 0.3164063 h 0.24609375 c 0.76171877,0 0.78515627,0.1054687 0.78515627,0.46875 v 4.9804687 c 0,0.26953129 0,0.73828129 -1.03125002,0.73828129 V -1.328125e-4 C 0.71629688,-0.01185156 1.2084844,-0.03528906 1.5366094,-0.03528906 c 0.328125,0 0.8203125,0.0234375 1.1601562,0.0351562475 V -0.30482031 c -1.0195312,0 -1.0195312,-0.46875 -1.0195312,-0.73828129 v -5.3671875 h 0.011719 l 2.4023438,6.18750004 c 0.046875,0.12890625 0.09375,0.2226562475 0.1992187,0.2226562475 0.1054688,0 0.1289063,-0.0820312475 0.1757813,-0.1874999975 L 6.9155156,-6.4923203 h 0.011719 v 5.71874999 c 0,0.3515625 -0.023437,0.46875 -0.7851563,0.46875 H 5.8959844 v 0.3046874975 c 0.375,-0.0351562475 1.0429687,-0.0351562475 1.4414062,-0.0351562475 0.3867188,0 1.0546875,0 1.4179688,0.0351562475 V -0.30482031 h -0.234375 c -0.7734375,0 -0.7851563,-0.1171875 -0.7851563,-0.46875 V -6.0235703 c 0,-0.3632813 0.011719,-0.46875 0.7851563,-0.46875 h 0.234375 V -6.8087266 H 7.0795781 c -0.2695312,0 -0.2695312,0.011719 -0.3398437,0.1992188 l -2.1796875,5.6015625 z m 10.0458981,5.82421874 c 0.03516,0.3984375 0.304688,0.8203125 0.773438,0.8203125 0.210937,0 0.820312,-0.140625 0.820312,-0.94921875 V -1.4415391 h -0.246093 v 0.55078129 c 0,0.5859375 -0.246094,0.64453125 -0.363282,0.64453125 -0.328125,0 -0.363281,-0.45703125 -0.363281,-0.50390625 V -2.7423203 c 0,-0.4101563 0,-0.8085938 -0.363281,-1.171875 -0.386719,-0.3867188 -0.878906,-0.5507813 -1.359375,-0.5507813 -0.820313,0 -1.5117189,0.46875 -1.5117189,1.125 0,0.3046875 0.1992189,0.46875 0.4570309,0.46875 0.28125,0 0.46875,-0.1992187 0.46875,-0.4570312 0,-0.1171875 -0.05859,-0.4453125 -0.515625,-0.4570313 0.269532,-0.3515625 0.761719,-0.4570312 1.078125,-0.4570312 0.492188,0 1.054688,0.3867187 1.054688,1.2773437 v 0.3632813 c -0.503906,0.035156 -1.207031,0.058594 -1.828125,0.3632812 -0.7500002,0.3398438 -0.9960939,0.8554688 -0.9960939,1.28906254 0,0.80859375 0.9609379,1.0546875 1.5937499,1.0546875 0.65625,0 1.113281,-0.3984375 1.300781,-0.8671875 z m -0.07031,-1.62890624 v 0.9960937 c 0,0.94921879 -0.714844,1.28906254 -1.160156,1.28906254 -0.492188,0 -0.902344,-0.3515625 -0.902344,-0.85546875 0,-0.53906249 0.421875,-1.37109379 2.0625,-1.42968749 z m 3.398437,-0.9140625 v -1.1015625 l -1.382812,0.1171875 v 0.3046875 c 0.691406,0 0.773437,0.070312 0.773437,0.5625 v 2.66015624 c 0,0.45703125 -0.105468,0.45703125 -0.773437,0.45703125 V -1.328125e-4 C 14.781727,-0.01185156 15.250477,-0.03528906 15.531727,-0.03528906 c 0.398437,0 0.867187,0 1.265625,0.0351562475 V -0.30482031 h -0.210938 c -0.738281,0 -0.761719,-0.1171875 -0.761719,-0.46875 V -2.3087266 c 0,-0.984375 0.421875,-1.875 1.183594,-1.875 0.05859,0 0.08203,0 0.105469,0.011719 -0.03516,0.011719 -0.234375,0.1289062 -0.234375,0.3867187 0,0.28125 0.210937,0.4335938 0.433594,0.4335938 0.175781,0 0.421875,-0.1289063 0.421875,-0.4453125 0,-0.3164063 -0.304688,-0.609375 -0.726563,-0.609375 -0.738281,0 -1.089844,0.6679687 -1.230469,1.1015625 z m 4.453125,1.59375 c -0.867187,0 -0.867187,-0.9960938 -0.867187,-1.2304688 0,-0.2695312 0.01172,-0.5859375 0.152344,-0.8320312 0.08203,-0.1171875 0.316406,-0.3984375 0.714843,-0.3984375 0.867188,0 0.867188,0.9960937 0.867188,1.21875 0,0.2695312 -0.01172,0.5976562 -0.164063,0.84375 -0.08203,0.1171875 -0.304687,0.3984375 -0.703125,0.3984375 z m -1.160156,0.3867187 c 0,-0.035156 0,-0.2695312 0.175781,-0.46875 0.386719,0.28125 0.796875,0.3046875 0.984375,0.3046875 0.925782,0 1.605469,-0.6796875 1.605469,-1.453125 0,-0.3632812 -0.152344,-0.7382812 -0.398437,-0.9609375 0.351562,-0.3398437 0.714843,-0.3867187 0.890625,-0.3867187 0.02344,0 0.07031,0 0.105468,0 -0.117187,0.046875 -0.164062,0.1523437 -0.164062,0.2695312 0,0.1757813 0.128906,0.2929688 0.292969,0.2929688 0.09375,0 0.28125,-0.070312 0.28125,-0.2929688 0,-0.1757812 -0.117188,-0.4921875 -0.503907,-0.4921875 -0.199218,0 -0.632812,0.058594 -1.054687,0.46875 -0.421875,-0.328125 -0.84375,-0.3632812 -1.054688,-0.3632812 -0.925781,0 -1.617187,0.6914062 -1.617187,1.453125 0,0.4453125 0.222656,0.8203125 0.46875,1.03125 -0.128906,0.1523437 -0.304688,0.4804687 -0.304688,0.8203125 0,0.31640624 0.128907,0.69140624 0.433594,0.89062499 -0.597656,0.17578125 -0.914062,0.59765625 -0.914062,0.99609375 0,0.71484376 0.984375,1.26562496 2.203125,1.26562496 1.171875,0 2.203125,-0.5039062 2.203125,-1.28906246 0,-0.33984375 -0.140625,-0.85546875 -0.644532,-1.125 -0.527343,-0.28125 -1.101562,-0.28125 -1.710937,-0.28125 -0.246094,0 -0.679688,0 -0.75,-0.0117188 -0.316406,-0.046875 -0.527344,-0.35156254 -0.527344,-0.66796874 z m 1.441406,3.1523438 c -1.007812,0 -1.699218,-0.515625 -1.699218,-1.04296876 0,-0.45703125 0.375,-0.8203125 0.820312,-0.85546875 h 0.585938 c 0.855468,0 1.96875,0 1.96875,0.85546875 0,0.53906246 -0.703125,1.04296876 -1.675782,1.04296876 z m 4.242188,-6.234375 -1.394531,0.1171875 v 0.3046875 c 0.65625,0 0.738281,0.058594 0.738281,0.5507812 v 2.67187504 c 0,0.45703125 -0.105469,0.45703125 -0.773438,0.45703125 V -1.328125e-4 C 23.641102,-0.01185156 24.180164,-0.03528906 24.426258,-0.03528906 c 0.339844,0 0.691406,0.0234375 1.03125,0.0351562475 V -0.30482031 c -0.65625,0 -0.703125,-0.0585938 -0.703125,-0.4453125 z m 0.04687,-1.734375 c 0,-0.3164063 -0.246094,-0.5273438 -0.527344,-0.5273438 -0.316406,0 -0.527344,0.2695313 -0.527344,0.5273438 0,0.2695312 0.210938,0.5273437 0.527344,0.5273437 0.28125,0 0.527344,-0.1992187 0.527344,-0.5273437 z m 2.06543,2.71875 v 2.66015624 c 0,0.45703125 -0.117188,0.45703125 -0.785157,0.45703125 V -1.328125e-4 C 26.433094,-0.01185156 26.937,-0.03528906 27.206531,-0.03528906 c 0.257813,0 0.785157,0.0234375 1.113282,0.0351562475 V -0.30482031 c -0.65625,0 -0.773438,0 -0.773438,-0.45703125 V -2.5899766 c 0,-1.03125 0.714844,-1.59375 1.347656,-1.59375 0.621094,0 0.738282,0.5390625 0.738282,1.1015625 v 2.32031254 c 0,0.45703125 -0.117188,0.45703125 -0.773438,0.45703125 v 0.3046874975 c 0.339844,-0.0117187475 0.855469,-0.0351562475 1.125,-0.0351562475 0.257813,0 0.773438,0.0234375 1.113281,0.0351562475 V -0.30482031 c -0.515625,0 -0.773437,0 -0.785156,-0.3046875 V -2.5079453 c 0,-0.8554688 0,-1.171875 -0.304687,-1.5234375 -0.140625,-0.1757813 -0.46875,-0.375 -1.042969,-0.375 -0.726563,0 -1.195313,0.4335937 -1.476563,1.0546875 v -1.0546875 l -1.40625,0.1171875 v 0.3046875 c 0.703125,0 0.785157,0.070312 0.785157,0.5625 z m 7.749023,2.66015624 c 0.03516,0.3984375 0.304687,0.8203125 0.773437,0.8203125 0.210938,0 0.820313,-0.140625 0.820313,-0.94921875 V -1.4415391 h -0.246094 v 0.55078129 c 0,0.5859375 -0.246094,0.64453125 -0.363281,0.64453125 -0.328125,0 -0.363281,-0.45703125 -0.363281,-0.50390625 V -2.7423203 c 0,-0.4101563 0,-0.8085938 -0.363282,-1.171875 -0.386718,-0.3867188 -0.878906,-0.5507813 -1.359375,-0.5507813 -0.820312,0 -1.511718,0.46875 -1.511718,1.125 0,0.3046875 0.199218,0.46875 0.457031,0.46875 0.28125,0 0.46875,-0.1992187 0.46875,-0.4570312 0,-0.1171875 -0.05859,-0.4453125 -0.515625,-0.4570313 0.269531,-0.3515625 0.761719,-0.4570312 1.078125,-0.4570312 0.492187,0 1.054687,0.3867187 1.054687,1.2773437 v 0.3632813 c -0.503906,0.035156 -1.207031,0.058594 -1.828125,0.3632812 -0.75,0.3398438 -0.996093,0.8554688 -0.996093,1.28906254 0,0.80859375 0.960937,1.0546875 1.59375,1.0546875 0.65625,0 1.113281,-0.3984375 1.300781,-0.8671875 z m -0.07031,-1.62890624 v 0.9960937 c 0,0.94921879 -0.714843,1.28906254 -1.160156,1.28906254 -0.492187,0 -0.902344,-0.3515625 -0.902344,-0.85546875 0,-0.53906249 0.421875,-1.37109379 2.0625,-1.42968749 z m 3.495118,-4.5234375 -1.429688,0.1054687 v 0.3164063 c 0.703125,0 0.773438,0.070312 0.773438,0.5507812 v 5.17968754 c 0,0.45703125 -0.105469,0.45703125 -0.773438,0.45703125 V -1.328125e-4 C 36.938953,-0.01185156 37.466297,-0.03528906 37.712391,-0.03528906 c 0.257812,0 0.738281,0.0234375 1.113281,0.0351562475 V -0.30482031 c -0.667969,0 -0.785156,0 -0.785156,-0.45703125 z m 5.487304,4.7460937 c 0,-1.6289062 0.820313,-2.0507812 1.347657,-2.0507812 0.09375,0 0.714843,0.011719 1.066406,0.375 -0.410156,0.023437 -0.46875,0.328125 -0.46875,0.4570312 0,0.2578125 0.1875,0.4570313 0.457031,0.4570313 0.257813,0 0.457031,-0.1640625 0.457031,-0.46875 0,-0.6796875 -0.75,-1.0664063 -1.523437,-1.0664063 -1.242188,0 -2.15625,1.078125 -2.15625,2.3085938 0,1.27734374 0.984375,2.26171874 2.144531,2.26171874 1.335938,0 1.652344,-1.19531254 1.652344,-1.28906254 0,-0.1054687 -0.105469,-0.1054687 -0.128906,-0.1054687 -0.09375,0 -0.117188,0.046875 -0.128907,0.1054687 -0.292968,0.92578129 -0.9375,1.04296879 -1.3125,1.04296879 -0.527343,0 -1.40625,-0.421875 -1.40625,-2.02734379 z m 7.954102,0.035156 c 0,-1.2773438 -0.996094,-2.3320313 -2.191406,-2.3320313 -1.253907,0 -2.214844,1.0898438 -2.214844,2.3320313 0,1.28906249 1.03125,2.23828124 2.203125,2.23828124 1.207031,0 2.203125,-0.97265625 2.203125,-2.23828124 z m -2.191406,1.99218749 c -0.433594,0 -0.867188,-0.2109375 -1.136719,-0.66796875 -0.257813,-0.43359374 -0.257813,-1.04296874 -0.257813,-1.40625004 0,-0.3867187 0,-0.9257812 0.246094,-1.359375 0.269531,-0.4570312 0.738281,-0.6679687 1.136719,-0.6679687 0.433594,0 0.867187,0.2226562 1.125,0.6445312 0.257812,0.4335938 0.257812,1.0078125 0.257812,1.3828125 0,0.3632813 0,0.9023438 -0.222656,1.33593754 -0.222656,0.4453125 -0.65625,0.73828125 -1.148437,0.73828125 z m 3.585937,-3.28124999 v 2.66015624 c 0,0.45703125 -0.117187,0.45703125 -0.785156,0.45703125 v 0.3046874975 c 0.351562,-0.0117187475 0.855469,-0.0351562475 1.125,-0.0351562475 0.257812,0 0.785156,0.0234375 1.113281,0.0351562475 V -0.30482031 c -0.65625,0 -0.773437,0 -0.773437,-0.45703125 V -2.5899766 c 0,-1.03125 0.714843,-1.59375 1.347656,-1.59375 0.621094,0 0.738281,0.5390625 0.738281,1.1015625 v 2.32031254 c 0,0.45703125 -0.117187,0.45703125 -0.773437,0.45703125 v 0.3046874975 c 0.339843,-0.0117187475 0.855468,-0.0351562475 1.125,-0.0351562475 0.257812,0 0.773437,0.0234375 1.113281,0.0351562475 V -0.30482031 c -0.515625,0 -0.773438,0 -0.785156,-0.3046875 V -2.5079453 c 0,-0.8554688 0,-1.171875 -0.304688,-1.5234375 -0.140625,-0.1757813 -0.46875,-0.375 -1.042969,-0.375 -0.726562,0 -1.195312,0.4335937 -1.476562,1.0546875 v -1.0546875 l -1.40625,0.1171875 v 0.3046875 c 0.703125,0 0.785156,0.070312 0.785156,0.5624997 z m 6.509766,1.4882812 c 0.222656,0.035156 1.03125,0.1992188 1.03125,0.9140625 0,0.51562504 -0.351563,0.91406254 -1.125,0.91406254 -0.832031,0 -1.195313,-0.57421875 -1.382813,-1.41796874 -0.03516,-0.1289063 -0.03516,-0.1757813 -0.140625,-0.1757813 -0.128906,0 -0.128906,0.070312 -0.128906,0.2578125 v 1.31250004 c 0,0.1640625 0,0.234375 0.105469,0.234375 0.05859,0 0.07031,0 0.257812,-0.19921875 0.01172,-0.01171875 0.01172,-0.03515625 0.199219,-0.22265625 0.433594,0.421875 0.878906,0.421875 1.089844,0.421875 1.148437,0 1.605469,-0.66796875 1.605469,-1.38281254 0,-0.5273437 -0.292969,-0.8203125 -0.421875,-0.9492187 -0.328125,-0.3164063 -0.714844,-0.3984375 -1.136719,-0.46875 -0.550781,-0.1171875 -1.21875,-0.2460938 -1.21875,-0.8203125 0,-0.3515625 0.257812,-0.7617188 1.113281,-0.7617188 1.101563,0 1.148438,0.9023438 1.171875,1.2070313 0,0.09375 0.09375,0.09375 0.117188,0.09375 0.128906,0 0.128906,-0.046875 0.128906,-0.2460938 v -0.9960937 c 0,-0.1757813 0,-0.2460938 -0.117188,-0.2460938 -0.04687,0 -0.07031,0 -0.199218,0.1171875 -0.02344,0.046875 -0.128907,0.1289063 -0.164063,0.1640625 -0.375,-0.28125 -0.785156,-0.28125 -0.9375,-0.28125 -1.21875,0 -1.59375,0.6679688 -1.59375,1.2304688 0,0.3398437 0.164063,0.6210937 0.433594,0.84375 0.316406,0.2578125 0.597656,0.3164062 1.3125,0.4570312 z m 5.745117,1.14843754 v 0.890625 L 66.572742,-1.328125e-4 V -0.30482031 c -0.703125,0 -0.785156,-0.0703125 -0.785156,-0.5625 V -4.4063828 l -1.453125,0.1171875 v 0.3046875 c 0.691406,0 0.773437,0.070312 0.773437,0.5625 v 1.7695312 c 0,0.86718754 -0.480468,1.54687504 -1.207031,1.54687504 -0.832031,0 -0.878906,-0.46875 -0.878906,-0.99609374 v -3.3046875 l -1.464844,0.1171875 v 0.3046875 c 0.785156,0 0.785156,0.035156 0.785156,0.9140625 v 1.5 c 0,0.77343749 0,1.67578124 1.511719,1.67578124 0.550781,0 0.996094,-0.26953125 1.277344,-0.8906253 z m 2.745117,-2.63671874 v 2.66015624 c 0,0.45703125 -0.117187,0.45703125 -0.785156,0.45703125 v 0.3046874975 c 0.351562,-0.0117187475 0.855469,-0.0351562475 1.125,-0.0351562475 0.257812,0 0.785156,0.0234375 1.113281,0.0351562475 V -0.30482031 c -0.65625,0 -0.773437,0 -0.773437,-0.45703125 V -2.5899766 c 0,-1.03125 0.714843,-1.59375 1.347656,-1.59375 0.621094,0 0.738281,0.5390625 0.738281,1.1015625 v 2.32031254 c 0,0.45703125 -0.117187,0.45703125 -0.773437,0.45703125 v 0.3046874975 c 0.339843,-0.0117187475 0.855468,-0.0351562475 1.125,-0.0351562475 0.257812,0 0.773437,0.0234375 1.113281,0.0351562475 V -0.30482031 c -0.667969,0 -0.785156,0 -0.785156,-0.45703125 V -2.5899766 c 0,-1.03125 0.714843,-1.59375 1.347656,-1.59375 0.632812,0 0.738281,0.5390625 0.738281,1.1015625 v 2.32031254 c 0,0.45703125 -0.105469,0.45703125 -0.773437,0.45703125 v 0.3046874975 c 0.351562,-0.0117187475 0.855468,-0.0351562475 1.125,-0.0351562475 0.257812,0 0.773437,0.0234375 1.113281,0.0351562475 V -0.30482031 c -0.515625,0 -0.761719,0 -0.773438,-0.3046875 V -2.5079453 c 0,-0.8554688 0,-1.171875 -0.316406,-1.5234375 -0.128906,-0.1757813 -0.46875,-0.375 -1.042969,-0.375 -0.832031,0 -1.277343,0.5976562 -1.441406,0.984375 -0.140625,-0.8671875 -0.878906,-0.984375 -1.324219,-0.984375 -0.726562,0 -1.195312,0.4335937 -1.476562,1.0546875 v -1.0546875 l -1.40625,0.1171875 v 0.3046875 c 0.703125,0 0.785156,0.070312 0.785156,0.5624997 z m 8.314453,0.9140625 c 0.05859,-1.4882813 0.902344,-1.734375 1.242188,-1.734375 1.019531,0 1.125,1.3476562 1.125,1.734375 z m -0.01172,0.2109375 h 2.789062 c 0.210938,0 0.246094,0 0.246094,-0.2109375 0,-0.984375 -0.539063,-1.9570313 -1.78125,-1.9570313 -1.160156,0 -2.074219,1.03125 -2.074219,2.2734375 0,1.33593754 1.042969,2.29687504 2.191406,2.29687504 1.21875,0 1.664063,-1.1015625 1.664063,-1.28906254 0,-0.1054687 -0.08203,-0.1171875 -0.128906,-0.1171875 -0.09375,0 -0.117188,0.058594 -0.128907,0.140625 -0.351562,1.01953129 -1.253906,1.01953129 -1.347656,1.01953129 -0.503906,0 -0.902344,-0.29296875 -1.125,-0.66796875 C 76.179188,-1.2891953 76.179188,-1.9454453 76.179188,-2.2970078 Z m 4.989257,-1.0078125 v -1.1015625 l -1.382812,0.1171875 v 0.3046875 c 0.691406,0 0.773437,0.070312 0.773437,0.5625 v 2.66015624 c 0,0.45703125 -0.105468,0.45703125 -0.773437,0.45703125 V -1.328125e-4 C 80.172352,-0.01185156 80.641102,-0.03528906 80.922352,-0.03528906 c 0.398437,0 0.867187,0 1.265625,0.0351562475 V -0.30482031 h -0.210938 c -0.738281,0 -0.761719,-0.1171875 -0.761719,-0.46875 V -2.3087266 c 0,-0.984375 0.421875,-1.875 1.183594,-1.875 0.05859,0 0.08203,0 0.105469,0.011719 -0.03516,0.011719 -0.234375,0.1289062 -0.234375,0.3867187 0,0.28125 0.210937,0.4335938 0.433594,0.4335938 0.175781,0 0.421875,-0.1289063 0.421875,-0.4453125 0,-0.3164063 -0.304688,-0.609375 -0.726563,-0.609375 -0.738281,0 -1.089844,0.6679687 -1.230469,1.1015625 z m 0,0"
       style="fill:#000000;fill-opacity:1;fill-rule:nonzero;stroke:none"
       aria-label="Marginalconsumer"
       transform="matrix(1.3333333,0,0,1.3333333,189.584,113.28533)" />
    <path
       id="path15"
       d="M 170.08086,-21.2601 V -4.2603"
       style="fill:none;stroke:#000000;stroke-width:0.3985;stroke-linecap:round;stroke-linejoin:miter;stroke-miterlimit:10;stroke-dasharray:none;stroke-opacity:1"
       transform="matrix(1.3333333,0,0,-1.3333333,18.418667,66.5)" />
    <path
       id="path16"
       d="M 1.99252,0 -1.19551,1.59401 0,0 -1.19551,-1.59401"
       style="fill:#000000;fill-opacity:1;fill-rule:nonzero;stroke:none"
       transform="matrix(0,-1.3333333,-1.3333333,0,245.19315,72.1804)" />
  </g>
</svg>
