<?xml version="1.0" encoding="UTF-8" standalone="no"?>
<!-- Created with Inkscape (http://www.inkscape.org/) -->

<svg
   version="1.1"
   id="svg1"
   width="422.12399"
   height="72.848"
   viewBox="0 0 422.12399 72.848"
   sodipodi:docname="fig-salop-line.pdf"
   xmlns:inkscape="http://www.inkscape.org/namespaces/inkscape"
   xmlns:sodipodi="http://sodipodi.sourceforge.net/DTD/sodipodi-0.dtd"
   xmlns="http://www.w3.org/2000/svg"
   xmlns:svg="http://www.w3.org/2000/svg">
  <defs
     id="defs1" />
  <sodipodi:namedview
     id="namedview1"
     pagecolor="#ffffff"
     bordercolor="#000000"
     borderopacity="0.25"
     inkscape:showpageshadow="2"
     inkscape:pageopacity="0.0"
     inkscape:pagecheckerboard="0"
     inkscape:deskcolor="#d1d1d1">
    <inkscape:page
       x="0"
       y="0"
       inkscape:label="1"
       id="page1"
       width="422.12399"
       height="72.848"
       margin="0"
       bleed="0" />
  </sodipodi:namedview>
  <g
     id="g1"
     inkscape:groupmode="layer"
     inkscape:label="1">
    <path
       id="path1"
       d="M -153.31717,0 H 153.31717"
       style="fill:none;stroke:#000000;stroke-width:0.79701;stroke-linecap:round;stroke-linejoin:miter;stroke-miterlimit:10;stroke-dasharray:none;stroke-opacity:1"
       transform="matrix(1.3333333,0,0,-1.3333333,211.06133,50.945333)" />
    <path
       id="path2"
       d="M 2.59026,0 -1.55415,2.0722 0,0 -1.55415,-2.0722"
       style="fill:#000000;fill-opacity:1;fill-rule:nonzero;stroke:none"
       transform="matrix(-1.3333333,0,0,1.3333333,6.63844,50.945333)" />
    <path
       id="path3"
       d="M 2.59026,0 -1.55415,2.0722 0,0 -1.55415,-2.0722"
       style="fill:#000000;fill-opacity:1;fill-rule:nonzero;stroke:none"
       transform="matrix(1.3333333,0,0,-1.3333333,415.48423,50.945333)" />
    <path
       id="path4"
       d="m -125.56807,0 c 0,1.10046 -0.89209,1.99255 -1.99255,1.99255 -1.10048,0 -1.99256,-0.89209 -1.99256,-1.99255 0,-1.10046 0.89208,-1.99255 1.99256,-1.99255 1.10046,0 1.99255,0.89209 1.99255,1.99255 z"
       style="fill:#000000;fill-opacity:1;fill-rule:nonzero;stroke:none"
       transform="matrix(1.3333333,0,0,-1.3333333,211.06133,50.945333)" />
    <path
       id="path5"
       d="M 1.99255,0 C 1.99255,1.10046 1.10046,1.99255 0,1.99255 -1.10046,1.99255 -1.99255,1.10046 -1.99255,0 c 0,-1.10046 0.89209,-1.99255 1.99255,-1.99255 1.10046,0 1.99255,0.89209 1.99255,1.99255 z"
       style="fill:#000000;fill-opacity:1;fill-rule:nonzero;stroke:none"
       transform="matrix(1.3333333,0,0,-1.3333333,211.06133,50.945333)" />
    <path
       id="path6"
       d="m 129.55318,0 c 0,1.10046 -0.89208,1.99255 -1.99256,1.99255 -1.10046,0 -1.99255,-0.89209 -1.99255,-1.99255 0,-1.10046 0.89209,-1.99255 1.99255,-1.99255 1.10048,0 1.99256,0.89209 1.99256,1.99255 z"
       style="fill:#000000;fill-opacity:1;fill-rule:nonzero;stroke:none"
       transform="matrix(1.3333333,0,0,-1.3333333,211.06133,50.945333)" />
    <g
       id="g6"
       aria-label="¯p"
       transform="matrix(1.3333333,0,0,1.3333333,38.769333,63.181333)">
      <path
         id="path7"
         d="M 4.2892109,-5.5676406 V -5.8840469 H 0.69155469 v 0.3164063 z m 0,0"
         style="fill:#000000;fill-opacity:1;fill-rule:nonzero;stroke:none" />
      <path
         id="path8"
         d="m -0.40121875,1.2175156 c -0.0820313,0.3398438 -0.09375,0.4101563 -0.5390625,0.4101563 -0.11718755,0 -0.22265625,0 -0.22265625,0.1875 0,0.082031 0.046875,0.1171875 0.1289062,0.1171875 0.2695313,0 0.5507813,-0.035156 0.8320313,-0.035156 0.328125,0 0.66796875,0.035156 0.984375,0.035156 0.0585938,0 0.1875,0 0.1875,-0.1992188 0,-0.1054687 -0.10546875,-0.1054687 -0.24609375,-0.1054687 -0.4921875,0 -0.4921875,-0.070312 -0.4921875,-0.1640625 0,-0.1171875 0.421875,-1.74609378 0.48046875,-1.99218753 0.140625,0.29296875 0.4101562,0.6328125 0.9257812,0.6328125 1.1484375,0 2.4023438,-1.45312497 2.4023438,-2.91796877 0,-0.9375 -0.5742188,-1.59375 -1.3359375,-1.59375 -0.4921875,0 -0.9726563,0.3632813 -1.3007813,0.75 -0.09375,-0.5390625 -0.5273437,-0.75 -0.89062495,-0.75 -0.45703125,0 -0.65625,0.3867188 -0.73828125,0.5742188 -0.1875,0.3398437 -0.31640625,0.9375 -0.31640625,0.9609375 0,0.1054687 0.10546875,0.1054687 0.12890625,0.1054687 0.09375,0 0.10546875,-0.011719 0.1640625,-0.234375 0.1640625,-0.703125 0.36328125,-1.1835937 0.7265625,-1.1835937 0.17578125,0 0.3046875,0.082031 0.3046875,0.4570312 0,0.234375 -0.0234375,0.3398438 -0.0703125,0.5039063 z M 1.3565937,-3.1067031 c 0.070312,-0.2695313 0.3398438,-0.5507813 0.515625,-0.703125 0.3515625,-0.3046875 0.6328125,-0.375 0.8085938,-0.375 0.3984375,0 0.6328125,0.3515625 0.6328125,0.9375 0,0.5859375 -0.328125,1.734375 -0.5039063,2.109375 -0.3398437,0.70312497 -0.8203125,1.03124997 -1.1835937,1.03124997 -0.65625,0 -0.78515625,-0.83203125 -0.78515625,-0.890625 0,-0.0234375 0,-0.0351563 0.0234375,-0.16406247 z m 0,0"
         style="fill:#000000;fill-opacity:1;fill-rule:nonzero;stroke:none" />
    </g>
    <path
       id="path9"
       d="m 0.444375,1.2192813 c -0.0820313,0.3398437 -0.09375,0.4101562 -0.5390625,0.4101562 -0.1171875,0 -0.22265625,0 -0.22265625,0.1875 0,0.082031 0.046875,0.1171875 0.12890625,0.1171875 0.26953125,0 0.55078125,-0.035156 0.83203125,-0.035156 0.328125,0 0.66796875,0.035156 0.98437505,0.035156 0.058594,0 0.1875,0 0.1875,-0.1992187 0,-0.1054688 -0.1054688,-0.1054688 -0.2460938,-0.1054688 -0.4921875,0 -0.4921875,-0.070312 -0.4921875,-0.1640625 0,-0.1171875 0.421875,-1.74609375 0.4804688,-1.9921875 C 1.6982813,-0.23384375 1.9678125,0.106 2.4834375,0.106 c 1.1484375,0 2.4023438,-1.453125 2.4023438,-2.9179687 0,-0.9375 -0.5742188,-1.59375 -1.3359375,-1.59375 -0.4921875,0 -0.9726563,0.3632812 -1.3007813,0.75 -0.09375,-0.5390625 -0.5273437,-0.75 -0.890625,-0.75 -0.45703125,0 -0.65625,0.3867187 -0.73828125,0.5742187 -0.1875,0.3398438 -0.31640625,0.9375 -0.31640625,0.9609375 0,0.1054688 0.10546875,0.1054688 0.12890625,0.1054688 0.09375,0 0.10546875,-0.011719 0.1640625,-0.234375 C 0.76078125,-3.7025937 0.96,-4.1830625 1.3232813,-4.1830625 c 0.1757812,0 0.3046875,0.082031 0.3046875,0.4570313 0,0.234375 -0.023437,0.3398437 -0.070312,0.5039062 z m 1.7578125,-4.3242188 c 0.070312,-0.2695312 0.3398438,-0.5507812 0.515625,-0.703125 0.3515625,-0.3046875 0.6328125,-0.375 0.8085938,-0.375 0.3984375,0 0.6328125,0.3515625 0.6328125,0.9375 0,0.5859375 -0.328125,1.734375 -0.5039063,2.109375 -0.3398437,0.703125 -0.8203125,1.03125 -1.1835937,1.03125 -0.65625,0 -0.7851563,-0.83203125 -0.7851563,-0.890625 0,-0.0234375 0,-0.0351562 0.023437,-0.1640625 z m 0,0"
       style="fill:#000000;fill-opacity:1;fill-rule:nonzero;stroke:none"
       aria-label="p"
       transform="matrix(1.3333333,0,0,1.3333333,207.72,61.358667)" />
    <g
       id="g9"
       aria-label="¯p"
       transform="matrix(1.3333333,0,0,1.3333333,378.92667,63.181333)">
      <path
         id="path10"
         d="M 4.2883984,-5.5676406 V -5.8840469 H 0.69074219 v 0.3164063 z m 0,0"
         style="fill:#000000;fill-opacity:1;fill-rule:nonzero;stroke:none" />
      <path
         id="path11"
         d="m -0.40203125,1.2175156 c -0.0820313,0.3398438 -0.09375,0.4101563 -0.5390625,0.4101563 -0.11718745,0 -0.22265625,0 -0.22265625,0.1875 0,0.082031 0.046875,0.1171875 0.1289063,0.1171875 0.2695312,0 0.5507812,-0.035156 0.8320312,-0.035156 0.328125,0 0.66796875,0.035156 0.984375,0.035156 0.0585938,0 0.1875,0 0.1875,-0.1992188 0,-0.1054687 -0.10546875,-0.1054687 -0.24609375,-0.1054687 -0.4921875,0 -0.4921875,-0.070312 -0.4921875,-0.1640625 0,-0.1171875 0.421875,-1.74609378 0.48046875,-1.99218753 0.140625,0.29296875 0.4101563,0.6328125 0.9257813,0.6328125 1.1484375,0 2.4023437,-1.45312497 2.4023437,-2.91796877 0,-0.9375 -0.5742187,-1.59375 -1.3359375,-1.59375 -0.4921875,0 -0.9726562,0.3632813 -1.3007812,0.75 -0.09375,-0.5390625 -0.5273438,-0.75 -0.89062505,-0.75 -0.45703125,0 -0.65625,0.3867188 -0.73828125,0.5742188 -0.1875,0.3398437 -0.31640625,0.9375 -0.31640625,0.9609375 0,0.1054687 0.10546875,0.1054687 0.12890625,0.1054687 0.09375,0 0.10546875,-0.011719 0.1640625,-0.234375 0.1640625,-0.703125 0.36328125,-1.1835937 0.7265625,-1.1835937 0.17578125,0 0.3046875,0.082031 0.3046875,0.4570312 0,0.234375 -0.0234375,0.3398438 -0.0703125,0.5039063 z M 1.3557813,-3.1067031 c 0.070312,-0.2695313 0.3398437,-0.5507813 0.515625,-0.703125 0.3515625,-0.3046875 0.6328125,-0.375 0.8085937,-0.375 0.3984375,0 0.6328125,0.3515625 0.6328125,0.9375 0,0.5859375 -0.328125,1.734375 -0.5039062,2.109375 -0.3398438,0.70312497 -0.8203125,1.03124997 -1.1835938,1.03124997 -0.65625,0 -0.78515625,-0.83203125 -0.78515625,-0.890625 0,-0.0234375 0,-0.0351563 0.0234375,-0.16406247 z m 0,0"
         style="fill:#000000;fill-opacity:1;fill-rule:nonzero;stroke:none" />
    </g>
    <path
       id="path12"
       d="m -127.56062,17.00824 c 0.59773,1.19554 1.99255,1.99256 3.9851,1.99256 h 55.81009 c 1.99256,0 3.38736,0.797 3.98511,1.99255 0.59775,-1.19555 1.99255,-1.99255 3.98511,-1.99255 H -3.9851 c 1.99255,0 3.38737,-0.79702 3.9851,-1.99256"
       style="fill:none;stroke:#000000;stroke-width:0.3985;stroke-linecap:round;stroke-linejoin:miter;stroke-miterlimit:10;stroke-dasharray:none;stroke-opacity:1"
       transform="matrix(1.3333333,0,0,-1.3333333,211.06133,50.945333)" />
    <path
       id="path13"
       d="m 2.3322813,-4.4310234 c 0,-0.1875 -0.011719,-0.1992188 -0.2109375,-0.1992188 -0.4453125,0.4335938 -1.078125,0.4453125 -1.35937505,0.4453125 v 0.2460938 c 0.1640625,0 0.62109375,0 1.00781255,-0.1875 v 3.55078121 c 0,0.234375 0,0.328125 -0.6914063,0.328125 H 0.80884375 v 0.24609375 C 0.93775,-0.01305469 1.7932188,-0.02477344 2.0510313,-0.02477344 c 0.2109375,0 1.0898437,0.01171875 1.2421875,0.0234375 V -0.24742969 H 3.0354063 c -0.703125,0 -0.703125,-0.09375 -0.703125,-0.328125 z m 0,0"
       style="fill:#000000;fill-opacity:1;fill-rule:nonzero;stroke:none"
       aria-label="1"
       transform="matrix(1.3333333,0,0,1.3333333,123.37467,13.076)" />
    <path
       id="path14"
       d="M 0,0 H 4.925"
       style="fill:none;stroke:#000000;stroke-width:0.398;stroke-linecap:butt;stroke-linejoin:miter;stroke-miterlimit:10;stroke-dasharray:none;stroke-opacity:1"
       transform="matrix(1.3333333,0,0,-1.3333333,122.73867,14.985333)" />
    <path
       id="path15"
       d="m 0.85517969,-0.43355469 c -0.0351563,0.0820313 -0.0703125,0.2578125 -0.0703125,0.28125 0,0.1523437525 0.1171875,0.22265625 0.23437501,0.22265625 0.1289062,0 0.234375,-0.09375 0.2695312,-0.15234375 0.035156,-0.05859375 0.09375,-0.29296875 0.1289063,-0.43359375 0.035156,-0.12890625 0.1054687,-0.45703125 0.1523437,-0.63281246 0.035156,-0.1523438 0.082031,-0.3046875 0.1171875,-0.4570313 0.082031,-0.2929687 0.09375,-0.3515625 0.2929688,-0.6328125 0.1992187,-0.28125 0.5273437,-0.6445312 1.0429687,-0.6445312 0.4101563,0 0.4101563,0.3632812 0.4101563,0.4921875 0,0.421875 -0.2929688,1.1953125 -0.4101563,1.48828121 -0.070312,0.1875 -0.1054687,0.2578125 -0.1054687,0.375 0,0.36328125 0.3046875,0.59765625 0.6679687,0.59765625 0.6914063,0 1.0078125,-0.9609375 1.0078125,-1.06640625 0,-0.09375 -0.09375,-0.09375 -0.1171875,-0.09375 -0.09375,0 -0.1054687,0.046875 -0.1289062,0.11718752 -0.1640625,0.5625 -0.46875,0.84375 -0.7382813,0.84375 -0.1523437,0 -0.1757812,-0.09375 -0.1757812,-0.24609375 0,-0.15234375 0.035156,-0.24609375 0.1523437,-0.5625 0.09375,-0.21093747 0.375,-0.94921877 0.375,-1.34765627 0,-0.6679687 -0.5390625,-0.7851562 -0.9023437,-0.7851562 -0.5859375,0 -0.9726563,0.3515625 -1.1835938,0.6328125 -0.046875,-0.4804688 -0.4570312,-0.6328125 -0.75,-0.6328125 -0.29296871,0 -0.45703121,0.2109375 -0.55078121,0.375 -0.15234375,0.2578125 -0.24609375,0.65625 -0.24609375,0.6914062 0,0.082031 0.09375,0.082031 0.1171875,0.082031 0.09375,0 0.10546875,-0.011719 0.15234375,-0.1992188 0.10546875,-0.421875 0.234375,-0.7617187 0.51562501,-0.7617187 0.1757812,0 0.2226562,0.1523437 0.2226562,0.3398437 0,0.140625 -0.058594,0.3984375 -0.1054687,0.5859375 -0.046875,0.1875 -0.1171875,0.46875 -0.1523438,0.6210938 z m 0,0"
       style="fill:#000000;fill-opacity:1;fill-rule:nonzero;stroke:none"
       aria-label="n"
       transform="matrix(1.3333333,0,0,1.3333333,122.73867,22.886667)" />
    <path
       id="path16"
       d="m 0,17.00824 c 0.59773,1.19554 1.99255,1.99256 3.9851,1.99256 h 55.8101 c 1.99255,0 3.38736,0.797 3.9851,1.99255 0.59775,-1.19555 1.99256,-1.99255 3.98511,-1.99255 h 55.81011 c 1.99255,0 3.38737,-0.79702 3.9851,-1.99256"
       style="fill:none;stroke:#000000;stroke-width:0.3985;stroke-linecap:round;stroke-linejoin:miter;stroke-miterlimit:10;stroke-dasharray:none;stroke-opacity:1"
       transform="matrix(1.3333333,0,0,-1.3333333,211.06133,50.945333)" />
    <path
       id="path17"
       d="m 2.331875,-4.4310234 c 0,-0.1875 -0.011719,-0.1992188 -0.2109375,-0.1992188 -0.4453125,0.4335938 -1.078125,0.4453125 -1.359375,0.4453125 v 0.2460938 c 0.1640625,0 0.6210938,0 1.0078125,-0.1875 v 3.55078121 c 0,0.234375 0,0.328125 -0.6914062,0.328125 H 0.8084375 v 0.24609375 c 0.12890625,-0.01171875 0.984375,-0.0234375 1.2421875,-0.0234375 0.2109375,0 1.0898438,0.01171875 1.2421875,0.0234375 V -0.24742969 H 3.035 c -0.703125,0 -0.703125,-0.09375 -0.703125,-0.328125 z m 0,0"
       style="fill:#000000;fill-opacity:1;fill-rule:nonzero;stroke:none"
       aria-label="1"
       transform="matrix(1.3333333,0,0,1.3333333,293.45333,13.076)" />
    <path
       id="path18"
       d="M 0,0 H 4.925"
       style="fill:none;stroke:#000000;stroke-width:0.398;stroke-linecap:butt;stroke-linejoin:miter;stroke-miterlimit:10;stroke-dasharray:none;stroke-opacity:1"
       transform="matrix(1.3333333,0,0,-1.3333333,292.81733,14.985333)" />
    <path
       id="path19"
       d="m 0.85477344,-0.43355469 c -0.0351563,0.0820313 -0.0703125,0.2578125 -0.0703125,0.28125 0,0.1523437525 0.1171875,0.22265625 0.23437496,0.22265625 0.1289063,0 0.234375,-0.09375 0.2695313,-0.15234375 0.035156,-0.05859375 0.09375,-0.29296875 0.1289062,-0.43359375 0.035156,-0.12890625 0.1054688,-0.45703125 0.1523438,-0.63281246 0.035156,-0.1523438 0.082031,-0.3046875 0.1171875,-0.4570313 0.082031,-0.2929687 0.09375,-0.3515625 0.2929687,-0.6328125 0.1992188,-0.28125 0.5273438,-0.6445312 1.0429688,-0.6445312 0.4101562,0 0.4101562,0.3632812 0.4101562,0.4921875 0,0.421875 -0.2929687,1.1953125 -0.4101562,1.48828121 -0.070312,0.1875 -0.1054688,0.2578125 -0.1054688,0.375 0,0.36328125 0.3046875,0.59765625 0.6679688,0.59765625 0.6914062,0 1.0078125,-0.9609375 1.0078125,-1.06640625 0,-0.09375 -0.09375,-0.09375 -0.1171875,-0.09375 -0.09375,0 -0.1054688,0.046875 -0.1289063,0.11718752 -0.1640625,0.5625 -0.46875,0.84375 -0.7382812,0.84375 -0.1523438,0 -0.1757813,-0.09375 -0.1757813,-0.24609375 0,-0.15234375 0.035156,-0.24609375 0.1523438,-0.5625 0.09375,-0.21093747 0.375,-0.94921877 0.375,-1.34765627 0,-0.6679687 -0.5390625,-0.7851562 -0.9023438,-0.7851562 -0.5859375,0 -0.9726562,0.3515625 -1.1835937,0.6328125 -0.046875,-0.4804688 -0.4570313,-0.6328125 -0.75,-0.6328125 -0.29296876,0 -0.45703126,0.2109375 -0.55078126,0.375 -0.15234375,0.2578125 -0.24609375,0.65625 -0.24609375,0.6914062 0,0.082031 0.09375,0.082031 0.1171875,0.082031 0.09375,0 0.10546875,-0.011719 0.15234375,-0.1992188 0.10546875,-0.421875 0.234375,-0.7617187 0.51562496,-0.7617187 0.1757813,0 0.2226563,0.1523437 0.2226563,0.3398437 0,0.140625 -0.058594,0.3984375 -0.1054688,0.5859375 -0.046875,0.1875 -0.1171875,0.46875 -0.1523437,0.6210938 z m 0,0"
       style="fill:#000000;fill-opacity:1;fill-rule:nonzero;stroke:none"
       aria-label="n"
       transform="matrix(1.3333333,0,0,1.3333333,292.81733,22.886667)" />
  </g>
</svg>
