<?xml version="1.0" encoding="UTF-8" standalone="no"?>
<!-- Created with Inkscape (http://www.inkscape.org/) -->

<svg
   version="1.1"
   id="svg1"
   width="473.48401"
   height="230.00533"
   viewBox="0 0 473.48401 230.00533"
   sodipodi:docname="fig-hotelling-profit-function.pdf"
   xmlns:inkscape="http://www.inkscape.org/namespaces/inkscape"
   xmlns:sodipodi="http://sodipodi.sourceforge.net/DTD/sodipodi-0.dtd"
   xmlns="http://www.w3.org/2000/svg"
   xmlns:svg="http://www.w3.org/2000/svg">
  <defs
     id="defs1" />
  <sodipodi:namedview
     id="namedview1"
     pagecolor="#ffffff"
     bordercolor="#000000"
     borderopacity="0.25"
     inkscape:showpageshadow="2"
     inkscape:pageopacity="0.0"
     inkscape:pagecheckerboard="0"
     inkscape:deskcolor="#d1d1d1">
    <inkscape:page
       x="0"
       y="0"
       inkscape:label="1"
       id="page1"
       width="473.48401"
       height="230.00533"
       margin="0"
       bleed="0" />
  </sodipodi:namedview>
  <g
     id="g1"
     inkscape:groupmode="layer"
     inkscape:label="1">
    <path
       id="path1"
       d="M 0,0 H 318.00687"
       style="fill:none;stroke:#000000;stroke-width:0.79701;stroke-linecap:butt;stroke-linejoin:miter;stroke-miterlimit:10;stroke-dasharray:none;stroke-opacity:1"
       transform="matrix(1.3333333,0,0,-1.3333333,16.578667,204.94533)" />
    <path
       id="path2"
       d="M 0,0 V 125.24727"
       style="fill:none;stroke:#000000;stroke-width:0.79701;stroke-linecap:butt;stroke-linejoin:miter;stroke-miterlimit:10;stroke-dasharray:none;stroke-opacity:1"
       transform="matrix(1.3333333,0,0,-1.3333333,16.578667,204.94533)" />
    <path
       id="path3"
       d="M 0,0 97.50209,113.20398"
       style="fill:none;stroke:#000000;stroke-width:0.79701;stroke-linecap:butt;stroke-linejoin:miter;stroke-miterlimit:10;stroke-dasharray:none;stroke-opacity:1"
       transform="matrix(1.3333333,0,0,-1.3333333,16.578667,204.94533)" />
    <path
       id="path4"
       d="M 97.50209,113.20425 V 61.41933"
       style="fill:none;stroke:#000000;stroke-width:0.79701;stroke-linecap:butt;stroke-linejoin:miter;stroke-miterlimit:10;stroke-dasharray:none;stroke-opacity:1"
       transform="matrix(1.3333333,0,0,-1.3333333,16.578667,204.94533)" />
    <path
       id="path5"
       d="m 97.50209,61.41982 0.76888,0.54167 0.76883,0.53692 0.76887,0.53224 0.76884,0.52745 0.76888,0.52279 0.76881,0.51801 0.7689,0.51334 0.76882,0.50856 0.76888,0.50388 0.76883,0.49913 0.76887,0.4944 0.76883,0.48967 0.76888,0.48497 0.76883,0.48021 0.76889,0.47551 0.76881,0.47075 0.76889,0.46606 0.76883,0.46131 0.76886,0.4566 0.76885,0.45187 0.76887,0.44714 0.76883,0.44242 0.76888,0.4377 0.76882,0.43295 0.76889,0.42825 0.76882,0.4235 0.76889,0.41881 0.76883,0.41403 0.76881,0.40933 0.76889,0.40461 0.76888,0.3999 0.76882,0.39514 0.76888,0.39042 0.76883,0.38571 0.76889,0.38099 0.76882,0.37623 0.76887,0.37154 0.76885,0.36679 0.76881,0.36204 0.76889,0.35735 0.76888,0.35263 0.76881,0.3479 0.76889,0.34317 0.76883,0.33843 0.76889,0.33372 0.76881,0.32898 0.76888,0.32426 0.76884,0.31954 0.76882,0.3148 0.76889,0.31008 0.76887,0.30537 0.76882,0.30063 0.76889,0.2959 0.76883,0.29117 0.76887,0.28646 0.76883,0.28173 0.76888,0.27699 0.76884,0.27226 0.76882,0.26755 0.76887,0.26282 0.76885,0.25808 0.76885,0.25338 0.76885,0.24864 0.76887,0.24391 0.76883,0.23919 0.76888,0.23446 0.76883,0.22974 0.76889,0.22502 0.76881,0.22027 0.76888,0.21556 0.76884,0.21083 0.76886,0.2061 0.76883,0.20139 0.76889,0.19666 0.76882,0.19192 0.76889,0.18721 0.76883,0.18246 0.76887,0.17775 0.76883,0.17303 0.76888,0.1683 0.76884,0.16356 0.76886,0.15884 0.76883,0.15412 0.76889,0.14939 0.76881,0.14466 0.76889,0.13993 0.76883,0.13523 0.76888,0.13047 0.76883,0.12577 0.76887,0.12102 0.76885,0.11631 0.76886,0.1116 0.76883,0.10683 0.76889,0.10213 0.76881,0.09743 0.76888,0.09267 0.76884,0.08793 0.76888,0.08324 0.76883,0.07849 0.76887,0.07378 0.76888,0.06904 0.76878,0.06432 0.76892,0.05958 0.7688,0.05487 0.76886,0.05014 0.76892,0.04543 0.7688,0.04068 0.76892,0.03596 0.76874,0.03122 0.76892,0.02652 0.76887,0.02178 0.76879,0.01706 0.76892,0.01233 0.76878,0.0076 0.76888,0.0029 0.76892,-0.0019 0.7688,-0.0066 0.76892,-0.01132 0.76872,-0.01602 0.76894,-0.02076 0.76887,-0.02546 0.76879,-0.03021 0.76891,-0.03493 0.76879,-0.03966 0.76892,-0.04439 0.76888,-0.04911 0.76879,-0.05384 0.76891,-0.05856 0.76874,-0.06328 0.76893,-0.06802 0.76888,-0.07274 0.76876,-0.07747 0.76894,-0.0822 0.76879,-0.08691 0.76892,-0.09165 0.76887,-0.09639 0.76878,-0.10107 0.76888,-0.10584 0.76879,-0.11055 0.76893,-0.11528 0.76888,-0.12001 0.76876,-0.12472 0.76894,-0.12946 0.76878,-0.13417 0.76893,-0.13891 0.76887,-0.14365 0.76878,-0.14835 0.76888,-0.15309 0.76878,-0.1578 0.76894,-0.16256 0.76887,-0.16728 0.76877,-0.17196 0.76894,-0.17675 0.76878,-0.18141 0.76891,-0.18619 0.76889,-0.19091 0.76878,-0.19561 0.76888,-0.20034 0.76878,-0.20507 0.76892,-0.2098 0.76894,-0.21456 0.76872,-0.21922 0.76894,-0.224 0.76878,-0.22869 0.76891,-0.23345 0.76889,-0.23816 0.76878,-0.24286 0.76888,-0.24762 0.76878,-0.25234 0.76892,-0.25708 0.76894,-0.26181 0.76872,-0.26646 0.76894,-0.27129 0.76878,-0.27592 0.7689,-0.28074 0.76889,-0.28542 0.76879,-0.29014 0.76886,-0.29487 0.7688,-0.29956 0.76892,-0.30435 0.76893,-0.3091 0.76873,-0.31372 0.76892,-0.31854 0.7688,-0.3232 0.76885,-0.32796 0.76894,-0.33272 0.76879,-0.33737 0.76885,-0.34215 0.7688,-0.34684 0.76892,-0.35161 0.76894,-0.35635 0.76872,-0.361 0.76892,-0.36578 0.7688,-0.37047 0.76886,-0.37525 0.76892,-0.37995 0.7688,-0.38465 0.76891,-0.38943 0.76875,-0.39406"
       style="fill:none;stroke:#000000;stroke-width:0.79701;stroke-linecap:butt;stroke-linejoin:miter;stroke-miterlimit:10;stroke-dasharray:none;stroke-opacity:1"
       transform="matrix(1.3333333,0,0,-1.3333333,16.578667,204.94533)" />
    <path
       id="path6"
       d="M 97.50209,0 V 113.20425"
       style="fill:none;stroke:#808080;stroke-width:0.79701;stroke-linecap:butt;stroke-linejoin:miter;stroke-miterlimit:10;stroke-dasharray:2.98883, 1.99255;stroke-dashoffset:0;stroke-opacity:1"
       transform="matrix(1.3333333,0,0,-1.3333333,16.578667,204.94533)" />
    <path
       id="path7"
       d="M 186.00401,0 V 92.73116"
       style="fill:none;stroke:#808080;stroke-width:0.79701;stroke-linecap:butt;stroke-linejoin:miter;stroke-miterlimit:10;stroke-dasharray:2.98883, 1.99255;stroke-dashoffset:0;stroke-opacity:1"
       transform="matrix(1.3333333,0,0,-1.3333333,16.578667,204.94533)" />
    <path
       id="path8"
       d="M 250.5054,0 V 76.09927"
       style="fill:none;stroke:#808080;stroke-width:0.79701;stroke-linecap:butt;stroke-linejoin:miter;stroke-miterlimit:10;stroke-dasharray:2.98883, 1.99255;stroke-dashoffset:0;stroke-opacity:1"
       transform="matrix(1.3333333,0,0,-1.3333333,16.578667,204.94533)" />
    <g
       id="g8"
       aria-label="¯p&#10;2&#10;−c(L−a−b)"
       transform="matrix(1.3333333,0,0,1.3333333,98.112,219.6)">
      <path
         id="path9"
         d="M 4.2900234,-5.5652344 V -5.8816406 H 0.69236719 v 0.3164062 z m 0,0"
         style="fill:#000000;fill-opacity:1;fill-rule:nonzero;stroke:none" />
      <path
         id="path10"
         d="m -0.40040625,1.2199219 c -0.0820313,0.3398437 -0.09375,0.4101562 -0.5390625,0.4101562 -0.11718745,0 -0.22265625,0 -0.22265625,0.1875 0,0.082031 0.046875,0.1171875 0.1289063,0.1171875 0.2695312,0 0.5507812,-0.035156 0.8320312,-0.035156 0.328125,0 0.66796875,0.035156 0.984375,0.035156 0.0585938,0 0.1875,0 0.1875,-0.1992187 0,-0.1054688 -0.10546875,-0.1054688 -0.24609375,-0.1054688 -0.4921875,0 -0.4921875,-0.070312 -0.4921875,-0.1640625 0,-0.1171875 0.421875,-1.74609372 0.48046875,-1.99218747 0.140625,0.29296875 0.4101563,0.6328125 0.9257813,0.6328125 1.1484375,0 2.4023437,-1.45312503 2.4023437,-2.91796873 0,-0.9375 -0.5742187,-1.59375 -1.3359375,-1.59375 -0.4921875,0 -0.9726562,0.3632812 -1.3007812,0.75 -0.09375,-0.5390625 -0.5273438,-0.75 -0.89062505,-0.75 -0.45703125,0 -0.65625,0.3867187 -0.73828125,0.5742187 -0.1875,0.3398438 -0.31640625,0.9375 -0.31640625,0.9609375 0,0.1054688 0.10546875,0.1054688 0.12890625,0.1054688 0.09375,0 0.10546875,-0.011719 0.1640625,-0.234375 C -0.084,-3.7019531 0.11521875,-4.1824219 0.4785,-4.1824219 c 0.17578125,0 0.3046875,0.082031 0.3046875,0.4570313 0,0.234375 -0.0234375,0.3398437 -0.0703125,0.5039062 z M 1.3574063,-3.1042969 c 0.070312,-0.2695312 0.3398437,-0.5507812 0.515625,-0.703125 0.3515625,-0.3046875 0.6328125,-0.375 0.8085937,-0.375 0.3984375,0 0.6328125,0.3515625 0.6328125,0.9375 0,0.5859375 -0.328125,1.734375 -0.5039062,2.109375 -0.3398438,0.70312503 -0.8203125,1.03125003 -1.1835938,1.03125003 -0.65625,0 -0.78515625,-0.83203125 -0.78515625,-0.890625 0,-0.0234375 0,-0.0351562 0.0234375,-0.16406253 z m 0,0"
         style="fill:#000000;fill-opacity:1;fill-rule:nonzero;stroke:none" />
      <path
         id="path11"
         d="M 7.6826016,0.2296875 H 7.4482266 C 7.4247891,0.38203125 7.3661953,0.7921875 7.2724453,0.8625 7.2138516,0.89765625 6.6747891,0.89765625 6.5810391,0.89765625 H 5.2919766 c 0.7382812,-0.64453125 0.984375,-0.84375 1.3945312,-1.171875 0.515625,-0.41015625 0.9960938,-0.84374995 0.9960938,-1.49999995 0,-0.84375 -0.7382813,-1.359375 -1.6289063,-1.359375 -0.8671875,0 -1.453125,0.609375 -1.453125,1.2421875 0,0.3632812 0.3046875,0.3984375 0.375,0.3984375 0.1640625,0 0.375,-0.1171875 0.375,-0.375 0,-0.1289063 -0.058594,-0.3632813 -0.421875,-0.3632813 0.2226563,-0.5039062 0.6914063,-0.65625 1.0195313,-0.65625 0.703125,0 1.0664062,0.5507813 1.0664062,1.1132813 0,0.609375 -0.4335937,1.0898437 -0.65625,1.33593745 l -1.6875,1.66406255 c -0.070312,0.058594 -0.070312,0.070312 -0.070312,0.2695312 h 2.8828125 z m 0,0"
         style="fill:#000000;fill-opacity:1;fill-rule:nonzero;stroke:none" />
      <path
         id="path12"
         d="m 17.412094,-2.2957031 c 0.175781,0 0.351562,0 0.351562,-0.1992188 0,-0.1992187 -0.175781,-0.1992187 -0.351562,-0.1992187 h -5.390625 c -0.164063,0 -0.339844,0 -0.339844,0.1992187 0,0.1992188 0.175781,0.1992188 0.339844,0.1992188 z m 0,0"
         style="fill:#000000;fill-opacity:1;fill-rule:nonzero;stroke:none" />
      <path
         id="path13"
         d="m 24.75975,-3.7839844 c -0.164062,0 -0.304687,0 -0.445312,0.140625 -0.152344,0.1523438 -0.175782,0.3164063 -0.175782,0.3867188 0,0.234375 0.175782,0.3515625 0.363282,0.3515625 0.292968,0 0.5625,-0.2460938 0.5625,-0.6445313 0,-0.4804687 -0.46875,-0.8554687 -1.171875,-0.8554687 -1.347657,0 -2.671875,1.4296875 -2.671875,2.8359375 0,0.89062498 0.574218,1.67578123 1.617187,1.67578123 1.417969,0 2.261719,-1.0546875 2.261719,-1.17187503 0,-0.058594 -0.07031,-0.1289062 -0.128906,-0.1289062 -0.04687,0 -0.07031,0.023437 -0.128907,0.09375 -0.785156,0.99609373 -1.875,0.99609373 -1.992187,0.99609373 -0.621094,0 -0.890625,-0.4921875 -0.890625,-1.08984373 0,-0.4101563 0.199219,-1.3710938 0.539062,-1.9921875 0.304688,-0.5625 0.855469,-0.9960938 1.40625,-0.9960938 0.328125,0 0.714844,0.1289063 0.855469,0.3984375 z m 0,0"
         style="fill:#000000;fill-opacity:1;fill-rule:nonzero;stroke:none" />
      <path
         id="path14"
         d="m 28.416,2.3917969 c 0,-0.035156 0,-0.046875 -0.164062,-0.2226563 -1.242188,-1.25390622 -1.570313,-3.12890622 -1.570313,-4.6640625 0,-1.7226562 0.386719,-3.4570312 1.605469,-4.7109375 C 28.416,-7.3230469 28.416,-7.3347656 28.416,-7.3699219 c 0,-0.070312 -0.03516,-0.1054687 -0.09375,-0.1054687 -0.105469,0 -0.996094,0.6796875 -1.582031,1.9453125 -0.515625,1.1015625 -0.632813,2.203125 -0.632813,3.0351562 0,0.7851563 0.117188,1.99218753 0.65625,3.11718753 0.597657,1.21874997 1.453125,1.87499997 1.558594,1.87499997 0.05859,0 0.09375,-0.035156 0.09375,-0.1054687 z m 0,0"
         style="fill:#000000;fill-opacity:1;fill-rule:nonzero;stroke:none" />
      <path
         id="path15"
         d="m 32.722641,-6.0222656 c 0.09375,-0.3632813 0.117187,-0.46875 1.054687,-0.46875 0.304688,0 0.375,0 0.375,-0.1875 0,-0.1289063 -0.105469,-0.1289063 -0.152344,-0.1289063 -0.328125,0 -1.148437,0.035156 -1.476562,0.035156 -0.304688,0 -1.03125,-0.035156 -1.324219,-0.035156 -0.07031,0 -0.1875,0 -0.1875,0.1992188 0,0.1171875 0.08203,0.1171875 0.28125,0.1171875 0.01172,0 0.199219,0 0.375,0.011719 0.175781,0.023437 0.269531,0.035156 0.269531,0.1640625 0,0.035156 -0.01172,0.070312 -0.04687,0.1875 l -1.335937,5.35546878 c -0.09375,0.38671875 -0.117188,0.46875 -0.902344,0.46875 -0.164062,0 -0.269531,0 -0.269531,0.19921875 0,0.10546875 0.09375,0.10546875 0.269531,0.10546875 h 4.617188 c 0.234375,0 0.246093,0 0.304687,-0.1640625 l 0.785156,-2.15624998 c 0.04687,-0.1054688 0.04687,-0.1289063 0.04687,-0.140625 0,-0.035156 -0.03516,-0.1054688 -0.128906,-0.1054688 -0.08203,0 -0.09375,0.046875 -0.164062,0.2109375 -0.339844,0.9140625 -0.773438,2.05078128 -2.496094,2.05078128 h -0.9375 c -0.140625,0 -0.164063,0 -0.222656,-0.0117188 -0.105469,-0.0117188 -0.128907,-0.0234375 -0.128907,-0.10546875 0,-0.0234375 0,-0.046875 0.04687,-0.22265625 z m 0,0"
         style="fill:#000000;fill-opacity:1;fill-rule:nonzero;stroke:none" />
      <path
         id="path16"
         d="m 44.552719,-2.2957031 c 0.175781,0 0.351562,0 0.351562,-0.1992188 0,-0.1992187 -0.175781,-0.1992187 -0.351562,-0.1992187 h -5.390625 c -0.164063,0 -0.339844,0 -0.339844,0.1992187 0,0.1992188 0.175781,0.1992188 0.339844,0.1992188 z m 0,0"
         style="fill:#000000;fill-opacity:1;fill-rule:nonzero;stroke:none" />
      <path
         id="path17"
         d="m 51.674789,-3.7605469 c -0.175781,-0.375 -0.46875,-0.6445312 -0.914062,-0.6445312 -1.171875,0 -2.402344,1.4648437 -2.402344,2.9179687 0,0.93750003 0.550781,1.59375003 1.324219,1.59375003 0.199218,0 0.703125,-0.03515625 1.300781,-0.73828125 0.07031,0.41015625 0.421875,0.73828125 0.902344,0.73828125 0.351562,0 0.574218,-0.22265625 0.738281,-0.5390625 0.164062,-0.36328125 0.292969,-0.97265623 0.292969,-0.99609373 0,-0.09375 -0.08203,-0.09375 -0.117188,-0.09375 -0.09375,0 -0.105469,0.035156 -0.140625,0.1757812 -0.164062,0.64453128 -0.351562,1.24218753 -0.75,1.24218753 -0.269531,0 -0.304687,-0.2578125 -0.304687,-0.45703125 0,-0.22265625 0.02344,-0.3046875 0.128906,-0.73828128 0.117187,-0.421875 0.128906,-0.5273437 0.222656,-0.9023437 l 0.351563,-1.3945313 c 0.07031,-0.28125 0.07031,-0.2929687 0.07031,-0.3398437 0,-0.1640625 -0.117187,-0.2695313 -0.28125,-0.2695313 -0.246094,0 -0.386719,0.2226563 -0.421875,0.4453125 z m -0.644531,2.578125 c -0.04687,0.1757813 -0.04687,0.19921878 -0.199219,0.36328128 -0.445312,0.55078125 -0.84375,0.71484375 -1.125,0.71484375 -0.503906,0 -0.644531,-0.55078125 -0.644531,-0.93750003 0,-0.5039062 0.328125,-1.7226562 0.550781,-2.1796875 0.304688,-0.5976562 0.761719,-0.9609375 1.160156,-0.9609375 0.644532,0 0.785157,0.8203125 0.785157,0.8789063 0,0.058594 -0.02344,0.1171875 -0.03516,0.1640625 z m 0,0"
         style="fill:#000000;fill-opacity:1;fill-rule:nonzero;stroke:none" />
      <path
         id="path18"
         d="m 61.999008,-2.2957031 c 0.175781,0 0.351562,0 0.351562,-0.1992188 0,-0.1992187 -0.175781,-0.1992187 -0.351562,-0.1992187 h -5.390625 c -0.164063,0 -0.339844,0 -0.339844,0.1992187 0,0.1992188 0.175781,0.1992188 0.339844,0.1992188 z m 0,0"
         style="fill:#000000;fill-opacity:1;fill-rule:nonzero;stroke:none" />
      <path
         id="path19"
         d="m 67.776352,-6.8074219 c 0,0 0,-0.1054687 -0.128907,-0.1054687 -0.222656,0 -0.949218,0.082031 -1.21875,0.1054687 -0.07031,0 -0.1875,0.011719 -0.1875,0.1992188 0,0.1171875 0.09375,0.1171875 0.246094,0.1171875 0.46875,0 0.492188,0.070312 0.492188,0.1640625 0,0.070312 -0.08203,0.4101562 -0.140625,0.6210937 l -0.808594,3.2460938 c -0.128906,0.5039062 -0.164063,0.65625 -0.164063,1.0078125 0,0.94921873 0.527344,1.55859373 1.265625,1.55859373 1.171875,0 2.402344,-1.47656253 2.402344,-2.91796873 0,-0.9023438 -0.527344,-1.59375 -1.324219,-1.59375 -0.457031,0 -0.867187,0.2929687 -1.171875,0.5976562 z m -0.9375,3.7734375 c 0.05859,-0.2226562 0.05859,-0.2460937 0.152343,-0.3515625 0.492188,-0.6445312 0.9375,-0.796875 1.195313,-0.796875 0.363281,0 0.632812,0.2929688 0.632812,0.9375 0,0.5859375 -0.328125,1.734375 -0.515625,2.109375 -0.328125,0.66796878 -0.785156,1.03125003 -1.171875,1.03125003 -0.339843,0 -0.667968,-0.26953125 -0.667968,-1.00781253 0,-0.1875 0,-0.3867187 0.164062,-1.0078125 z m 0,0"
         style="fill:#000000;fill-opacity:1;fill-rule:nonzero;stroke:none" />
      <path
         id="path20"
         d="m 72.557602,-2.4949219 c 0,-0.7734375 -0.117188,-1.9804687 -0.65625,-3.1054687 -0.597657,-1.21875 -1.464844,-1.875 -1.558594,-1.875 -0.05859,0 -0.105469,0.046875 -0.105469,0.1054687 0,0.035156 0,0.046875 0.199219,0.234375 0.972656,0.984375 1.535156,2.5664063 1.535156,4.640625 0,1.71093753 -0.363281,3.45703128 -1.59375,4.7226563 -0.140625,0.1171875 -0.140625,0.1289062 -0.140625,0.1640625 0,0.058594 0.04687,0.1054687 0.105469,0.1054687 0.09375,0 0.996094,-0.6796875 1.582031,-1.94531247 0.503906,-1.1015625 0.632813,-2.20312503 0.632813,-3.04687503 z m 0,0"
         style="fill:#000000;fill-opacity:1;fill-rule:nonzero;stroke:none" />
    </g>
    <g
       id="g20"
       aria-label="¯p&#10;1"
       transform="matrix(1.3333333,0,0,1.3333333,259.388,217.18)">
      <path
         id="path21"
         d="M 4.2881016,-5.5666406 V -5.8830469 H 0.69044531 v 0.3164063 z m 0,0"
         style="fill:#000000;fill-opacity:1;fill-rule:nonzero;stroke:none" />
      <path
         id="path22"
         d="m -0.40232812,1.2185156 c -0.0820313,0.3398438 -0.09375,0.4101563 -0.5390625,0.4101563 -0.11718748,0 -0.22265628,0 -0.22265628,0.1875 0,0.082031 0.046875,0.1171875 0.1289063,0.1171875 0.26953123,0 0.55078123,-0.035156 0.83203123,-0.035156 0.328125,0 0.66796875,0.035156 0.984375,0.035156 0.0585938,0 0.1875,0 0.1875,-0.1992188 0,-0.1054687 -0.10546875,-0.1054687 -0.24609375,-0.1054687 -0.4921875,0 -0.4921875,-0.070312 -0.4921875,-0.1640625 0,-0.1171875 0.421875,-1.74609377 0.48046875,-1.99218752 0.140625,0.29296875 0.41015627,0.6328125 0.92578127,0.6328125 1.1484375,0 2.4023437,-1.45312498 2.4023437,-2.91796878 0,-0.9375 -0.5742187,-1.59375 -1.3359375,-1.59375 -0.4921875,0 -0.9726562,0.3632813 -1.3007812,0.75 -0.09375,-0.5390625 -0.52734377,-0.75 -0.89062502,-0.75 -0.45703125,0 -0.65625,0.3867188 -0.73828125,0.5742188 -0.1875,0.3398437 -0.31640625,0.9375 -0.31640625,0.9609375 0,0.1054687 0.10546875,0.1054687 0.12890625,0.1054687 0.09375,0 0.10546875,-0.011719 0.1640625,-0.234375 0.1640625,-0.703125 0.36328125,-1.1835937 0.7265625,-1.1835937 0.17578125,0 0.3046875,0.082031 0.3046875,0.4570312 0,0.234375 -0.0234375,0.3398438 -0.0703125,0.5039063 z M 1.3554844,-3.1057031 c 0.070312,-0.2695313 0.3398437,-0.5507813 0.515625,-0.703125 0.3515625,-0.3046875 0.6328125,-0.375 0.8085937,-0.375 0.3984375,0 0.6328125,0.3515625 0.6328125,0.9375 0,0.5859375 -0.328125,1.734375 -0.5039062,2.109375 -0.3398438,0.70312498 -0.8203125,1.03124998 -1.1835938,1.03124998 -0.65624997,0 -0.78515622,-0.83203125 -0.78515622,-0.890625 0,-0.0234375 0,-0.0351563 0.0234375,-0.16406248 z m 0,0"
         style="fill:#000000;fill-opacity:1;fill-rule:nonzero;stroke:none" />
      <path
         id="path23"
         d="m 6.4970859,-2.9357812 c 0,-0.1875 -0.011719,-0.1992188 -0.2109375,-0.1992188 -0.4453125,0.4335938 -1.078125,0.4453125 -1.359375,0.4453125 v 0.2460938 c 0.1640625,0 0.6210938,0 1.0078125,-0.1875 v 3.5507812 c 0,0.234375 0,0.328125 -0.6914062,0.328125 H 4.9736484 v 0.2460938 c 0.1289063,-0.011719 0.984375,-0.023437 1.2421875,-0.023437 0.2109375,0 1.0898438,0.011719 1.2421875,0.023437 V 1.2478125 H 7.2002109 c -0.703125,0 -0.703125,-0.09375 -0.703125,-0.328125 z m 0,0"
         style="fill:#000000;fill-opacity:1;fill-rule:nonzero;stroke:none" />
    </g>
    <g
       id="g23"
       aria-label="¯p&#10;2&#10;+c(L−a−b)"
       transform="matrix(1.3333333,0,0,1.3333333,302.11333,219.6)">
      <path
         id="path24"
         d="M 4.2890234,-5.5652344 V -5.8816406 H 0.69136719 v 0.3164062 z m 0,0"
         style="fill:#000000;fill-opacity:1;fill-rule:nonzero;stroke:none" />
      <path
         id="path25"
         d="m -0.40140625,1.2199219 c -0.0820313,0.3398437 -0.09375,0.4101562 -0.5390625,0.4101562 -0.11718755,0 -0.22265625,0 -0.22265625,0.1875 0,0.082031 0.046875,0.1171875 0.1289062,0.1171875 0.2695313,0 0.5507813,-0.035156 0.8320313,-0.035156 0.328125,0 0.66796875,0.035156 0.984375,0.035156 0.0585938,0 0.1875,0 0.1875,-0.1992187 0,-0.1054688 -0.10546875,-0.1054688 -0.24609375,-0.1054688 -0.4921875,0 -0.4921875,-0.070312 -0.4921875,-0.1640625 0,-0.1171875 0.421875,-1.74609372 0.48046875,-1.99218747 0.140625,0.29296875 0.4101562,0.6328125 0.9257812,0.6328125 1.1484375,0 2.4023438,-1.45312503 2.4023438,-2.91796873 0,-0.9375 -0.5742188,-1.59375 -1.3359375,-1.59375 -0.4921875,0 -0.9726563,0.3632812 -1.3007813,0.75 -0.09375,-0.5390625 -0.5273437,-0.75 -0.89062495,-0.75 -0.45703125,0 -0.65625,0.3867187 -0.73828125,0.5742187 -0.1875,0.3398438 -0.31640625,0.9375 -0.31640625,0.9609375 0,0.1054688 0.10546875,0.1054688 0.12890625,0.1054688 0.09375,0 0.10546875,-0.011719 0.1640625,-0.234375 C -0.085,-3.7019531 0.11421875,-4.1824219 0.4775,-4.1824219 c 0.17578125,0 0.3046875,0.082031 0.3046875,0.4570313 0,0.234375 -0.0234375,0.3398437 -0.0703125,0.5039062 z M 1.3564062,-3.1042969 c 0.070312,-0.2695312 0.3398438,-0.5507812 0.515625,-0.703125 0.3515625,-0.3046875 0.6328125,-0.375 0.8085938,-0.375 0.3984375,0 0.6328125,0.3515625 0.6328125,0.9375 0,0.5859375 -0.328125,1.734375 -0.5039063,2.109375 -0.3398437,0.70312503 -0.8203125,1.03125003 -1.1835937,1.03125003 -0.65625,0 -0.78515625,-0.83203125 -0.78515625,-0.890625 0,-0.0234375 0,-0.0351562 0.0234375,-0.16406253 z m 0,0"
         style="fill:#000000;fill-opacity:1;fill-rule:nonzero;stroke:none" />
      <path
         id="path26"
         d="M 7.6816016,0.2296875 H 7.4472266 C 7.4237891,0.38203125 7.3651953,0.7921875 7.2714453,0.8625 7.2128516,0.89765625 6.6737891,0.89765625 6.5800391,0.89765625 H 5.2909766 c 0.7382812,-0.64453125 0.984375,-0.84375 1.3945312,-1.171875 0.515625,-0.41015625 0.9960938,-0.84374995 0.9960938,-1.49999995 0,-0.84375 -0.7382813,-1.359375 -1.6289063,-1.359375 -0.8671875,0 -1.453125,0.609375 -1.453125,1.2421875 0,0.3632812 0.3046875,0.3984375 0.375,0.3984375 0.1640625,0 0.375,-0.1171875 0.375,-0.375 0,-0.1289063 -0.058594,-0.3632813 -0.421875,-0.3632813 0.2226563,-0.5039062 0.6914063,-0.65625 1.0195313,-0.65625 0.703125,0 1.0664062,0.5507813 1.0664062,1.1132813 0,0.609375 -0.4335937,1.0898437 -0.65625,1.33593745 l -1.6875,1.66406255 c -0.070312,0.058594 -0.070312,0.070312 -0.070312,0.2695312 h 2.8828125 z m 0,0"
         style="fill:#000000;fill-opacity:1;fill-rule:nonzero;stroke:none" />
      <path
         id="path27"
         d="m 14.926719,-2.2957031 h 2.777343 c 0.140625,0 0.328125,0 0.328125,-0.1992188 0,-0.1992187 -0.1875,-0.1992187 -0.328125,-0.1992187 h -2.777343 v -2.7890625 c 0,-0.1289063 0,-0.328125 -0.199219,-0.328125 -0.199219,0 -0.199219,0.1992187 -0.199219,0.328125 v 2.7890625 h -2.789062 c -0.140625,0 -0.328125,0 -0.328125,0.1992187 0,0.1992188 0.1875,0.1992188 0.328125,0.1992188 h 2.789062 v 2.80078123 c 0,0.12890625 0,0.328125 0.199219,0.328125 0.199219,0 0.199219,-0.19921875 0.199219,-0.328125 z m 0,0"
         style="fill:#000000;fill-opacity:1;fill-rule:nonzero;stroke:none" />
      <path
         id="path28"
         d="m 24.75875,-3.7839844 c -0.164063,0 -0.304688,0 -0.445313,0.140625 -0.152343,0.1523438 -0.175781,0.3164063 -0.175781,0.3867188 0,0.234375 0.175781,0.3515625 0.363281,0.3515625 0.292969,0 0.5625,-0.2460938 0.5625,-0.6445313 0,-0.4804687 -0.46875,-0.8554687 -1.171875,-0.8554687 -1.347656,0 -2.671875,1.4296875 -2.671875,2.8359375 0,0.89062498 0.574219,1.67578123 1.617188,1.67578123 1.417969,0 2.261719,-1.0546875 2.261719,-1.17187503 0,-0.058594 -0.07031,-0.1289062 -0.128907,-0.1289062 -0.04687,0 -0.07031,0.023437 -0.128906,0.09375 -0.785156,0.99609373 -1.875,0.99609373 -1.992187,0.99609373 -0.621094,0 -0.890625,-0.4921875 -0.890625,-1.08984373 0,-0.4101563 0.199218,-1.3710938 0.539062,-1.9921875 0.304688,-0.5625 0.855469,-0.9960938 1.40625,-0.9960938 0.328125,0 0.714844,0.1289063 0.855469,0.3984375 z m 0,0"
         style="fill:#000000;fill-opacity:1;fill-rule:nonzero;stroke:none" />
      <path
         id="path29"
         d="m 28.415,2.3917969 c 0,-0.035156 0,-0.046875 -0.164063,-0.2226563 -1.242187,-1.25390622 -1.570312,-3.12890622 -1.570312,-4.6640625 0,-1.7226562 0.386719,-3.4570312 1.605469,-4.7109375 C 28.415,-7.3230469 28.415,-7.3347656 28.415,-7.3699219 c 0,-0.070312 -0.03516,-0.1054687 -0.09375,-0.1054687 -0.105469,0 -0.996094,0.6796875 -1.582031,1.9453125 -0.515625,1.1015625 -0.632813,2.203125 -0.632813,3.0351562 0,0.7851563 0.117188,1.99218753 0.65625,3.11718753 0.597656,1.21874997 1.453125,1.87499997 1.558594,1.87499997 0.05859,0 0.09375,-0.035156 0.09375,-0.1054687 z m 0,0"
         style="fill:#000000;fill-opacity:1;fill-rule:nonzero;stroke:none" />
      <path
         id="path30"
         d="m 32.72457,-6.0222656 c 0.09375,-0.3632813 0.117188,-0.46875 1.054688,-0.46875 0.304687,0 0.375,0 0.375,-0.1875 0,-0.1289063 -0.105469,-0.1289063 -0.152344,-0.1289063 -0.328125,0 -1.148437,0.035156 -1.476562,0.035156 -0.304688,0 -1.03125,-0.035156 -1.324219,-0.035156 -0.07031,0 -0.1875,0 -0.1875,0.1992188 0,0.1171875 0.08203,0.1171875 0.28125,0.1171875 0.01172,0 0.199219,0 0.375,0.011719 0.175781,0.023437 0.269531,0.035156 0.269531,0.1640625 0,0.035156 -0.01172,0.070312 -0.04687,0.1875 l -1.335937,5.35546878 c -0.09375,0.38671875 -0.117188,0.46875 -0.902344,0.46875 -0.164063,0 -0.269531,0 -0.269531,0.19921875 0,0.10546875 0.09375,0.10546875 0.269531,0.10546875 h 4.617187 c 0.234375,0 0.246094,0 0.304688,-0.1640625 l 0.785156,-2.15624998 c 0.04687,-0.1054688 0.04687,-0.1289063 0.04687,-0.140625 0,-0.035156 -0.03516,-0.1054688 -0.128906,-0.1054688 -0.08203,0 -0.09375,0.046875 -0.164063,0.2109375 -0.339843,0.9140625 -0.773437,2.05078128 -2.496093,2.05078128 h -0.9375 c -0.140625,0 -0.164063,0 -0.222657,-0.0117188 -0.105468,-0.0117188 -0.128906,-0.0234375 -0.128906,-0.10546875 0,-0.0234375 0,-0.046875 0.04687,-0.22265625 z m 0,0"
         style="fill:#000000;fill-opacity:1;fill-rule:nonzero;stroke:none" />
      <path
         id="path31"
         d="m 44.551719,-2.2957031 c 0.175781,0 0.351562,0 0.351562,-0.1992188 0,-0.1992187 -0.175781,-0.1992187 -0.351562,-0.1992187 h -5.390625 c -0.164063,0 -0.339844,0 -0.339844,0.1992187 0,0.1992188 0.175781,0.1992188 0.339844,0.1992188 z m 0,0"
         style="fill:#000000;fill-opacity:1;fill-rule:nonzero;stroke:none" />
      <path
         id="path32"
         d="m 51.673789,-3.7605469 c -0.175781,-0.375 -0.46875,-0.6445312 -0.914062,-0.6445312 -1.171875,0 -2.402344,1.4648437 -2.402344,2.9179687 0,0.93750003 0.550781,1.59375003 1.324219,1.59375003 0.199218,0 0.703125,-0.03515625 1.300781,-0.73828125 0.07031,0.41015625 0.421875,0.73828125 0.902344,0.73828125 0.351562,0 0.574218,-0.22265625 0.738281,-0.5390625 0.164062,-0.36328125 0.292969,-0.97265623 0.292969,-0.99609373 0,-0.09375 -0.08203,-0.09375 -0.117188,-0.09375 -0.09375,0 -0.105469,0.035156 -0.140625,0.1757812 -0.164062,0.64453128 -0.351562,1.24218753 -0.75,1.24218753 -0.269531,0 -0.304687,-0.2578125 -0.304687,-0.45703125 0,-0.22265625 0.02344,-0.3046875 0.128906,-0.73828128 0.117187,-0.421875 0.128906,-0.5273437 0.222656,-0.9023437 l 0.351563,-1.3945313 c 0.07031,-0.28125 0.07031,-0.2929687 0.07031,-0.3398437 0,-0.1640625 -0.117187,-0.2695313 -0.28125,-0.2695313 -0.246094,0 -0.386719,0.2226563 -0.421875,0.4453125 z m -0.644531,2.578125 c -0.04687,0.1757813 -0.04687,0.19921878 -0.199219,0.36328128 -0.445312,0.55078125 -0.84375,0.71484375 -1.125,0.71484375 -0.503906,0 -0.644531,-0.55078125 -0.644531,-0.93750003 0,-0.5039062 0.328125,-1.7226562 0.550781,-2.1796875 0.304688,-0.5976562 0.761719,-0.9609375 1.160156,-0.9609375 0.644532,0 0.785157,0.8203125 0.785157,0.8789063 0,0.058594 -0.02344,0.1171875 -0.03516,0.1640625 z m 0,0"
         style="fill:#000000;fill-opacity:1;fill-rule:nonzero;stroke:none" />
      <path
         id="path33"
         d="m 62.000937,-2.2957031 c 0.175782,0 0.351563,0 0.351563,-0.1992188 0,-0.1992187 -0.175781,-0.1992187 -0.351563,-0.1992187 h -5.390625 c -0.164062,0 -0.339843,0 -0.339843,0.1992187 0,0.1992188 0.175781,0.1992188 0.339843,0.1992188 z m 0,0"
         style="fill:#000000;fill-opacity:1;fill-rule:nonzero;stroke:none" />
      <path
         id="path34"
         d="m 67.778281,-6.8074219 c 0,0 0,-0.1054687 -0.128906,-0.1054687 -0.222656,0 -0.949219,0.082031 -1.21875,0.1054687 -0.07031,0 -0.1875,0.011719 -0.1875,0.1992188 0,0.1171875 0.09375,0.1171875 0.246094,0.1171875 0.46875,0 0.492187,0.070312 0.492187,0.1640625 0,0.070312 -0.08203,0.4101562 -0.140625,0.6210937 l -0.808594,3.2460938 c -0.128906,0.5039062 -0.164062,0.65625 -0.164062,1.0078125 0,0.94921873 0.527344,1.55859373 1.265625,1.55859373 1.171875,0 2.402344,-1.47656253 2.402344,-2.91796873 0,-0.9023438 -0.527344,-1.59375 -1.324219,-1.59375 -0.457031,0 -0.867188,0.2929687 -1.171875,0.5976562 z m -0.9375,3.7734375 c 0.05859,-0.2226562 0.05859,-0.2460937 0.152344,-0.3515625 0.492187,-0.6445312 0.9375,-0.796875 1.195312,-0.796875 0.363282,0 0.632813,0.2929688 0.632813,0.9375 0,0.5859375 -0.328125,1.734375 -0.515625,2.109375 -0.328125,0.66796878 -0.785156,1.03125003 -1.171875,1.03125003 -0.339844,0 -0.667969,-0.26953125 -0.667969,-1.00781253 0,-0.1875 0,-0.3867187 0.164063,-1.0078125 z m 0,0"
         style="fill:#000000;fill-opacity:1;fill-rule:nonzero;stroke:none" />
      <path
         id="path35"
         d="m 72.556602,-2.4949219 c 0,-0.7734375 -0.117188,-1.9804687 -0.65625,-3.1054687 -0.597657,-1.21875 -1.464844,-1.875 -1.558594,-1.875 -0.05859,0 -0.105469,0.046875 -0.105469,0.1054687 0,0.035156 0,0.046875 0.199219,0.234375 0.972656,0.984375 1.535156,2.5664063 1.535156,4.640625 0,1.71093753 -0.363281,3.45703128 -1.59375,4.7226563 -0.140625,0.1171875 -0.140625,0.1289062 -0.140625,0.1640625 0,0.058594 0.04687,0.1054687 0.105469,0.1054687 0.09375,0 0.996094,-0.6796875 1.582031,-1.94531247 0.503906,-1.1015625 0.632813,-2.20312503 0.632813,-3.04687503 z m 0,0"
         style="fill:#000000;fill-opacity:1;fill-rule:nonzero;stroke:none" />
    </g>
    <g
       id="g35"
       aria-label="p&#10;1"
       transform="matrix(1.3333333,0,0,1.3333333,453.75733,203.172)">
      <path
         id="path36"
         d="m 0.44567188,1.2186563 c -0.0820313,0.3398437 -0.09375,0.4101562 -0.5390625,0.4101562 -0.1171875,0 -0.22265625,0 -0.22265625,0.1875 0,0.082031 0.046875,0.1171875 0.12890625,0.1171875 0.26953125,0 0.55078125,-0.035156 0.83203125,-0.035156 0.328125,0 0.66796877,0.035156 0.98437497,0.035156 0.058594,0 0.1875,0 0.1875,-0.1992187 0,-0.1054688 -0.1054687,-0.1054688 -0.2460937,-0.1054688 -0.4921875,0 -0.4921875,-0.070312 -0.4921875,-0.1640625 0,-0.1171875 0.421875,-1.74609375 0.4804687,-1.9921875 0.140625,0.29296875 0.4101563,0.6328125 0.9257813,0.6328125 1.1484375,0 2.4023437,-1.453125 2.4023437,-2.9179687 0,-0.9375 -0.5742187,-1.59375 -1.3359375,-1.59375 -0.4921875,0 -0.9726562,0.3632812 -1.3007812,0.75 -0.09375,-0.5390625 -0.5273438,-0.75 -0.890625,-0.75 -0.45703127,0 -0.65625002,0.3867187 -0.73828127,0.5742187 -0.1875,0.3398438 -0.31640625,0.9375 -0.31640625,0.9609375 0,0.1054688 0.10546875,0.1054688 0.12890625,0.1054688 0.09375,0 0.10546875,-0.011719 0.1640625,-0.234375 0.1640625,-0.703125 0.36328125,-1.1835938 0.72656247,-1.1835938 0.1757813,0 0.3046875,0.082031 0.3046875,0.4570313 0,0.234375 -0.023437,0.3398437 -0.070312,0.5039062 z M 2.2034844,-3.1055625 c 0.070312,-0.2695312 0.3398437,-0.5507812 0.515625,-0.703125 0.3515625,-0.3046875 0.6328125,-0.375 0.8085937,-0.375 0.3984375,0 0.6328125,0.3515625 0.6328125,0.9375 0,0.5859375 -0.328125,1.734375 -0.5039062,2.109375 -0.3398438,0.703125 -0.8203125,1.03125 -1.1835938,1.03125 -0.65625,0 -0.7851562,-0.83203125 -0.7851562,-0.890625 0,-0.0234375 0,-0.0351562 0.023437,-0.1640625 z m 0,0"
         style="fill:#000000;fill-opacity:1;fill-rule:nonzero;stroke:none" />
      <path
         id="path37"
         d="m 7.3450859,-2.9356406 c 0,-0.1875 -0.011719,-0.1992188 -0.2109375,-0.1992188 -0.4453125,0.4335938 -1.078125,0.4453125 -1.359375,0.4453125 v 0.2460938 c 0.1640625,0 0.6210938,0 1.0078125,-0.1875 v 3.55078123 c 0,0.23437497 0,0.32812497 -0.6914062,0.32812497 H 5.8216484 v 0.2460938 c 0.1289063,-0.011719 0.984375,-0.023437 1.2421875,-0.023437 0.2109375,0 1.0898438,0.011719 1.2421875,0.023437 V 1.2479531 H 8.0482109 c -0.703125,0 -0.703125,-0.09375 -0.703125,-0.32812497 z m 0,0"
         style="fill:#000000;fill-opacity:1;fill-rule:nonzero;stroke:none" />
    </g>
    <g
       id="g37"
       aria-label="π&#10;1&#10;(p&#10;1&#10;,¯p&#10;2&#10;)"
       transform="matrix(0,-1.3333333,1.3333333,0,17.046667,62.136)">
      <path
         id="path38"
         d="m 2.6361797,-3.7146875 h 1.125 c -0.328125,1.4765625 -0.4101563,1.8984375 -0.4101563,2.5664063 0,0.1523437 0,0.42187495 0.070312,0.7617187 0.1054688,0.43359375 0.2109375,0.4921875 0.3632813,0.4921875 0.1992187,0 0.4101562,-0.17578125 0.4101562,-0.375 0,-0.0585938 0,-0.0820313 -0.058594,-0.22265625 -0.292968,-0.71484375 -0.292968,-1.35937495 -0.292968,-1.64062495 0,-0.5273438 0.070312,-1.0664063 0.1757813,-1.5820313 h 1.1367187 c 0.1289063,0 0.4921875,0 0.4921875,-0.3398437 0,-0.234375 -0.2109375,-0.234375 -0.3984375,-0.234375 H 1.9096172 c -0.2109375,0 -0.5976563,0 -1.03125001,0.46875 -0.3515625,0.3867187 -0.609375,0.84375 -0.609375,0.890625 0,0.011719 0,0.1054687 0.1171875,0.1054687 0.0820313,0 0.10546875,-0.046875 0.1640625,-0.1289062 C 1.0307109,-3.7146875 1.6166484,-3.7146875 1.8158672,-3.7146875 h 0.5625 c -0.3164063,1.2070313 -0.8554688,2.4140625 -1.2773438,3.31640625 -0.070312,0.15234375 -0.070312,0.1640625 -0.070312,0.234375 0,0.19921875 0.1523438,0.26953125 0.28125,0.26953125 0.3046875,0 0.3867188,-0.26953125 0.5039063,-0.64453125 0.140625,-0.45703125 0.140625,-0.48046875 0.2695312,-0.97265625 z m 0,0"
         style="fill:#000000;fill-opacity:1;fill-rule:nonzero;stroke:none" />
      <path
         id="path39"
         d="m 8.0121562,-2.9353906 c 0,-0.1875 -0.011719,-0.1992188 -0.2109375,-0.1992188 -0.4453125,0.4335938 -1.078125,0.4453125 -1.359375,0.4453125 v 0.2460938 c 0.1640625,0 0.6210938,0 1.0078125,-0.1875 v 3.55078123 c 0,0.23437497 0,0.32812497 -0.6914062,0.32812497 H 6.4887187 v 0.2460938 c 0.1289063,-0.011719 0.984375,-0.023437 1.2421875,-0.023437 0.2109375,0 1.0898438,0.011719 1.2421875,0.023437 V 1.2482031 H 8.7152812 c -0.703125,0 -0.703125,-0.09375 -0.703125,-0.32812497 z m 0,0"
         style="fill:#000000;fill-opacity:1;fill-rule:nonzero;stroke:none" />
      <path
         id="path40"
         d="m 13.440867,2.3907813 c 0,-0.035156 0,-0.046875 -0.164062,-0.2226563 -1.242188,-1.25390625 -1.570313,-3.12890625 -1.570313,-4.6640625 0,-1.7226562 0.386719,-3.4570312 1.605469,-4.7109375 0.128906,-0.1171875 0.128906,-0.1289062 0.128906,-0.1640625 0,-0.070312 -0.03516,-0.1054687 -0.09375,-0.1054687 -0.105469,0 -0.996094,0.6796875 -1.582031,1.9453125 -0.515625,1.1015625 -0.632813,2.203125 -0.632813,3.0351562 0,0.7851563 0.117188,1.9921875 0.65625,3.1171875 0.597657,1.21875 1.453125,1.875 1.558594,1.875 0.05859,0 0.09375,-0.035156 0.09375,-0.1054687 z m 0,0"
         style="fill:#000000;fill-opacity:1;fill-rule:nonzero;stroke:none" />
      <path
         id="path41"
         d="m 14.469187,1.2189063 c -0.08203,0.3398437 -0.09375,0.4101562 -0.539062,0.4101562 -0.117188,0 -0.222656,0 -0.222656,0.1875 0,0.082031 0.04687,0.1171875 0.128906,0.1171875 0.269531,0 0.550781,-0.035156 0.832031,-0.035156 0.328125,0 0.667969,0.035156 0.984375,0.035156 0.05859,0 0.1875,0 0.1875,-0.1992187 0,-0.1054688 -0.105469,-0.1054688 -0.246094,-0.1054688 C 15.102,1.6290625 15.102,1.55875 15.102,1.465 c 0,-0.1171875 0.421875,-1.74609375 0.480469,-1.9921875 0.140625,0.29296875 0.410156,0.6328125 0.925781,0.6328125 1.148437,0 2.402344,-1.453125 2.402344,-2.9179687 0,-0.9375 -0.574219,-1.59375 -1.335938,-1.59375 -0.492187,0 -0.972656,0.3632812 -1.300781,0.75 -0.09375,-0.5390625 -0.527344,-0.75 -0.890625,-0.75 -0.457031,0 -0.65625,0.3867187 -0.738281,0.5742187 -0.1875,0.3398438 -0.316407,0.9375 -0.316407,0.9609375 0,0.1054688 0.105469,0.1054688 0.128907,0.1054688 0.09375,0 0.105468,-0.011719 0.164062,-0.234375 0.164063,-0.703125 0.363281,-1.1835938 0.726563,-1.1835938 0.175781,0 0.304687,0.082031 0.304687,0.4570313 0,0.234375 -0.02344,0.3398437 -0.07031,0.5039062 z M 16.227,-3.1053125 c 0.07031,-0.2695312 0.339844,-0.5507812 0.515625,-0.703125 0.351562,-0.3046875 0.632812,-0.375 0.808594,-0.375 0.398437,0 0.632812,0.3515625 0.632812,0.9375 0,0.5859375 -0.328125,1.734375 -0.503906,2.109375 -0.339844,0.703125 -0.820313,1.03125 -1.183594,1.03125 -0.65625,0 -0.785156,-0.83203125 -0.785156,-0.890625 0,-0.0234375 0,-0.0351562 0.02344,-0.1640625 z m 0,0"
         style="fill:#000000;fill-opacity:1;fill-rule:nonzero;stroke:none" />
      <path
         id="path42"
         d="m 21.365672,-2.9353906 c 0,-0.1875 -0.01172,-0.1992188 -0.210938,-0.1992188 -0.445312,0.4335938 -1.078125,0.4453125 -1.359375,0.4453125 v 0.2460938 c 0.164063,0 0.621094,0 1.007813,-0.1875 v 3.55078123 c 0,0.23437497 0,0.32812497 -0.691406,0.32812497 h -0.269532 v 0.2460938 c 0.128907,-0.011719 0.984375,-0.023437 1.242188,-0.023437 0.210937,0 1.089844,0.011719 1.242187,0.023437 V 1.2482031 h -0.257812 c -0.703125,0 -0.703125,-0.09375 -0.703125,-0.32812497 z m 0,0"
         style="fill:#000000;fill-opacity:1;fill-rule:nonzero;stroke:none" />
      <path
         id="path43"
         d="m 25.531687,-0.0115625 c 0,-0.65625 -0.257812,-1.0429687 -0.644531,-1.0429687 -0.328125,0 -0.527344,0.2460937 -0.527344,0.5273437 0,0.26953125 0.199219,0.52734375 0.527344,0.52734375 0.117188,0 0.246094,-0.03515625 0.351563,-0.12890625 0.02344,-0.0234375 0.03516,-0.0351563 0.04687,-0.0351563 0.01172,0 0.02344,0.0117188 0.02344,0.15234375 0,0.73828125 -0.351562,1.33593745 -0.679687,1.66406245 -0.105469,0.1054688 -0.105469,0.1289063 -0.105469,0.1640625 0,0.070312 0.04687,0.1054688 0.09375,0.1054688 0.117187,0 0.914062,-0.7617188 0.914062,-1.93359375 z m 0,0"
         style="fill:#000000;fill-opacity:1;fill-rule:nonzero;stroke:none" />
      <path
         id="path44"
         d="M 33.060984,-5.56625 V -5.8826562 H 29.463328 V -5.56625 Z m 0,0"
         style="fill:#000000;fill-opacity:1;fill-rule:nonzero;stroke:none" />
      <path
         id="path45"
         d="m 28.382273,1.2189063 c -0.08203,0.3398437 -0.09375,0.4101562 -0.539062,0.4101562 -0.117188,0 -0.222656,0 -0.222656,0.1875 0,0.082031 0.04687,0.1171875 0.128906,0.1171875 0.269531,0 0.550781,-0.035156 0.832031,-0.035156 0.328125,0 0.667969,0.035156 0.984375,0.035156 0.05859,0 0.1875,0 0.1875,-0.1992187 0,-0.1054688 -0.105469,-0.1054688 -0.246094,-0.1054688 -0.492187,0 -0.492187,-0.070312 -0.492187,-0.1640625 0,-0.1171875 0.421875,-1.74609375 0.480469,-1.9921875 0.140625,0.29296875 0.410156,0.6328125 0.925781,0.6328125 1.148437,0 2.402344,-1.453125 2.402344,-2.9179687 0,-0.9375 -0.574219,-1.59375 -1.335938,-1.59375 -0.492187,0 -0.972656,0.3632812 -1.300781,0.75 -0.09375,-0.5390625 -0.527344,-0.75 -0.890625,-0.75 -0.457031,0 -0.65625,0.3867187 -0.738281,0.5742187 -0.1875,0.3398438 -0.316407,0.9375 -0.316407,0.9609375 0,0.1054688 0.105469,0.1054688 0.128907,0.1054688 0.09375,0 0.105468,-0.011719 0.164062,-0.234375 0.164063,-0.703125 0.363281,-1.1835938 0.726563,-1.1835938 0.175781,0 0.304687,0.082031 0.304687,0.4570313 0,0.234375 -0.02344,0.3398437 -0.07031,0.5039062 z m 1.757813,-4.3242188 c 0.07031,-0.2695312 0.339844,-0.5507812 0.515625,-0.703125 0.351562,-0.3046875 0.632812,-0.375 0.808594,-0.375 0.398437,0 0.632812,0.3515625 0.632812,0.9375 0,0.5859375 -0.328125,1.734375 -0.503906,2.109375 -0.339844,0.703125 -0.820313,1.03125 -1.183594,1.03125 -0.65625,0 -0.785156,-0.83203125 -0.785156,-0.890625 0,-0.0234375 0,-0.0351562 0.02344,-0.1640625 z m 0,0"
         style="fill:#000000;fill-opacity:1;fill-rule:nonzero;stroke:none" />
      <path
         id="path46"
         d="m 36.459422,0.22867188 h -0.234375 c -0.02344,0.15234375 -0.08203,0.5625 -0.175781,0.6328125 -0.05859,0.0351563 -0.597657,0.0351563 -0.691407,0.0351563 h -1.289062 c 0.738281,-0.64453125 0.984375,-0.84375 1.394531,-1.171875 0.515625,-0.41015625 0.996094,-0.84374998 0.996094,-1.49999998 0,-0.84375 -0.738281,-1.359375 -1.628906,-1.359375 -0.867188,0 -1.453125,0.609375 -1.453125,1.2421875 0,0.3632813 0.304687,0.3984375 0.375,0.3984375 0.164062,0 0.375,-0.1171875 0.375,-0.375 0,-0.1289062 -0.05859,-0.3632812 -0.421875,-0.3632812 0.222656,-0.5039063 0.691406,-0.65625 1.019531,-0.65625 0.703125,0 1.066406,0.5507812 1.066406,1.1132812 0,0.609375 -0.433594,1.08984373 -0.65625,1.33593748 l -1.6875,1.66406252 c -0.07031,0.058594 -0.07031,0.070312 -0.07031,0.2695313 h 2.882812 z m 0,0"
         style="fill:#000000;fill-opacity:1;fill-rule:nonzero;stroke:none" />
      <path
         id="path47"
         d="m 40.297312,-2.4959375 c 0,-0.7734375 -0.117187,-1.9804687 -0.65625,-3.1054687 -0.597656,-1.21875 -1.464843,-1.875 -1.558593,-1.875 -0.05859,0 -0.105469,0.046875 -0.105469,0.1054687 0,0.035156 0,0.046875 0.199219,0.234375 0.972656,0.984375 1.535156,2.5664063 1.535156,4.640625 0,1.7109375 -0.363281,3.45703125 -1.59375,4.7226563 C 37.977,2.3439063 37.977,2.355625 37.977,2.3907813 c 0,0.058594 0.04687,0.1054687 0.105469,0.1054687 0.09375,0 0.996093,-0.6796875 1.582031,-1.9453125 0.503906,-1.1015625 0.632812,-2.203125 0.632812,-3.046875 z m 0,0"
         style="fill:#000000;fill-opacity:1;fill-rule:nonzero;stroke:none" />
    </g>
  </g>
</svg>
