<?xml version="1.0" encoding="UTF-8" standalone="no"?>
<!-- Created with Inkscape (http://www.inkscape.org/) -->

<svg
   version="1.1"
   id="svg1"
   width="492.77866"
   height="129.556"
   viewBox="0 0 492.77866 129.556"
   sodipodi:docname="fig-hotelling-fixed-location.pdf"
   xmlns:inkscape="http://www.inkscape.org/namespaces/inkscape"
   xmlns:sodipodi="http://sodipodi.sourceforge.net/DTD/sodipodi-0.dtd"
   xmlns="http://www.w3.org/2000/svg"
   xmlns:svg="http://www.w3.org/2000/svg">
  <defs
     id="defs1" />
  <sodipodi:namedview
     id="namedview1"
     pagecolor="#ffffff"
     bordercolor="#000000"
     borderopacity="0.25"
     inkscape:showpageshadow="2"
     inkscape:pageopacity="0.0"
     inkscape:pagecheckerboard="0"
     inkscape:deskcolor="#d1d1d1">
    <inkscape:page
       x="0"
       y="0"
       inkscape:label="1"
       id="page1"
       width="492.77866"
       height="129.556"
       margin="0"
       bleed="0" />
  </sodipodi:namedview>
  <g
     id="g1"
     inkscape:groupmode="layer"
     inkscape:label="1">
    <path
       id="path1"
       d="M 0,0 H 340.16171"
       style="fill:none;stroke:#000000;stroke-width:0.79701;stroke-linecap:round;stroke-linejoin:miter;stroke-miterlimit:10;stroke-dasharray:none;stroke-opacity:1"
       transform="matrix(1.3333333,0,0,-1.3333333,18.418667,66.425333)" />
    <path
       id="path2"
       d="M 1.99255,0 C 1.99255,1.10046 1.10046,1.99255 0,1.99255 -1.10046,1.99255 -1.99255,1.10046 -1.99255,0 c 0,-1.10046 0.89209,-1.99255 1.99255,-1.99255 1.10046,0 1.99255,0.89209 1.99255,1.99255 z"
       style="fill:#000000;fill-opacity:1;fill-rule:nonzero;stroke:none"
       transform="matrix(1.3333333,0,0,-1.3333333,18.418667,66.425333)" />
    <path
       id="path3"
       d="m 87.03297,0 c 0,1.10046 -0.89207,1.99255 -1.99255,1.99255 -1.10046,0 -1.99255,-0.89209 -1.99255,-1.99255 0,-1.10046 0.89209,-1.99255 1.99255,-1.99255 1.10048,0 1.99255,0.89209 1.99255,1.99255 z"
       style="fill:#000000;fill-opacity:1;fill-rule:nonzero;stroke:none"
       transform="matrix(1.3333333,0,0,-1.3333333,18.418667,66.425333)" />
    <path
       id="path4"
       d="m 172.07341,0 c 0,1.10046 -0.89209,1.99255 -1.99255,1.99255 -1.10048,0 -1.99256,-0.89209 -1.99256,-1.99255 0,-1.10046 0.89208,-1.99255 1.99256,-1.99255 1.10046,0 1.99255,0.89209 1.99255,1.99255 z"
       style="fill:#000000;fill-opacity:1;fill-rule:nonzero;stroke:none"
       transform="matrix(1.3333333,0,0,-1.3333333,18.418667,66.425333)" />
    <path
       id="path5"
       d="m 257.11383,0 c 0,1.10046 -0.89207,1.99255 -1.99255,1.99255 -1.10047,0 -1.99256,-0.89209 -1.99256,-1.99255 0,-1.10046 0.89209,-1.99255 1.99256,-1.99255 1.10048,0 1.99255,0.89209 1.99255,1.99255 z"
       style="fill:#000000;fill-opacity:1;fill-rule:nonzero;stroke:none"
       transform="matrix(1.3333333,0,0,-1.3333333,18.418667,66.425333)" />
    <path
       id="path6"
       d="m 342.15427,0 c 0,1.10046 -0.89209,1.99255 -1.99256,1.99255 -1.10048,0 -1.99255,-0.89209 -1.99255,-1.99255 0,-1.10046 0.89207,-1.99255 1.99255,-1.99255 1.10047,0 1.99256,0.89209 1.99256,1.99255 z"
       style="fill:#000000;fill-opacity:1;fill-rule:nonzero;stroke:none"
       transform="matrix(1.3333333,0,0,-1.3333333,18.418667,66.425333)" />
    <path
       id="path7"
       d="m 4.5834844,-3.1862266 c 0,-0.796875 -0.046875,-1.59375 -0.3984375,-2.3320312 -0.4570313,-0.9609375 -1.2773438,-1.1132813 -1.6875,-1.1132813 -0.5976563,0 -1.3359375,0.2578125 -1.73437503,1.1835938 -0.328125,0.6914062 -0.375,1.4648437 -0.375,2.2617187 0,0.75 0.046875,1.640625 0.4453125,2.40234379 0.43359373,0.80859375 1.16015623,1.0078125 1.65234373,1.0078125 0.5390625,0 1.2890625,-0.2109375 1.734375,-1.16015625 C 4.5366094,-1.6276328 4.5834844,-2.4010703 4.5834844,-3.1862266 Z M 2.4858281,0.00127344 c -0.3867187,0 -0.984375,-0.24609375 -1.1601562,-1.20703124 -0.1054688,-0.5976563 -0.1054688,-1.5117188 -0.1054688,-2.0976563 0,-0.6445312 0,-1.3007812 0.082031,-1.8398437 0.1875,-1.1835938 0.9257812,-1.265625 1.1835937,-1.265625 0.328125,0 0.984375,0.1757812 1.171875,1.1601562 0.09375,0.5625 0.09375,1.3125 0.09375,1.9453125 0,0.75 0,1.4179688 -0.1054687,2.0625 -0.1523438,0.93750004 -0.7148438,1.24218754 -1.160156,1.24218754 z m 0,0"
       style="fill:#000000;fill-opacity:1;fill-rule:nonzero;stroke:none"
       aria-label="0"
       transform="matrix(1.3333333,0,0,1.3333333,7.084,70.705333)" />
    <path
       id="path8"
       d="m 3.72775,-6.0228047 c 0.09375,-0.3632812 0.1171875,-0.46875 1.0546875,-0.46875 0.3046875,0 0.375,0 0.375,-0.1875 0,-0.1289062 -0.1054687,-0.1289062 -0.1523437,-0.1289062 -0.328125,0 -1.1484375,0.035156 -1.4765625,0.035156 -0.3046875,0 -1.03125,-0.035156 -1.3242188,-0.035156 -0.070312,0 -0.1875,0 -0.1875,0.1992187 0,0.1171875 0.082031,0.1171875 0.28125,0.1171875 0.011719,0 0.1992188,0 0.375,0.011719 0.1757813,0.023437 0.2695313,0.035156 0.2695313,0.1640625 0,0.035156 -0.011719,0.070312 -0.046875,0.1875 l -1.3359375,5.35546871 c -0.09375,0.38671875 -0.1171875,0.46875 -0.9023438,0.46875 -0.1640625,0 -0.26953125,0 -0.26953125,0.19921875 0,0.1054687525 0.09375,0.1054687525 0.26953125,0.1054687525 H 5.274625 c 0.234375,0 0.2460938,0 0.3046875,-0.1640625025 L 6.3644688,-2.3196797 c 0.046875,-0.1054687 0.046875,-0.1289062 0.046875,-0.140625 0,-0.035156 -0.035156,-0.1054687 -0.1289063,-0.1054687 -0.082031,0 -0.09375,0.046875 -0.1640625,0.2109375 -0.3398437,0.9140625 -0.7734375,2.05078121 -2.4960937,2.05078121 h -0.9375 c -0.140625,0 -0.1640625,0 -0.2226563,-0.0117188 -0.1054687,-0.0117188 -0.1289062,-0.0234375 -0.1289062,-0.10546875 0,-0.0234375 0,-0.046875 0.046875,-0.22265625 z m 0,0"
       style="fill:#000000;fill-opacity:1;fill-rule:nonzero;stroke:none"
       aria-label="L"
       transform="matrix(1.3333333,0,0,1.3333333,476.65467,70.964)" />
    <path
       id="path9"
       d="m 0,15.59082 c 0.59773,1.19554 1.99255,1.99255 3.9851,1.99255 h 34.55 c 1.99255,0 3.38735,0.79702 3.9851,1.99256 0.59774,-1.19554 1.99256,-1.99256 3.98511,-1.99256 h 34.55 c 1.99256,0 3.38736,-0.79701 3.98511,-1.99255"
       style="fill:none;stroke:#000000;stroke-width:0.3985;stroke-linecap:round;stroke-linejoin:miter;stroke-miterlimit:10;stroke-dasharray:none;stroke-opacity:1"
       transform="matrix(1.3333333,0,0,-1.3333333,18.418667,66.425333)" />
    <path
       id="path10"
       d="m 3.7150156,-3.7605859 c -0.1757812,-0.375 -0.46875,-0.6445313 -0.9140625,-0.6445313 -1.171875,0 -2.40234372,1.4648438 -2.40234372,2.9179688 0,0.93749996 0.55078125,1.59374996 1.32421872,1.59374996 0.1992188,0 0.703125,-0.03515625 1.3007813,-0.73828125 0.070312,0.41015625 0.421875,0.73828125 0.9023437,0.73828125 0.3515625,0 0.5742188,-0.22265625 0.7382813,-0.5390625 0.1640625,-0.36328125 0.2929687,-0.97265626 0.2929687,-0.99609376 0,-0.09375 -0.082031,-0.09375 -0.1171875,-0.09375 -0.09375,0 -0.1054687,0.035156 -0.140625,0.1757813 -0.1640625,0.64453121 -0.3515625,1.24218746 -0.75,1.24218746 -0.2695312,0 -0.3046875,-0.2578125 -0.3046875,-0.45703125 0,-0.22265625 0.023437,-0.3046875 0.1289063,-0.73828121 0.1171875,-0.421875 0.1289062,-0.5273438 0.2226562,-0.9023438 l 0.3515625,-1.3945312 c 0.070312,-0.28125 0.070312,-0.2929688 0.070312,-0.3398438 0,-0.1640625 -0.1171875,-0.2695312 -0.28125,-0.2695312 -0.2460937,0 -0.3867187,0.2226562 -0.4218745,0.4453125 z m -0.6445312,2.578125 c -0.046875,0.1757812 -0.046875,0.19921871 -0.1992188,0.36328121 -0.4453125,0.55078125 -0.84375,0.71484375 -1.125,0.71484375 -0.5039062,0 -0.6445312,-0.55078125 -0.6445312,-0.93749996 0,-0.5039063 0.328125,-1.7226563 0.5507812,-2.1796875 0.3046875,-0.5976563 0.7617188,-0.9609375 1.1601563,-0.9609375 0.6445312,0 0.7851562,0.8203125 0.7851562,0.8789062 0,0.058594 -0.023437,0.1171875 -0.035156,0.1640625 z m 0,0"
       style="fill:#000000;fill-opacity:1;fill-rule:nonzero;stroke:none"
       aria-label="a"
       transform="matrix(1.3333333,0,0,1.3333333,71.601333,35.213333)" />
    <path
       id="path11"
       d="m 85.04042,15.59082 c 0.59775,1.19554 1.99255,1.99255 3.98511,1.99255 h 34.54999 c 1.99255,0 3.38737,0.79702 3.9851,1.99256 0.59775,-1.19554 1.99256,-1.99256 3.98511,-1.99256 h 34.55002 c 1.99255,0 3.38736,-0.79701 3.98511,-1.99255"
       style="fill:none;stroke:#000000;stroke-width:0.3985;stroke-linecap:round;stroke-linejoin:miter;stroke-miterlimit:10;stroke-dasharray:none;stroke-opacity:1"
       transform="matrix(1.3333333,0,0,-1.3333333,18.418667,66.425333)" />
    <path
       id="path12"
       d="m 3.3294687,-3.0105859 c 0.058594,-0.2578125 0.2929688,-1.171875 0.984375,-1.171875 0.046875,0 0.2929688,0 0.5039063,0.1289062 -0.28125,0.046875 -0.4804688,0.3046875 -0.4804688,0.5390625 0,0.1640625 0.1054688,0.3515625 0.375,0.3515625 0.2226563,0 0.5390625,-0.1875 0.5390625,-0.5859375 0,-0.515625 -0.5859375,-0.65625 -0.9257812,-0.65625 -0.5742188,0 -0.9257813,0.5273438 -1.0429688,0.7617188 -0.2578125,-0.65625 -0.7851562,-0.7617188 -1.078125,-0.7617188 -1.0429687,0 -1.6054687,1.2890625 -1.6054687,1.5351563 0,0.1054687 0.10546875,0.1054687 0.1171875,0.1054687 0.0820313,0 0.1171875,-0.023437 0.12890625,-0.1171875 0.33984375,-1.0546875 0.99609375,-1.3007812 1.33593745,-1.3007812 0.1875,0 0.5390625,0.09375 0.5390625,0.6679687 0,0.3046875 -0.1640625,0.9726563 -0.5390625,2.3671875 -0.1523437,0.62109376 -0.5039062,1.04296876 -0.9492187,1.04296876 -0.058594,0 -0.28125,0 -0.4921875,-0.12890625 0.24609375,-0.0585938 0.46875,-0.26953125 0.46875,-0.5390625 0,-0.26953121 -0.22265625,-0.35156251 -0.375,-0.35156251 -0.29296875,0 -0.5390625,0.25781251 -0.5390625,0.57421876 0,0.45703125 0.4921875,0.65625 0.9375,0.65625 0.65625,0 1.0078125,-0.69140625 1.0429687,-0.75 0.1171875,0.36328125 0.4804688,0.75 1.078125,0.75 1.0195313,0 1.59375,-1.27734376 1.59375,-1.53515626 0,-0.09375 -0.09375,-0.09375 -0.1289062,-0.09375 -0.082031,0 -0.1054688,0.035156 -0.1289063,0.1054688 -0.328125,1.06640621 -0.9960937,1.31249996 -1.3242187,1.31249996 -0.3867188,0 -0.5390625,-0.328125 -0.5390625,-0.65625 0,-0.22265625 0.058594,-0.44531246 0.1640625,-0.87890626 z m 0,0"
       style="fill:#000000;fill-opacity:1;fill-rule:nonzero;stroke:none"
       aria-label="x"
       transform="matrix(1.3333333,0,0,1.3333333,184.70133,35.213333)" />
    <path
       id="path13"
       d="m 170.08086,15.59082 c 0.59773,1.19554 1.99255,1.99255 3.9851,1.99255 h 34.54999 c 1.99255,0 3.38736,0.79702 3.98511,1.99256 0.59774,-1.19554 1.99255,-1.99256 3.98511,-1.99256 h 34.55 c 1.99255,0 3.38737,-0.79701 3.98511,-1.99255"
       style="fill:none;stroke:#000000;stroke-width:0.3985;stroke-linecap:round;stroke-linejoin:miter;stroke-miterlimit:10;stroke-dasharray:none;stroke-opacity:1"
       transform="matrix(1.3333333,0,0,-1.3333333,18.418667,66.425333)" />
    <path
       id="path14"
       d="m 4.8388828,-3.7974687 c 0.046875,-0.140625 0.046875,-0.1523438 0.046875,-0.2226563 0,-0.1875 -0.140625,-0.2695312 -0.2929687,-0.2695312 -0.1054688,0 -0.2578125,0.058594 -0.3515625,0.1992187 -0.023437,0.058594 -0.09375,0.3632813 -0.140625,0.5390625 -0.070312,0.2578125 -0.140625,0.5273438 -0.1992188,0.796875 l -0.4453125,1.79296875 c -0.035156,0.15234375 -0.46875,0.85546875 -1.125,0.85546875 -0.5039062,0 -0.6210937,-0.4453125 -0.6210937,-0.80859375 0,-0.45703125 0.1757812,-1.07812495 0.515625,-1.95703125 0.1523437,-0.4101562 0.1992187,-0.515625 0.1992187,-0.7148437 0,-0.4453125 -0.328125,-0.8203125 -0.8203125,-0.8203125 -0.94921874,0 -1.31249999,1.453125 -1.31249999,1.5351562 0,0.1054688 0.09375,0.1054688 0.1171875,0.1054688 0.09375,0 0.10546875,-0.023437 0.15234375,-0.1875 0.26953125,-0.9375 0.66796874,-1.2304688 1.00781254,-1.2304688 0.082031,0 0.2578125,0 0.2578125,0.3164063 0,0.2460937 -0.1054688,0.515625 -0.1757813,0.703125 -0.3984375,1.0546875 -0.5742187,1.6171875 -0.5742187,2.0859375 0,0.89062495 0.6210937,1.1835937 1.21875,1.1835937 0.3867187,0 0.7265625,-0.1640625 0.9960937,-0.4453125 C 3.1631016,0.1751875 3.0459141,0.667375 2.6474766,1.1947188 2.3896641,1.5345625 2.0146641,1.8275313 1.5576328,1.8275313 c -0.140625,0 -0.59765624,-0.035156 -0.76171874,-0.421875 0.1640625,0 0.29296874,0 0.43359374,-0.1171875 0.09375,-0.09375 0.1992188,-0.2226563 0.1992188,-0.4101563 0,-0.31640625 -0.2695313,-0.3515625 -0.375,-0.3515625 -0.22265629,0 -0.55078129,0.1640625 -0.55078129,0.6445313 0,0.5039062 0.43359375,0.8671875 1.05468749,0.8671875 1.0195313,0 2.0507813,-0.9023438 2.3320313,-2.0273438 z m 0,0"
       style="fill:#000000;fill-opacity:1;fill-rule:nonzero;stroke:none"
       aria-label="y"
       transform="matrix(1.3333333,0,0,1.3333333,298.388,33.922667)" />
    <path
       id="path15"
       d="m 255.12128,15.59082 c 0.59774,1.19554 1.99255,1.99255 3.9851,1.99255 h 34.55001 c 1.99255,0 3.38736,0.79702 3.98511,1.99256 0.59773,-1.19554 1.99255,-1.99256 3.9851,-1.99256 h 34.55 c 1.99256,0 3.38736,-0.79701 3.98511,-1.99255"
       style="fill:none;stroke:#000000;stroke-width:0.3985;stroke-linecap:round;stroke-linejoin:miter;stroke-miterlimit:10;stroke-dasharray:none;stroke-opacity:1"
       transform="matrix(1.3333333,0,0,-1.3333333,18.418667,66.425333)" />
    <path
       id="path16"
       d="m 2.3783828,-6.8099609 c 0,0 0,-0.1054688 -0.1289062,-0.1054688 -0.2226563,0 -0.9492188,0.082031 -1.21875,0.1054688 -0.0703125,0 -0.18750004,0.011719 -0.18750004,0.1992187 0,0.1171875 0.09375,0.1171875 0.24609374,0.1171875 0.46875,0 0.4921875,0.070312 0.4921875,0.1640625 0,0.070312 -0.082031,0.4101563 -0.140625,0.6210938 l -0.80859374,3.2460937 c -0.12890625,0.5039063 -0.1640625,0.65625 -0.1640625,1.0078125 0,0.94921876 0.52734375,1.55859376 1.26562504,1.55859376 1.171875,0 2.4023437,-1.47656246 2.4023437,-2.91796876 0,-0.9023437 -0.5273437,-1.59375 -1.3242187,-1.59375 -0.4570313,0 -0.8671875,0.2929688 -1.171875,0.5976563 z m -0.9375,3.7734375 c 0.058594,-0.2226563 0.058594,-0.2460938 0.1523438,-0.3515625 0.4921875,-0.6445313 0.9375,-0.796875 1.1953125,-0.796875 0.3632812,0 0.6328125,0.2929687 0.6328125,0.9375 0,0.5859375 -0.328125,1.734375 -0.515625,2.109375 -0.328125,0.66796871 -0.7851563,1.03124996 -1.171875,1.03124996 -0.3398438,0 -0.6679688,-0.26953125 -0.6679688,-1.00781246 0,-0.1875 0,-0.3867188 0.1640625,-1.0078125 z m 0,0"
       style="fill:#000000;fill-opacity:1;fill-rule:nonzero;stroke:none"
       aria-label="b"
       transform="matrix(1.3333333,0,0,1.3333333,412.41867,36.966667)" />
    <path
       id="path17"
       d="M 5.800625,-6.7743203 H 0.32796875 v 0.3046875 h 0.234375 c 0.77343755,0 0.79687505,0.1171875 0.79687505,0.46875 v 5.22656249 c 0,0.3515625 -0.023437,0.46875 -0.79687505,0.46875 h -0.234375 V -8.828125e-4 C 0.67953125,-0.03603906 1.4529688,-0.03603906 1.8396875,-0.03603906 c 0.4101563,0 1.3125,0 1.6757813,0.0351562475 V -0.30557031 h -0.328125 c -0.9492188,0 -0.9492188,-0.12890625 -0.9492188,-0.48046875 V -3.2352578 h 0.8554688 c 0.9609375,0 1.0546875,0.3164062 1.0546875,1.1601562 H 4.4060938 V -4.7118203 H 4.1482813 c 0,0.8320312 -0.09375,1.1601562 -1.0546875,1.1601562 H 2.238125 v -2.5195312 c 0,-0.328125 0.023437,-0.3984375 0.4921875,-0.3984375 H 3.925625 c 1.4882813,0 1.7460938,0.5625 1.8984375,1.9335937 H 6.081875 Z m 2.4609375,2.3671875 -1.3945312,0.1171875 v 0.3046875 c 0.65625,0 0.7382812,0.058594 0.7382812,0.5507812 v 2.67187504 c 0,0.45703125 -0.1054687,0.45703125 -0.7734375,0.45703125 V -8.828125e-4 C 7.1482813,-0.01260156 7.6873438,-0.03603906 7.9334375,-0.03603906 c 0.3398438,0 0.6914063,0.0234375 1.03125,0.0351562475 V -0.30557031 c -0.65625,0 -0.703125,-0.0585938 -0.703125,-0.4453125 z m 0.046875,-1.734375 c 0,-0.3164063 -0.2460937,-0.5273438 -0.5273437,-0.5273438 -0.3164063,0 -0.5273438,0.2695313 -0.5273438,0.5273438 0,0.2695312 0.2109375,0.5273437 0.5273438,0.5273437 0.28125,0 0.5273437,-0.1992187 0.5273437,-0.5273437 z m 2.6279295,2.8359375 v -1.1015625 l -1.3828123,0.1171875 v 0.3046875 c 0.6914063,0 0.7734373,0.070312 0.7734373,0.5625 v 2.66015624 c 0,0.45703125 -0.105469,0.45703125 -0.7734373,0.45703125 V -8.828125e-4 C 9.9402734,-0.01260156 10.409023,-0.03603906 10.690273,-0.03603906 c 0.398438,0 0.867188,0 1.265625,0.0351562475 V -0.30557031 h -0.210937 c -0.738281,0 -0.761719,-0.1171875 -0.761719,-0.46875 V -2.3094766 c 0,-0.984375 0.421875,-1.875 1.183594,-1.875 0.05859,0 0.08203,0 0.105469,0.011719 -0.03516,0.011719 -0.234375,0.1289062 -0.234375,0.3867187 0,0.28125 0.210937,0.4335938 0.433593,0.4335938 0.175782,0 0.421875,-0.1289063 0.421875,-0.4453125 0,-0.3164063 -0.304687,-0.609375 -0.726562,-0.609375 -0.738281,0 -1.089844,0.6679687 -1.230469,1.1015623 z m 3.339844,-0.1171875 v 2.66015624 c 0,0.45703125 -0.117188,0.45703125 -0.785156,0.45703125 v 0.3046874975 c 0.351562,-0.0117187475 0.855468,-0.0351562475 1.125,-0.0351562475 0.257812,0 0.785156,0.0234375 1.113281,0.0351562475 V -0.30557031 c -0.65625,0 -0.773438,0 -0.773438,-0.45703125 V -2.5907266 c 0,-1.03125 0.714844,-1.59375 1.347657,-1.59375 0.621093,0 0.738281,0.5390625 0.738281,1.1015625 v 2.32031254 c 0,0.45703125 -0.117188,0.45703125 -0.773438,0.45703125 v 0.3046874975 c 0.339844,-0.0117187475 0.855469,-0.0351562475 1.125,-0.0351562475 0.257813,0 0.773438,0.0234375 1.113282,0.0351562475 V -0.30557031 c -0.667969,0 -0.785157,0 -0.785157,-0.45703125 V -2.5907266 c 0,-1.03125 0.714844,-1.59375 1.347657,-1.59375 0.632812,0 0.738281,0.5390625 0.738281,1.1015625 v 2.32031254 c 0,0.45703125 -0.105469,0.45703125 -0.773438,0.45703125 v 0.3046874975 c 0.351563,-0.0117187475 0.855469,-0.0351562475 1.125,-0.0351562475 0.257813,0 0.773438,0.0234375 1.113282,0.0351562475 V -0.30557031 c -0.515625,0 -0.761719,0 -0.773438,-0.3046875 V -2.5086953 c 0,-0.8554688 0,-1.171875 -0.316406,-1.5234375 -0.128906,-0.1757813 -0.46875,-0.375 -1.042969,-0.375 -0.832031,0 -1.277344,0.5976562 -1.441406,0.984375 -0.140625,-0.8671875 -0.878906,-0.984375 -1.324219,-0.984375 -0.726562,0 -1.195312,0.4335937 -1.476562,1.0546875 v -1.0546875 l -1.40625,0.1171875 v 0.3046875 c 0.703125,0 0.785156,0.070312 0.785156,0.5625 z m 13.447266,-2.953125 c 0,-0.234375 0,-0.2578125 -0.234375,-0.2578125 -0.609375,0.6328125 -1.488282,0.6328125 -1.804688,0.6328125 v 0.3164062 c 0.199219,0 0.785156,0 1.300781,-0.2578125 v 5.15625004 c 0,0.3515625 -0.03516,0.48046875 -0.925781,0.48046875 H 25.743008 V -8.828125e-4 C 26.09457,-0.03603906 26.950039,-0.03603906 27.348477,-0.03603906 c 0.398437,0 1.265625,0 1.617187,0.0351562475 V -0.30557031 h -0.316406 c -0.902344,0 -0.925781,-0.1171875 -0.925781,-0.48046875 z m 0,0"
       style="fill:#000000;fill-opacity:1;fill-rule:nonzero;stroke:none"
       aria-label="Firm1"
       transform="matrix(1.3333333,0,0,1.3333333,111.95333,16.161333)" />
    <path
       id="path18"
       d="M 85.04042,34.01608 V 5.39398"
       style="fill:none;stroke:#000000;stroke-width:0.3985;stroke-linecap:round;stroke-linejoin:miter;stroke-miterlimit:10;stroke-dasharray:none;stroke-opacity:1"
       transform="matrix(1.3333333,0,0,-1.3333333,18.418667,66.425333)" />
    <path
       id="path19"
       d="M 1.99252,0 -1.19551,1.59401 0,0 -1.19551,-1.59401"
       style="fill:#000000;fill-opacity:1;fill-rule:nonzero;stroke:none"
       transform="matrix(0,1.3333333,1.3333333,0,131.80589,59.23336)" />
    <path
       id="path20"
       d="M 5.7997734,-6.7743203 H 0.32711719 v 0.3046875 h 0.234375 c 0.77343751,0 0.79687501,0.1171875 0.79687501,0.46875 v 5.22656249 c 0,0.3515625 -0.023437,0.46875 -0.79687501,0.46875 h -0.234375 V -8.828125e-4 C 0.67867969,-0.03603906 1.4521172,-0.03603906 1.8388359,-0.03603906 c 0.4101563,0 1.3125,0 1.6757813,0.0351562475 V -0.30557031 h -0.328125 c -0.9492188,0 -0.9492188,-0.12890625 -0.9492188,-0.48046875 V -3.2352578 h 0.8554688 c 0.9609375,0 1.0546875,0.3164062 1.0546875,1.1601562 H 4.4052422 V -4.7118203 H 4.1474297 c 0,0.8320312 -0.09375,1.1601562 -1.0546875,1.1601562 H 2.2372734 v -2.5195312 c 0,-0.328125 0.023437,-0.3984375 0.4921875,-0.3984375 h 1.1953125 c 1.4882813,0 1.7460938,0.5625 1.8984375,1.9335937 h 0.2578125 z m 2.4609375,2.3671875 -1.3945312,0.1171875 v 0.3046875 c 0.65625,0 0.7382812,0.058594 0.7382812,0.5507812 v 2.67187504 c 0,0.45703125 -0.1054687,0.45703125 -0.7734375,0.45703125 V -8.828125e-4 C 7.1474297,-0.01260156 7.6864922,-0.03603906 7.9325859,-0.03603906 c 0.3398438,0 0.6914063,0.0234375 1.03125,0.0351562475 V -0.30557031 c -0.65625,0 -0.703125,-0.0585938 -0.703125,-0.4453125 z m 0.046875,-1.734375 c 0,-0.3164063 -0.2460937,-0.5273438 -0.5273437,-0.5273438 -0.3164063,0 -0.5273438,0.2695313 -0.5273438,0.5273438 0,0.2695312 0.2109375,0.5273437 0.5273438,0.5273437 0.28125,0 0.5273437,-0.1992187 0.5273437,-0.5273437 z m 2.6279301,2.8359375 v -1.1015625 l -1.3828129,0.1171875 v 0.3046875 c 0.6914059,0 0.7734379,0.070312 0.7734379,0.5625 v 2.66015624 c 0,0.45703125 -0.105469,0.45703125 -0.7734379,0.45703125 V -8.828125e-4 C 9.9394219,-0.01260156 10.408172,-0.03603906 10.689422,-0.03603906 c 0.398437,0 0.867187,0 1.265625,0.0351562475 V -0.30557031 h -0.210938 c -0.738281,0 -0.761718,-0.1171875 -0.761718,-0.46875 V -2.3094766 c 0,-0.984375 0.421875,-1.875 1.183593,-1.875 0.05859,0 0.08203,0 0.105469,0.011719 -0.03516,0.011719 -0.234375,0.1289062 -0.234375,0.3867187 0,0.28125 0.210938,0.4335938 0.433594,0.4335938 0.175781,0 0.421875,-0.1289063 0.421875,-0.4453125 0,-0.3164063 -0.304688,-0.609375 -0.726563,-0.609375 -0.738281,0 -1.089843,0.6679687 -1.230468,1.1015623 z m 3.339843,-0.1171875 v 2.66015624 c 0,0.45703125 -0.117187,0.45703125 -0.785156,0.45703125 v 0.3046874975 c 0.351563,-0.0117187475 0.855469,-0.0351562475 1.125,-0.0351562475 0.257813,0 0.785156,0.0234375 1.113281,0.0351562475 V -0.30557031 c -0.65625,0 -0.773437,0 -0.773437,-0.45703125 V -2.5907266 c 0,-1.03125 0.714844,-1.59375 1.347656,-1.59375 0.621094,0 0.738281,0.5390625 0.738281,1.1015625 v 2.32031254 c 0,0.45703125 -0.117187,0.45703125 -0.773437,0.45703125 v 0.3046874975 c 0.339844,-0.0117187475 0.855469,-0.0351562475 1.125,-0.0351562475 0.257812,0 0.773437,0.0234375 1.113281,0.0351562475 V -0.30557031 c -0.667969,0 -0.785156,0 -0.785156,-0.45703125 V -2.5907266 c 0,-1.03125 0.714844,-1.59375 1.347656,-1.59375 0.632813,0 0.738281,0.5390625 0.738281,1.1015625 v 2.32031254 c 0,0.45703125 -0.105468,0.45703125 -0.773437,0.45703125 v 0.3046874975 c 0.351562,-0.0117187475 0.855469,-0.0351562475 1.125,-0.0351562475 0.257812,0 0.773437,0.0234375 1.113281,0.0351562475 V -0.30557031 c -0.515625,0 -0.761719,0 -0.773437,-0.3046875 V -2.5086953 c 0,-0.8554688 0,-1.171875 -0.316407,-1.5234375 -0.128906,-0.1757813 -0.46875,-0.375 -1.042968,-0.375 -0.832032,0 -1.277344,0.5976562 -1.441407,0.984375 -0.140625,-0.8671875 -0.878906,-0.984375 -1.324218,-0.984375 -0.726563,0 -1.195313,0.4335937 -1.476563,1.0546875 v -1.0546875 l -1.40625,0.1171875 v 0.3046875 c 0.703125,0 0.785156,0.070312 0.785156,0.5625 z m 11.783204,2.66015624 1.054687,-1.03125004 c 1.558594,-1.3710937 2.15625,-1.9101562 2.15625,-2.90625 0,-1.1367187 -0.902344,-1.9335937 -2.121094,-1.9335937 -1.125,0 -1.851562,0.9140625 -1.851562,1.8046875 0,0.5507812 0.492187,0.5507812 0.527344,0.5507812 0.164062,0 0.515625,-0.1171875 0.515625,-0.5273437 0,-0.2578125 -0.1875,-0.515625 -0.527344,-0.515625 -0.08203,0 -0.105469,0 -0.128906,0.011719 0.222656,-0.6445312 0.761718,-1.0195312 1.335937,-1.0195312 0.914063,0 1.335938,0.8085937 1.335938,1.6289062 0,0.796875 -0.492188,1.5820313 -1.042969,2.203125 l -1.910156,2.13281254 c -0.105469,0.10546875 -0.105469,0.12890625 -0.105469,0.3632812475 H 28.98825 L 29.2695,-1.7352578 h -0.257812 c -0.04687,0.3046875 -0.117188,0.73828124 -0.210938,0.89062499 -0.07031,0.0820313 -0.726562,0.0820313 -0.949219,0.0820313 z m 0,0"
       style="fill:#000000;fill-opacity:1;fill-rule:nonzero;stroke:none"
       aria-label="Firm2"
       transform="matrix(1.3333333,0,0,1.3333333,338.724,16.161333)" />
    <path
       id="path21"
       d="M 255.12128,34.01608 V 5.39398"
       style="fill:none;stroke:#000000;stroke-width:0.3985;stroke-linecap:round;stroke-linejoin:miter;stroke-miterlimit:10;stroke-dasharray:none;stroke-opacity:1"
       transform="matrix(1.3333333,0,0,-1.3333333,18.418667,66.425333)" />
    <path
       id="path22"
       d="M 1.99252,0 -1.19551,1.59401 0,0 -1.19551,-1.59401"
       style="fill:#000000;fill-opacity:1;fill-rule:nonzero;stroke:none"
       transform="matrix(0,1.3333333,1.3333333,0,358.58037,59.23336)" />
    <path
       id="path23"
       d="M 2.4034609,-6.5865 C 2.3097109,-6.8091562 2.2862734,-6.8091562 2.0518984,-6.8091562 H 0.36439844 V -6.49275 h 0.24609375 c 0.76171871,0 0.78515621,0.1054688 0.78515621,0.46875 v 4.9804688 c 0,0.2695312 0,0.7382812 -1.03124996,0.7382812 v 0.3046875 c 0.3515625,-0.01171875 0.84374996,-0.03515625 1.17187496,-0.03515625 0.328125,0 0.8203125,0.0234375 1.1601563,0.03515625 V -0.30525 c -1.0195313,0 -1.0195313,-0.46875 -1.0195313,-0.7382812 v -5.3671875 h 0.011719 l 2.4023437,6.18749995 c 0.046875,0.12890625 0.09375,0.22265625 0.1992188,0.22265625 0.1054687,0 0.1289062,-0.08203125 0.1757812,-0.1875 L 6.9151797,-6.49275 h 0.011719 V -0.774 c 0,0.3515625 -0.023437,0.46875 -0.7851562,0.46875 H 5.8956484 v 0.3046875 c 0.375,-0.03515625 1.0429688,-0.03515625 1.4414063,-0.03515625 0.3867187,0 1.0546875,0 1.4179687,0.03515625 V -0.30525 h -0.234375 c -0.7734375,0 -0.7851562,-0.1171875 -0.7851562,-0.46875 v -5.25 c 0,-0.3632812 0.011719,-0.46875 0.7851562,-0.46875 h 0.234375 V -6.8091562 H 7.0792422 c -0.2695313,0 -0.2695313,0.011719 -0.3398438,0.1992187 L 4.5597109,-1.008375 Z m 10.0458981,5.82421875 c 0.03516,0.3984375 0.304688,0.8203125 0.773438,0.8203125 0.210937,0 0.820312,-0.140625 0.820312,-0.94921875 v -0.5507812 h -0.246093 v 0.5507812 c 0,0.5859375 -0.246094,0.64453125 -0.363282,0.64453125 -0.328125,0 -0.363281,-0.45703125 -0.363281,-0.50390625 V -2.74275 c 0,-0.4101562 0,-0.8085937 -0.363281,-1.171875 -0.386719,-0.3867187 -0.878906,-0.5507812 -1.359375,-0.5507812 -0.820313,0 -1.5117189,0.46875 -1.5117189,1.125 0,0.3046875 0.1992189,0.46875 0.4570309,0.46875 0.28125,0 0.46875,-0.1992188 0.46875,-0.4570313 0,-0.1171875 -0.05859,-0.4453125 -0.515625,-0.4570312 0.269532,-0.3515625 0.761719,-0.4570313 1.078125,-0.4570313 0.492188,0 1.054688,0.3867188 1.054688,1.2773438 v 0.3632812 c -0.503906,0.035156 -1.207031,0.058594 -1.828125,0.3632813 C 9.8009219,-1.899 9.5548281,-1.383375 9.5548281,-0.94978125 c 0,0.80859375 0.9609379,1.0546875 1.5937499,1.0546875 0.65625,0 1.113281,-0.3984375 1.300781,-0.8671875 z m -0.07031,-1.62890625 v 0.9960938 c 0,0.9492187 -0.714844,1.28906245 -1.160156,1.28906245 -0.492188,0 -0.902344,-0.3515625 -0.902344,-0.85546875 0,-0.5390625 0.421875,-1.3710937 2.0625,-1.4296875 z M 15.777484,-3.30525 v -1.1015625 l -1.382812,0.1171875 v 0.3046875 c 0.691406,0 0.773437,0.070312 0.773437,0.5625 v 2.66015625 c 0,0.45703125 -0.105468,0.45703125 -0.773437,0.45703125 v 0.3046875 c 0.386719,-0.01171875 0.855469,-0.03515625 1.136719,-0.03515625 0.398437,0 0.867187,0 1.265625,0.03515625 V -0.30525 h -0.210938 c -0.738281,0 -0.761719,-0.1171875 -0.761719,-0.46875 v -1.5351562 c 0,-0.984375 0.421875,-1.875 1.183594,-1.875 0.05859,0 0.08203,0 0.105469,0.011719 -0.03516,0.011719 -0.234375,0.1289063 -0.234375,0.3867188 0,0.28125 0.210937,0.4335937 0.433594,0.4335937 0.175781,0 0.421875,-0.1289062 0.421875,-0.4453125 0,-0.3164062 -0.304688,-0.609375 -0.726563,-0.609375 -0.738281,0 -1.089844,0.6679688 -1.230469,1.1015622 z m 4.453125,1.59375 c -0.867187,0 -0.867187,-0.9960937 -0.867187,-1.2304687 0,-0.2695313 0.01172,-0.5859375 0.152344,-0.8320313 0.08203,-0.1171875 0.316406,-0.3984375 0.714843,-0.3984375 0.867188,0 0.867188,0.9960938 0.867188,1.21875 0,0.2695313 -0.01172,0.5976563 -0.164063,0.84375 C 20.851703,-1.99275 20.629047,-1.7115 20.230609,-1.7115 Z m -1.160156,0.3867188 c 0,-0.035156 0,-0.2695313 0.175781,-0.46875 0.386719,0.28125 0.796875,0.3046875 0.984375,0.3046875 0.925782,0 1.605469,-0.6796875 1.605469,-1.453125 0,-0.3632813 -0.152344,-0.7382813 -0.398437,-0.9609375 0.351562,-0.3398438 0.714843,-0.3867188 0.890625,-0.3867188 0.02344,0 0.07031,0 0.105468,0 -0.117187,0.046875 -0.164062,0.1523438 -0.164062,0.2695313 0,0.1757812 0.128906,0.2929687 0.292969,0.2929687 0.09375,0 0.28125,-0.070312 0.28125,-0.2929687 0,-0.1757813 -0.117188,-0.4921875 -0.503907,-0.4921875 -0.199218,0 -0.632812,0.058594 -1.054687,0.46875 -0.421875,-0.328125 -0.84375,-0.3632813 -1.054688,-0.3632813 -0.925781,0 -1.617187,0.6914063 -1.617187,1.453125 0,0.4453125 0.222656,0.8203125 0.46875,1.03125 -0.128906,0.1523438 -0.304688,0.4804688 -0.304688,0.8203125 0,0.31640625 0.128907,0.69140625 0.433594,0.890625 -0.597656,0.17578125 -0.914062,0.59765625 -0.914062,0.99609375 0,0.71484375 0.984375,1.26562505 2.203125,1.26562505 1.171875,0 2.203125,-0.5039063 2.203125,-1.28906255 0,-0.33984375 -0.140625,-0.85546875 -0.644532,-1.125 -0.527343,-0.28125 -1.101562,-0.28125 -1.710937,-0.28125 -0.246094,0 -0.679688,0 -0.75,-0.0117188 -0.316406,-0.046875 -0.527344,-0.35156255 -0.527344,-0.66796865 z m 1.441406,3.1523437 c -1.007812,0 -1.699218,-0.515625 -1.699218,-1.04296875 0,-0.45703125 0.375,-0.8203125 0.820312,-0.85546875 h 0.585938 c 0.855468,0 1.96875,0 1.96875,0.85546875 0,0.53906255 -0.703125,1.04296875 -1.675782,1.04296875 z m 4.242188,-6.234375 -1.394531,0.1171875 v 0.3046875 c 0.65625,0 0.738281,0.058594 0.738281,0.5507813 v 2.67187495 c 0,0.45703125 -0.105469,0.45703125 -0.773438,0.45703125 v 0.3046875 c 0.316407,-0.01171875 0.855469,-0.03515625 1.101563,-0.03515625 0.339844,0 0.691406,0.0234375 1.03125,0.03515625 V -0.30525 c -0.65625,0 -0.703125,-0.0585938 -0.703125,-0.4453125 z m 0.04687,-1.734375 c 0,-0.3164062 -0.246094,-0.5273437 -0.527344,-0.5273437 -0.316406,0 -0.527344,0.2695312 -0.527344,0.5273437 0,0.2695313 0.210938,0.5273438 0.527344,0.5273438 0.28125,0 0.527344,-0.1992188 0.527344,-0.5273438 z m 2.06543,2.71875 v 2.66015625 c 0,0.45703125 -0.117188,0.45703125 -0.785157,0.45703125 v 0.3046875 c 0.351563,-0.01171875 0.855469,-0.03515625 1.125,-0.03515625 0.257813,0 0.785157,0.0234375 1.113282,0.03515625 V -0.30525 c -0.65625,0 -0.773438,0 -0.773438,-0.45703125 V -2.5904062 c 0,-1.03125 0.714844,-1.59375 1.347656,-1.59375 0.621094,0 0.738282,0.5390625 0.738282,1.1015625 v 2.32031245 c 0,0.45703125 -0.117188,0.45703125 -0.773438,0.45703125 v 0.3046875 c 0.339844,-0.01171875 0.855469,-0.03515625 1.125,-0.03515625 0.257813,0 0.773438,0.0234375 1.113281,0.03515625 V -0.30525 c -0.515625,0 -0.773437,0 -0.785156,-0.3046875 V -2.508375 c 0,-0.8554687 0,-1.171875 -0.304687,-1.5234375 -0.140625,-0.1757812 -0.46875,-0.375 -1.042969,-0.375 -0.726563,0 -1.195313,0.4335938 -1.476563,1.0546875 v -1.0546875 l -1.40625,0.1171875 v 0.3046875 c 0.703125,0 0.785157,0.070312 0.785157,0.5625 z m 7.751953,2.66015625 c 0.03516,0.3984375 0.304687,0.8203125 0.773437,0.8203125 0.210938,0 0.820313,-0.140625 0.820313,-0.94921875 v -0.5507812 h -0.246094 v 0.5507812 c 0,0.5859375 -0.246094,0.64453125 -0.363281,0.64453125 -0.328125,0 -0.363282,-0.45703125 -0.363282,-0.50390625 V -2.74275 c 0,-0.4101562 0,-0.8085937 -0.363281,-1.171875 -0.386719,-0.3867187 -0.878906,-0.5507812 -1.359375,-0.5507812 -0.820312,0 -1.511719,0.46875 -1.511719,1.125 0,0.3046875 0.199219,0.46875 0.457032,0.46875 0.28125,0 0.46875,-0.1992188 0.46875,-0.4570313 0,-0.1171875 -0.05859,-0.4453125 -0.515625,-0.4570312 0.269531,-0.3515625 0.761718,-0.4570313 1.078125,-0.4570313 0.492187,0 1.054687,0.3867188 1.054687,1.2773438 v 0.3632812 c -0.503906,0.035156 -1.207031,0.058594 -1.828125,0.3632813 -0.75,0.3398437 -0.996094,0.8554687 -0.996094,1.28906245 0,0.80859375 0.960938,1.0546875 1.59375,1.0546875 0.65625,0 1.113282,-0.3984375 1.300782,-0.8671875 z M 34.54799,-2.3911875 v 0.9960938 c 0,0.9492187 -0.714844,1.28906245 -1.160156,1.28906245 -0.492188,0 -0.902344,-0.3515625 -0.902344,-0.85546875 0,-0.5390625 0.421875,-1.3710937 2.0625,-1.4296875 z m 3.49219,-4.5234375 -1.429688,0.1054688 V -6.49275 c 0.703125,0 0.773438,0.070312 0.773438,0.5507813 v 5.17968745 c 0,0.45703125 -0.105469,0.45703125 -0.773438,0.45703125 v 0.3046875 c 0.328125,-0.01171875 0.855469,-0.03515625 1.101563,-0.03515625 0.257812,0 0.738281,0.0234375 1.113281,0.03515625 V -0.30525 c -0.667969,0 -0.785156,0 -0.785156,-0.45703125 z M 0.16225,9.7875234 c 0,-1.6289062 0.8203125,-2.0507812 1.3476563,-2.0507812 0.09375,0 0.7148437,0.011719 1.0664062,0.375 -0.4101562,0.023437 -0.46875,0.328125 -0.46875,0.4570312 0,0.2578125 0.1875,0.4570313 0.4570313,0.4570313 0.2578125,0 0.4570312,-0.1640625 0.4570312,-0.46875 0,-0.6796875 -0.75,-1.0664063 -1.5234375,-1.0664063 -1.2421875,0 -2.15625,1.078125 -2.15625,2.3085938 0,1.2773438 0.984375,2.2617188 2.1445313,2.2617188 1.3359375,0 1.6523437,-1.195313 1.6523437,-1.289063 0,-0.105468 -0.1054687,-0.105468 -0.1289062,-0.105468 -0.09375,0 -0.1171875,0.04687 -0.1289063,0.105468 -0.2929687,0.925782 -0.9375,1.042969 -1.3125,1.042969 -0.5273437,0 -1.40625,-0.421875 -1.40625,-2.0273436 z m 7.9570313,0.035156 c 0,-1.2773438 -0.9960938,-2.3320313 -2.1914063,-2.3320313 -1.2539062,0 -2.2148437,1.0898438 -2.2148437,2.3320313 0,1.2890626 1.03125,2.2382816 2.203125,2.2382816 1.2070312,0 2.203125,-0.972656 2.203125,-2.2382816 z M 5.927875,11.814867 c -0.4335937,0 -0.8671875,-0.210937 -1.1367187,-0.667969 C 4.5333438,10.713305 4.5333438,10.10393 4.5333438,9.7406484 c 0,-0.3867187 0,-0.9257812 0.2460937,-1.359375 0.2695313,-0.4570312 0.7382813,-0.6679687 1.1367188,-0.6679687 0.4335937,0 0.8671875,0.2226562 1.125,0.6445312 0.2578125,0.4335938 0.2578125,1.0078125 0.2578125,1.3828125 0,0.3632816 0,0.9023436 -0.2226563,1.3359376 -0.2226562,0.445312 -0.65625,0.738281 -1.1484375,0.738281 z M 9.5138125,8.5336172 v 2.6601558 c 0,0.457032 -0.1171875,0.457032 -0.7851562,0.457032 v 0.304687 c 0.3515625,-0.01172 0.8554687,-0.03516 1.125,-0.03516 0.2578127,0 0.7851567,0.02344 1.1132817,0.03516 v -0.304687 c -0.65625,0 -0.773438,0 -0.773438,-0.457032 V 9.3656484 c 0,-1.03125 0.714844,-1.59375 1.347656,-1.59375 0.621094,0 0.738282,0.5390625 0.738282,1.1015625 v 2.3203121 c 0,0.457032 -0.117188,0.457032 -0.773438,0.457032 v 0.304687 c 0.339844,-0.01172 0.855469,-0.03516 1.125,-0.03516 0.257813,0 0.773438,0.02344 1.113281,0.03516 v -0.304687 c -0.515625,0 -0.773437,0 -0.785156,-0.304688 V 9.4476797 c 0,-0.8554688 0,-1.171875 -0.304687,-1.5234375 -0.140625,-0.1757813 -0.46875,-0.375 -1.042969,-0.375 -0.726563,0 -1.195313,0.4335937 -1.476563,1.0546875 V 7.5492422 L 8.7286563,7.6664297 v 0.3046875 c 0.703125,0 0.7851562,0.070312 0.7851562,0.5625 z m 6.5068355,1.4882808 c 0.222657,0.03516 1.03125,0.199219 1.03125,0.914063 0,0.515625 -0.351562,0.914062 -1.125,0.914062 -0.832031,0 -1.195312,-0.574218 -1.382812,-1.417968 -0.03516,-0.128907 -0.03516,-0.175782 -0.140625,-0.175782 -0.128906,0 -0.128906,0.07031 -0.128906,0.257813 v 1.3125 c 0,0.164062 0,0.234375 0.105468,0.234375 0.05859,0 0.07031,0 0.257813,-0.199219 0.01172,-0.01172 0.01172,-0.03516 0.199219,-0.222656 0.433593,0.421875 0.878906,0.421875 1.089843,0.421875 1.148438,0 1.605469,-0.667969 1.605469,-1.382813 0,-0.527343 -0.292969,-0.8203121 -0.421875,-0.9492183 -0.328125,-0.3164063 -0.714844,-0.3984375 -1.136719,-0.46875 -0.550781,-0.1171875 -1.21875,-0.2460938 -1.21875,-0.8203125 0,-0.3515625 0.257813,-0.7617188 1.113282,-0.7617188 1.101562,0 1.148437,0.9023438 1.171875,1.2070313 0,0.09375 0.09375,0.09375 0.117187,0.09375 0.128906,0 0.128906,-0.046875 0.128906,-0.2460938 V 7.7367422 c 0,-0.1757813 0,-0.2460938 -0.117187,-0.2460938 -0.04687,0 -0.07031,0 -0.199219,0.1171875 -0.02344,0.046875 -0.128906,0.1289063 -0.164062,0.1640625 -0.375,-0.28125 -0.785157,-0.28125 -0.9375,-0.28125 -1.21875,0 -1.59375,0.6679688 -1.59375,1.2304688 0,0.3398437 0.164062,0.6210937 0.433593,0.84375 0.316407,0.2578125 0.597657,0.3164062 1.3125,0.4570308 z m 5.745118,1.148438 v 0.890625 l 1.441406,-0.105469 v -0.304687 c -0.703125,0 -0.785156,-0.07031 -0.785156,-0.5625 V 7.5492422 l -1.453125,0.1171875 v 0.3046875 c 0.691406,0 0.773437,0.070312 0.773437,0.5625 v 1.7695308 c 0,0.867188 -0.480469,1.546875 -1.207031,1.546875 -0.832031,0 -0.878906,-0.46875 -0.878906,-0.996093 V 7.5492422 l -1.464844,0.1171875 v 0.3046875 c 0.785156,0 0.785156,0.035156 0.785156,0.9140625 V 10.38518 c 0,0.773437 0,1.675781 1.511719,1.675781 0.550781,0 0.996094,-0.269531 1.277344,-0.890625 z m 2.748047,-2.6367188 v 2.6601558 c 0,0.457032 -0.117188,0.457032 -0.785157,0.457032 v 0.304687 c 0.351563,-0.01172 0.855469,-0.03516 1.125,-0.03516 0.257813,0 0.785157,0.02344 1.113282,0.03516 v -0.304687 c -0.65625,0 -0.773438,0 -0.773438,-0.457032 V 9.3656484 c 0,-1.03125 0.714844,-1.59375 1.347656,-1.59375 0.621094,0 0.738282,0.5390625 0.738282,1.1015625 v 2.3203121 c 0,0.457032 -0.117188,0.457032 -0.773438,0.457032 v 0.304687 c 0.339844,-0.01172 0.855469,-0.03516 1.125,-0.03516 0.257813,0 0.773438,0.02344 1.113281,0.03516 v -0.304687 c -0.667968,0 -0.785156,0 -0.785156,-0.457032 V 9.3656484 c 0,-1.03125 0.714844,-1.59375 1.347656,-1.59375 0.632813,0 0.738282,0.5390625 0.738282,1.1015625 v 2.3203121 c 0,0.457032 -0.105469,0.457032 -0.773438,0.457032 v 0.304687 c 0.351563,-0.01172 0.855469,-0.03516 1.125,-0.03516 0.257813,0 0.773438,0.02344 1.113281,0.03516 v -0.304687 c -0.515625,0 -0.761718,0 -0.773437,-0.304688 V 9.4476797 c 0,-0.8554688 0,-1.171875 -0.316406,-1.5234375 -0.128907,-0.1757813 -0.46875,-0.375 -1.042969,-0.375 -0.832031,0 -1.277344,0.5976562 -1.441406,0.984375 -0.140625,-0.8671875 -0.878907,-0.984375 -1.324219,-0.984375 -0.726563,0 -1.195313,0.4335937 -1.476563,1.0546875 V 7.5492422 l -1.40625,0.1171875 v 0.3046875 c 0.703125,0 0.785157,0.070312 0.785157,0.5625 z m 8.311523,0.9140625 c 0.05859,-1.4882813 0.902344,-1.734375 1.242187,-1.734375 1.019532,0 1.125,1.3476562 1.125,1.734375 z m -0.01172,0.2109375 h 2.789063 c 0.210937,0 0.246093,0 0.246093,-0.2109375 0,-0.984375 -0.539062,-1.9570313 -1.78125,-1.9570313 -1.160156,0 -2.074218,1.03125 -2.074218,2.2734375 0,1.3359371 1.042968,2.2968751 2.191406,2.2968751 1.21875,0 1.664062,-1.101563 1.664062,-1.289063 0,-0.105468 -0.08203,-0.117187 -0.128906,-0.117187 -0.09375,0 -0.117187,0.05859 -0.128906,0.140625 -0.351563,1.019531 -1.253906,1.019531 -1.347656,1.019531 -0.503907,0 -0.902344,-0.292969 -1.125,-0.667969 C 32.813617,10.66643 32.813617,10.01018 32.813616,9.6586172 Z M 37.805805,8.6508047 V 7.5492422 l -1.382813,0.1171875 v 0.3046875 c 0.691406,0 0.773438,0.070312 0.773438,0.5625 v 2.6601558 c 0,0.457032 -0.105469,0.457032 -0.773438,0.457032 v 0.304687 c 0.386719,-0.01172 0.855469,-0.03516 1.136719,-0.03516 0.398437,0 0.867187,0 1.265625,0.03516 v -0.304687 h -0.210938 c -0.738281,0 -0.761718,-0.117188 -0.761718,-0.46875 V 9.6468984 c 0,-0.984375 0.421875,-1.875 1.183593,-1.875 0.05859,0 0.08203,0 0.105469,0.011719 -0.03516,0.011719 -0.234375,0.1289062 -0.234375,0.3867187 0,0.28125 0.210938,0.4335938 0.433594,0.4335938 0.175781,0 0.421875,-0.1289063 0.421875,-0.4453125 0,-0.3164063 -0.304688,-0.609375 -0.726563,-0.609375 -0.738281,0 -1.089843,0.6679687 -1.230468,1.1015623 z m 0,0"
       style="fill:#000000;fill-opacity:1;fill-rule:nonzero;stroke:none"
       aria-label="Marginal&#10;consumer"
       transform="matrix(1.3333333,0,0,1.3333333,219.15867,106.532)" />
    <path
       id="path24"
       d="M 170.08086,-21.2601 V -4.2603"
       style="fill:none;stroke:#000000;stroke-width:0.3985;stroke-linecap:round;stroke-linejoin:miter;stroke-miterlimit:10;stroke-dasharray:none;stroke-opacity:1"
       transform="matrix(1.3333333,0,0,-1.3333333,18.418667,66.425333)" />
    <path
       id="path25"
       d="M 1.99252,0 -1.19551,1.59401 0,0 -1.19551,-1.59401"
       style="fill:#000000;fill-opacity:1;fill-rule:nonzero;stroke:none"
       transform="matrix(0,-1.3333333,-1.3333333,0,245.19315,72.105733)" />
  </g>
</svg>
